<?xml version="1.0" standalone="no"?>
  <!DOCTYPE svg PUBLIC "-//W3C//DTD SVG 1.1//EN" "http://www.w3.org/Graphics/SVG/1.1/DTD/svg11.dtd" >
  <svg>
  <metadata>
  Created by font-carrier
  </metadata>
  <defs>
  <font id="BravoRG" horiz-adv-x="899" vert-adv-y="899" >
    <font-face
      
      font-family="BravoRG"
      
      font-weight="400"
      
      font-stretch="normal"
      
      units-per-em="1000"
      
      ascent="880"
      
      descent="-250"
      
    />
      <missing-glyph />

      

      
      <glyph glyph-name="uni21" unicode="&#x21;" d="M30 71L91 71L91 0L30 0L30 71M30 700L91 700L91 134L30 134L30 700Z"  horiz-adv-x="121" vert-adv-y="1000"  />

      
      <glyph glyph-name="uni22" unicode="&#x22;" d="M30 710L80 710L80 549L30 549L30 710M130 710L180 710L180 549L130 549L130 710Z"  horiz-adv-x="210" vert-adv-y="1000"  />

      
      <glyph glyph-name="uni23" unicode="&#x23;" d="M314 700L366 700L324 497L369 497L369 447L313 447L280 285L335 285L335 234L270 234L222 0L170 0L218 234L139 234L91 0L39 0L87 234L30 234L30 285L98 285L131 447L75 447L75 497L141 497L183 700L235 700L193 497L272 497L314 700M262 447L182 447L149 285L228 285L262 447Z"  horiz-adv-x="399" vert-adv-y="1000"  />

      
      <glyph glyph-name="uni24" unicode="&#x24;" d="M105-60L105 20Q73 25 51.50 48.50Q30 72 30 104L30 222L91 222L91 104Q91 93 100 86.50Q109 80 121 80L141 80Q153 80 162 86.50Q171 93 171 104L171 172Q171 201 147 251L54 452Q30 502 30 535L30 586Q30 617 51.50 641Q73 665 105 670L105 750L156 750L156 670Q188 665 210 641.50Q232 618 232 586L232 499L171 499L171 586Q171 597 161.50 604Q152 611 141 611L121 611Q110 611 100.50 604Q91 597 91 586L91 531Q91 524 93.50 515Q96 506 98.50 500Q101 494 106.50 482.50Q112 471 114 467L208 262Q232 212 232 180L232 104Q232 73 210 49Q188 25 156 20L156-60L105-60Z"  horiz-adv-x="262" vert-adv-y="1000"  />

      
      <glyph glyph-name="uni25" unicode="&#x25;" d="M375 500L403 462L58 198L30 237L375 500M190 480L190 614Q190 630 177.50 640Q165 650 149 650Q134 650 121 641Q108 632 108 614L108 480Q108 465 121.50 455Q135 445 149 445Q165 445 177.50 454.50Q190 464 190 480M242 614L242 480Q242 443 216 418.50Q190 394 151 394L147 394Q109 394 82.50 418.50Q56 443 56 480L56 614Q56 651 82.50 675.50Q109 700 147 700L151 700Q190 700 216 675.50Q242 651 242 614M324 86L324 220Q324 236 311.50 246Q299 256 283 256Q268 256 255 247Q242 238 242 220L242 86Q242 71 255.50 61Q269 51 283 51Q299 51 311.50 60.50Q324 70 324 86M376 220L376 86Q376 49 350 24.50Q324 0 285 0L281 0Q243 0 216.50 24.50Q190 49 190 86L190 220Q190 257 216.50 281.50Q243 306 281 306L285 306Q324 306 350 281.50Q376 257 376 220Z"  horiz-adv-x="433" vert-adv-y="1000"  />

      
      <glyph glyph-name="uni26" unicode="&#x26;" d="M233 700L233 639L122 639Q110 639 101 629Q92 619 92 608L92 471Q92 443 105.50 425.50Q119 408 145 408L310 408L310 347L258 347L258 0L121 0Q83 0 56.50 27.50Q30 55 30 92L30 300Q30 326 44 348Q58 370 80 381Q31 409 31 472L31 609Q31 647 58 673.50Q85 700 122 700L233 700M197 347L139 347Q91 347 91 289L91 93Q91 80 100.50 71Q110 62 121 62L197 62L197 347Z"  horiz-adv-x="340" vert-adv-y="1000"  />

      
      <glyph glyph-name="uni27" unicode="&#x27;" d="M30 710L80 710L80 549L30 549L30 710Z"  horiz-adv-x="110" vert-adv-y="1000"  />

      
      <glyph glyph-name="uni28" unicode="&#x28;" d="M117 750L173 750Q94 496 94 303Q94 90 173-154L116-154Q30 77 30 303Q30 516 117 750Z"  horiz-adv-x="200" vert-adv-y="1000"  />

      
      <glyph glyph-name="uni29" unicode="&#x29;" d="M30 750L86 750Q173 516 173 303Q173 77 87-154L30-154Q109 90 109 303Q109 496 30 750Z"  horiz-adv-x="200" vert-adv-y="1000"  />

      
      <glyph glyph-name="uni2a" unicode="&#x2a;" d="M209 671L236 626L163 596L236 567L209 522L148 570L159 493L106 493L117 570L56 522L30 567L102 596L30 626L56 671L117 623L106 700L159 700L148 623L209 671Z"  horiz-adv-x="266" vert-adv-y="1000"  />

      
      <glyph glyph-name="uni2b" unicode="&#x2b;" d="M169 540L220 540L220 401L359 401L359 350L220 350L220 211L169 211L169 350L30 350L30 401L169 401L169 540Z"  horiz-adv-x="389" vert-adv-y="1000"  />

      
      <glyph glyph-name="uni2c" unicode="&#x2c;" d="M30 71L101 71L101 0L53-108L30-108L56 0L30 0L30 71Z"  horiz-adv-x="131" vert-adv-y="1000"  />

      
      <glyph glyph-name="uni2d" unicode="&#x2d;" d="M30 268L30 322L227 322L227 268L30 268Z"  horiz-adv-x="257" vert-adv-y="1000"  />

      
      <glyph glyph-name="uni2e" unicode="&#x2e;" d="M30 0L30 71L101 71L101 0L30 0Z"  horiz-adv-x="131" vert-adv-y="1000"  />

      
      <glyph glyph-name="uni2f" unicode="&#x2f;" d="M282 750L345 750L73-154L10-154L282 750Z"  horiz-adv-x="350" vert-adv-y="1000"  />

      
      <glyph glyph-name="uni30" unicode="&#x30;" d="M106 351L191 507L191 604Q191 616 182 625Q173 634 161 634L136 634Q124 634 115 625Q106 616 106 604L106 351M257 609L257 91Q257 52 230 26Q203 0 166 0L131 0Q93 0 66.50 26.50Q40 53 40 91L40 609Q40 646 67.50 673Q95 700 131 700L166 700Q203 700 230 672.50Q257 645 257 609M191 398L106 241L106 96Q106 84 115 75Q124 66 136 66L161 66Q173 66 182 75Q191 84 191 96L191 398Z"  horiz-adv-x="297" vert-adv-y="1000"  />

      
      <glyph glyph-name="uni31" unicode="&#x31;" d="M177 700L177 66L245 66L245 0L44 0L44 66L112 66L112 634L40 634L40 700L177 700Z"  horiz-adv-x="285" vert-adv-y="1000"  />

      
      <glyph glyph-name="uni32" unicode="&#x32;" d="M246 434L136 202Q111 149 111 97L111 66L257 66L257 0L45 0L45 97Q45 166 76 229L186 459Q197 483 197 528L197 604Q197 616 187.50 625Q178 634 166 634L136 634Q124 634 115 625Q106 616 106 604L106 528L40 528L40 609Q40 646 67.50 673Q95 700 131 700L171 700Q209 700 235.50 673Q262 646 262 609L262 528Q262 467 246 434Z"  horiz-adv-x="302" vert-adv-y="1000"  />

      
      <glyph glyph-name="uni33" unicode="&#x33;" d="M255 700L255 614L159 437Q170 446 186 446Q223 446 244 422.50Q265 399 265 361L265 91Q265 54 238.50 27Q212 0 174 0L131 0Q94 0 67 27Q40 54 40 91L40 201L106 201L106 96Q106 83 115 74.50Q124 66 136 66L169 66Q182 66 190.50 74.50Q199 83 199 96L199 353Q199 366 189.50 375.50Q180 385 167 385Q131 385 112 349L56 373L192 634L40 634L40 700L255 700Z"  horiz-adv-x="305" vert-adv-y="1000"  />

      
      <glyph glyph-name="uni34" unicode="&#x34;" d="M102 201L184 201L184 386L197 617L102 201M250 700L250 201L308 201L308 140L250 140L250 0L184 0L184 140L35 140L35 201L156 700L250 700Z"  horiz-adv-x="338" vert-adv-y="1000"  />

      
      <glyph glyph-name="uni35" unicode="&#x35;" d="M268 360L268 91Q268 54 241 27Q214 0 177 0L132 0Q94 0 67 26.50Q40 53 40 91L40 201L106 201L106 96Q106 84 115 75Q124 66 137 66L172 66Q184 66 193 74.50Q202 83 202 96L202 350Q202 365 190.50 375Q179 385 164 385Q107 385 107 299L40 299L40 700L253 700L253 634L106 634L106 429Q131 451 172 451Q209 451 238.50 424Q268 397 268 360Z"  horiz-adv-x="308" vert-adv-y="1000"  />

      
      <glyph glyph-name="uni36" unicode="&#x36;" d="M202 96L202 350Q202 362 192.50 371Q183 380 171 380Q106 380 106 294L106 96Q106 84 115 75Q124 66 136 66L171 66Q184 66 193 74.50Q202 83 202 96M267 355L267 91Q267 54 240.50 27Q214 0 176 0L131 0Q94 0 67 27Q40 54 40 91L40 609Q40 646 67 673Q94 700 131 700L176 700Q214 700 240.50 673Q267 646 267 609L267 528L202 528L202 604Q202 616 193 625Q184 634 171 634L136 634Q124 634 115 625Q106 616 106 604L106 421Q134 446 171 446Q212 446 239.50 419.50Q267 393 267 355Z"  horiz-adv-x="307" vert-adv-y="1000"  />

      
      <glyph glyph-name="uni37" unicode="&#x37;" d="M30 634L30 700L270 700L270 623Q242 563 222.50 501Q203 439 193 392Q183 345 177.50 268Q172 191 171 147Q170 103 168 0L102 0Q105 232 122 360.50Q139 489 204 630L204 634L30 634Z"  horiz-adv-x="300" vert-adv-y="1000"  />

      
      <glyph glyph-name="uni38" unicode="&#x38;" d="M106 349L106 96Q106 83 115 74.50Q124 66 137 66L164 66Q177 66 185.50 75Q194 84 194 96L194 349Q194 362 185.50 371Q177 380 164 380L137 380Q124 380 115 371Q106 362 106 349M40 91L40 341Q40 395 92 415Q73 422 59 439Q45 456 45 478L45 609Q45 647 72 673.50Q99 700 137 700L164 700Q202 700 228.50 673Q255 646 255 609L255 478Q255 454 240.50 437Q226 420 209 415Q260 392 260 341L260 91Q260 54 233 27Q206 0 169 0L132 0Q94 0 67 26.50Q40 53 40 91M111 604L111 475Q111 462 120 453.50Q129 445 141 445L159 445Q172 445 180.50 453.50Q189 462 189 475L189 604Q189 616 180.50 625Q172 634 159 634L142 634Q129 634 120 625Q111 616 111 604Z"  horiz-adv-x="300" vert-adv-y="1000"  />

      
      <glyph glyph-name="uni39" unicode="&#x39;" d="M201 441L201 604Q201 616 192 625Q183 634 170 634L136 634Q123 634 114 625Q105 616 105 604L105 385Q105 373 114 364Q123 355 136 355Q201 355 201 441M267 609L267 91Q267 54 240 27Q213 0 175 0L131 0Q93 0 66.50 26.50Q40 53 40 91L40 201L105 201L105 96Q105 84 114 75Q123 66 136 66L170 66Q183 66 192 75Q201 84 201 96L201 316Q172 289 136 289Q98 289 69 316.50Q40 344 40 380L40 609Q40 646 67 673Q94 700 131 700L175 700Q213 700 240 673Q267 646 267 609Z"  horiz-adv-x="307" vert-adv-y="1000"  />

      
      <glyph glyph-name="uni3a" unicode="&#x3a;" d="M30 449L30 520L101 520L101 449L30 449M30 0L30 71L101 71L101 0L30 0Z"  horiz-adv-x="131" vert-adv-y="1000"  />

      
      <glyph glyph-name="uni3b" unicode="&#x3b;" d="M30 520L101 520L101 449L30 449L30 520M30 71L101 71L101 0L53-108L30-108L56 0L30 0L30 71Z"  horiz-adv-x="131" vert-adv-y="1000"  />

      
      <glyph glyph-name="uni3c" unicode="&#x3c;" d="M487 540L487 474L122 296L487 117L487 52L30 276L30 315L487 540Z"  horiz-adv-x="517" vert-adv-y="1000"  />

      
      <glyph glyph-name="uni3d" unicode="&#x3d;" d="M30 236L30 296L425 296L425 236L30 236M30 430L30 491L425 491L425 430L30 430Z"  horiz-adv-x="455" vert-adv-y="1000"  />

      
      <glyph glyph-name="uni3e" unicode="&#x3e;" d="M30 474L30 540L487 315L487 276L30 52L30 117L395 296L30 474Z"  horiz-adv-x="517" vert-adv-y="1000"  />

      
      <glyph glyph-name="uni3f" unicode="&#x3f;" d="M101 71L162 71L162 0L101 0L101 71M91 529L30 529L30 609Q30 646 57 673Q84 700 121 700L141 700Q179 700 205.50 673.50Q232 647 232 609L232 529Q232 478 197 372Q162 266 162 214L162 134L101 134L101 214Q101 270 136 376.50Q171 483 171 529L171 609Q171 622 162.50 630.50Q154 639 141 639L121 639Q108 639 99.50 630.50Q91 622 91 609L91 529Z"  horiz-adv-x="262" vert-adv-y="1000"  />

      
      <glyph glyph-name="uni40" unicode="&#x40;" d="M311 146L311 257L249 257Q241 257 234.50 250Q228 243 228 235L228 146Q228 137 235 131Q242 125 251 125Q267 125 311 146M359 396L359 129Q368 104 405 104Q443 104 443 143L443 433Q443 488 403.50 527.50Q364 567 308 567L230 567Q174 567 134.50 527.50Q95 488 95 433L95 102Q95 46 134.50 6.50Q174-33 230-33L328-33L328-93L220-93Q144-93 89.50-38.50Q35 16 35 92L35 443Q35 519 89.50 573Q144 627 220 627L318 627Q394 627 448.50 573Q503 519 503 443L503 143Q503 102 472.50 77.50Q442 53 404 53Q344 53 315 98Q275 79 242 79Q214 79 197 95Q180 111 180 137L180 239Q180 266 199.50 285Q219 304 245 304L311 304L311 391Q311 400 304.50 406.50Q298 413 290 413L252 413Q231 413 231 391L231 355L183 355L183 396Q183 423 202.50 442Q222 461 249 461L295 461Q322 461 340.50 441.50Q359 422 359 396Z"  horiz-adv-x="538" vert-adv-y="1000"  />

      
      <glyph glyph-name="uni41" unicode="&#x41;" d="M87 0L20 0L115 700L234 700L329 0L263 0L233 206L116 206L87 0M177 635L172 635L123 267L226 267L177 635Z"  horiz-adv-x="349" vert-adv-y="1000"  />

      
      <glyph glyph-name="uni42" unicode="&#x42;" d="M40 700L198 700Q237 700 264.50 672.50Q292 645 292 606L292 473Q292 445 277 416.50Q262 388 235 377Q263 367 277.50 342.50Q292 318 292 290L292 94Q292 55 264.50 27.50Q237 0 198 0L40 0L40 700M175 408Q226 408 226 476L226 606Q226 617 218 625.50Q210 634 198 634L106 634L106 408L175 408M106 347L106 66L198 66Q210 66 218 74Q226 82 226 94L226 297Q226 328 212.50 337.50Q199 347 168 347L106 347Z"  horiz-adv-x="332" vert-adv-y="1000"  />

      
      <glyph glyph-name="uni43" unicode="&#x43;" d="M205 528L205 606Q205 617 197 625.50Q189 634 177 634L134 634Q123 634 114.50 625.50Q106 617 106 606L106 94Q106 82 114.50 74Q123 66 134 66L177 66Q188 66 196.50 74Q205 82 205 94L205 201L271 201L271 94Q271 55 243.50 27.50Q216 0 177 0L134 0Q96 0 68 27.50Q40 55 40 94L40 606Q40 645 68 672.50Q96 700 134 700L177 700Q216 700 243.50 672.50Q271 645 271 606L271 528L205 528Z"  horiz-adv-x="311" vert-adv-y="1000"  />

      
      <glyph glyph-name="uni44" unicode="&#x44;" d="M40 700L196 700Q234 700 261.50 672.50Q289 645 289 606L289 94Q289 55 261.50 27.50Q234 0 196 0L40 0L40 700M106 634L106 66L196 66Q207 66 215 74Q223 82 223 94L223 606Q223 617 215 625.50Q207 634 196 634L106 634Z"  horiz-adv-x="329" vert-adv-y="1000"  />

      
      <glyph glyph-name="uni45" unicode="&#x45;" d="M231 634L106 634L106 408L215 408L215 347L106 347L106 66L230 66L230 0L40 0L40 700L231 700L231 634Z"  horiz-adv-x="261" vert-adv-y="1000"  />

      
      <glyph glyph-name="uni46" unicode="&#x46;" d="M231 634L106 634L106 408L216 408L216 347L106 347L106 0L40 0L40 700L231 700L231 634Z"  horiz-adv-x="241" vert-adv-y="1000"  />

      
      <glyph glyph-name="uni47" unicode="&#x47;" d="M205 528L205 606Q205 617 197 625.50Q189 634 177 634L134 634Q123 634 114.50 625.50Q106 617 106 606L106 94Q106 82 114.50 74Q123 66 134 66L177 66Q188 66 196.50 74Q205 82 205 94L205 286L162 286L162 347L271 347L271 94Q271 55 243.50 27.50Q216 0 177 0L134 0Q95 0 67.50 27.50Q40 55 40 94L40 606Q40 644 68 672Q96 700 134 700L177 700Q216 700 243.50 672.50Q271 645 271 606L271 528L205 528Z"  horiz-adv-x="311" vert-adv-y="1000"  />

      
      <glyph glyph-name="uni48" unicode="&#x48;" d="M295 700L295 0L229 0L229 347L106 347L106 0L40 0L40 700L106 700L106 408L229 408L229 700L295 700Z"  horiz-adv-x="335" vert-adv-y="1000"  />

      
      <glyph glyph-name="uni49" unicode="&#x49;" d="M220 634L163 634L163 66L220 66L220 0L40 0L40 66L97 66L97 634L40 634L40 700L220 700L220 634Z"  horiz-adv-x="260" vert-adv-y="1000"  />

      
      <glyph glyph-name="uni4a" unicode="&#x4a;" d="M91 201L91 94Q91 82 99.50 74Q108 66 119 66L162 66Q174 66 182 74Q190 82 190 94L190 634L96 634L96 700L256 700L256 94Q256 55 228.50 27.50Q201 0 162 0L119 0Q81 0 53 27.50Q25 55 25 94L25 201L91 201Z"  horiz-adv-x="296" vert-adv-y="1000"  />

      
      <glyph glyph-name="uni4b" unicode="&#x4b;" d="M106 700L106 408L131 408L221 700L289 700L186 388L288 0L220 0L129 347L106 347L106 0L40 0L40 700L106 700Z"  horiz-adv-x="304" vert-adv-y="1000"  />

      
      <glyph glyph-name="uni4c" unicode="&#x4c;" d="M106 700L106 66L230 66L230 0L40 0L40 700L106 700Z"  horiz-adv-x="260" vert-adv-y="1000"  />

      
      <glyph glyph-name="uni4d" unicode="&#x4d;" d="M370 0L370 298L391 571L384 572L274 0L204 0L95 572L88 571L106 298L106 0L40 0L40 700L134 700L239 141L341 700L436 700L436 0L370 0Z"  horiz-adv-x="476" vert-adv-y="1000"  />

      
      <glyph glyph-name="uni4e" unicode="&#x4e;" d="M268 131L275 133L256 382L256 700L322 700L322 0L233 0L94 579L87 577L106 318L106 0L40 0L40 700L130 700L268 131Z"  horiz-adv-x="362" vert-adv-y="1000"  />

      
      <glyph glyph-name="uni4f" unicode="&#x4f;" d="M228 606Q228 617 219.50 625.50Q211 634 200 634L134 634Q123 634 114.50 625.50Q106 617 106 606L106 94Q106 82 114.50 74Q123 66 134 66L200 66Q211 66 219.50 74Q228 82 228 94L228 606M294 606L294 94Q294 55 266.50 27.50Q239 0 200 0L134 0Q96 0 68 27.50Q40 55 40 94L40 606Q40 645 68 672.50Q96 700 134 700L200 700Q239 700 266.50 672.50Q294 645 294 606Z"  horiz-adv-x="334" vert-adv-y="1000"  />

      
      <glyph glyph-name="uni50" unicode="&#x50;" d="M106 634L106 347L182 347Q196 347 205 358Q214 369 214 383L214 606Q214 617 205.50 625.50Q197 634 186 634L106 634M40 0L40 700L186 700Q224 700 252 672.50Q280 645 280 606L280 378Q280 339 255.50 312Q231 285 192 285L106 285L106 0L40 0Z"  horiz-adv-x="315" vert-adv-y="1000"  />

      
      <glyph glyph-name="uni51" unicode="&#x51;" d="M78-27Q116-27 142.50-36.50Q169-46 203-69Q250-99 291-99L291-155Q253-155 226.50-145.50Q200-136 166-113Q121-83 78-83L78-27M227 606Q227 617 219 625.50Q211 634 199 634L134 634Q123 634 114.50 625.50Q106 617 106 606L106 94Q106 82 114.50 74Q123 66 134 66L199 66Q211 66 219 74Q227 82 227 94L227 606M293 606L293 94Q293 55 265.50 27.50Q238 0 199 0L134 0Q95 0 67.50 27.50Q40 55 40 94L40 606Q40 645 67.50 672.50Q95 700 134 700L199 700Q238 700 265.50 672.50Q293 645 293 606Z"  horiz-adv-x="333" vert-adv-y="1000"  />

      
      <glyph glyph-name="uni52" unicode="&#x52;" d="M106 408L157 408Q217 408 217 472L217 606Q217 617 208.50 625.50Q200 634 189 634L106 634L106 408M40 700L189 700Q227 700 255 672Q283 644 283 606L283 468Q283 405 224 377Q283 364 283 302L283 0L217 0L217 297Q217 347 167 347L106 347L106 0L40 0L40 700Z"  horiz-adv-x="323" vert-adv-y="1000"  />

      
      <glyph glyph-name="uni53" unicode="&#x53;" d="M106 201L106 94Q106 82 114.50 74Q123 66 134 66L180 66Q191 66 199.50 74Q208 82 208 94L208 213Q208 255 187 280L73 419Q40 460 40 525L40 606Q40 644 68 672Q96 700 134 700L180 700Q218 700 246 672.50Q274 645 274 606L274 528L208 528L208 606Q208 617 199.50 625.50Q191 634 180 634L134 634Q123 634 114.50 625.50Q106 617 106 606L106 525Q106 484 127 458L240 319Q274 278 274 213L274 94Q274 55 246 27.50Q218 0 180 0L134 0Q95 0 67.50 27.50Q40 55 40 94L40 201L106 201Z"  horiz-adv-x="314" vert-adv-y="1000"  />

      
      <glyph glyph-name="uni54" unicode="&#x54;" d="M253 634L172 634L172 0L106 0L106 634L25 634L25 700L253 700L253 634Z"  horiz-adv-x="278" vert-adv-y="1000"  />

      
      <glyph glyph-name="uni55" unicode="&#x55;" d="M106 700L106 94Q106 82 114 74Q122 66 134 66L201 66Q212 66 220.50 74Q229 82 229 94L229 700L295 700L295 94Q295 55 267 27.50Q239 0 201 0L134 0Q95 0 67.50 27.50Q40 55 40 94L40 700L106 700Z"  horiz-adv-x="335" vert-adv-y="1000"  />

      
      <glyph glyph-name="uni56" unicode="&#x56;" d="M262 700L330 700L221 0L122 0L15 700L83 700L172 88L262 700Z"  horiz-adv-x="345" vert-adv-y="1000"  />

      
      <glyph glyph-name="uni57" unicode="&#x57;" d="M516 700L414 0L318 0L270 411L266 411L217 0L121 0L20 700L86 700L168 89L172 89L207 397L235 562L216 700L321 700L301 562L329 397L364 89L368 89L449 700L516 700Z"  horiz-adv-x="536" vert-adv-y="1000"  />

      
      <glyph glyph-name="uni58" unicode="&#x58;" d="M94 700L179 416L264 700L333 700L235 375L343 0L275 0L179 334L84 0L15 0L122 375L26 700L94 700Z"  horiz-adv-x="358" vert-adv-y="1000"  />

      
      <glyph glyph-name="uni59" unicode="&#x59;" d="M65 66L122 66L122 319L10 700L78 700L155 421L235 700L303 700L188 320L188 66L245 66L245 0L65 0L65 66Z"  horiz-adv-x="313" vert-adv-y="1000"  />

      
      <glyph glyph-name="uni5a" unicode="&#x5a;" d="M42 700L268 700L108 66L247 66L247 0L20 0L180 634L42 634L42 700Z"  horiz-adv-x="288" vert-adv-y="1000"  />

      
      <glyph glyph-name="uni5b" unicode="&#x5b;" d="M155 700L155 639L92 639L92-92L155-92L155-154L30-154L30 700L155 700Z"  horiz-adv-x="185" vert-adv-y="1000"  />

      
      <glyph glyph-name="uni5c" unicode="&#x5c;" d="M10 750L73 750L345-154L282-154L10 750Z"  horiz-adv-x="350" vert-adv-y="1000"  />

      
      <glyph glyph-name="uni5d" unicode="&#x5d;" d="M30 639L30 700L155 700L155-154L30-154L30-92L93-92L93 639L30 639Z"  horiz-adv-x="185" vert-adv-y="1000"  />

      
      <glyph glyph-name="uni5f" unicode="&#x5f;" d="M580-152L580-200L30-200L30-152L580-152Z"  horiz-adv-x="610" vert-adv-y="1000"  />

      
      <glyph glyph-name="uni60" unicode="&#x60;" d="M45 662L75 700L164 634L134 596L45 662Z"  horiz-adv-x="209" vert-adv-y="1000"  />

      
      <glyph glyph-name="uni61" unicode="&#x61;" d="M229 89L229 258L128 258Q116 258 106.50 248Q97 238 97 227L97 87Q97 74 106.50 65.50Q116 57 128 57Q135 57 139 58L229 89M128 320L229 320L229 446Q229 459 219.50 468Q210 477 198 477L138 477Q125 477 116 468Q107 461 107 446L107 394L45 394L45 447Q45 486 72.50 513Q100 540 139 540L199 540Q237 540 264.50 512Q292 484 292 447L292 0L240 0L230 24L159 1Q137-5 123-5Q84-5 59.50 18.50Q35 42 35 79L35 227Q35 265 63 292.50Q91 320 128 320Z"  horiz-adv-x="327" vert-adv-y="1000"  />

      
      <glyph glyph-name="uni62" unicode="&#x62;" d="M35 700L97 700L97 517L168 539Q185 545 202 545Q241 545 266.50 521Q292 497 292 458L292 94Q292 55 265 27.50Q238 0 199 0L35 0L35 700M186 479L97 449L97 62L199 62Q212 62 221 71Q230 80 230 93L230 455Q230 482 202 482Q194 482 186 479Z"  horiz-adv-x="327" vert-adv-y="1000"  />

      
      <glyph glyph-name="uni63" unicode="&#x63;" d="M270 394L208 394L208 446Q208 459 199 468Q190 477 177 477L128 477Q115 477 106 468Q97 459 97 446L97 93Q97 80 106 71Q115 62 128 62L177 62Q190 62 199 71Q208 80 208 93L208 178L270 178L270 93Q270 55 243 27.50Q216 0 177 0L128 0Q90 0 62.50 27.50Q35 55 35 93L35 446Q35 485 62.50 512.50Q90 540 128 540L177 540Q216 540 243 512.50Q270 485 270 446L270 394Z"  horiz-adv-x="305" vert-adv-y="1000"  />

      
      <glyph glyph-name="uni64" unicode="&#x64;" d="M292 0L240 0L230 24L159 0Q144-5 125-5Q88-5 61.50 20.50Q35 46 35 83L35 458Q35 496 61.50 520.50Q88 545 126 545Q144 545 159 540L230 517L230 700L292 700L292 0M126 483Q114 483 105.50 475.50Q97 468 97 456L97 83Q97 71 105 64Q113 57 125 57Q130 57 138 59L230 89L230 450L138 481Q130 483 126 483Z"  horiz-adv-x="327" vert-adv-y="1000"  />

      
      <glyph glyph-name="uni65" unicode="&#x65;" d="M97 446L97 320L220 320L220 446Q220 459 210.50 468Q201 477 189 477L128 477Q115 477 106 467.50Q97 458 97 446M282 258L97 258L97 93Q97 80 106.50 71Q116 62 128 62L189 62Q202 62 211 71.50Q220 81 220 93L220 178L282 178L282 94Q282 55 254.50 27.50Q227 0 189 0L128 0Q90 0 62.50 28.50Q35 57 35 94L35 447Q35 486 62.50 513Q90 540 128 540L189 540Q228 540 255 512.50Q282 485 282 447L282 258Z"  horiz-adv-x="317" vert-adv-y="1000"  />

      
      <glyph glyph-name="uni66" unicode="&#x66;" d="M125 0L63 0L63 477L15 477L15 540L63 540L63 607Q63 645 91 672.50Q119 700 156 700L209 700L209 638L156 638Q143 638 134 628.50Q125 619 125 607L125 540L199 540L199 477L125 477L125 0Z"  horiz-adv-x="224" vert-adv-y="1000"  />

      
      <glyph glyph-name="uni67" unicode="&#x67;" d="M227 540L279 540L279-62Q279-101 252-128Q225-155 186-155L66-155L66-93L186-93Q199-93 208-84Q217-75 217-62L217 24L159 0Q145-5 126-5Q88-5 61.50 20.50Q35 46 35 83L35 459Q35 495 61.50 520Q88 545 125 545Q145 545 159 540L217 517L227 540M124 484Q97 484 97 457L97 84Q97 72 105 64.50Q113 57 125 57Q135 57 139 59L217 89L217 450L138 481Q132 484 124 484Z"  horiz-adv-x="314" vert-adv-y="1000"  />

      
      <glyph glyph-name="uni68" unicode="&#x68;" d="M35 700L97 700L97 517L155 540Q172 545 187 545Q225 545 252 517.50Q279 490 279 452L279 0L217 0L217 456Q217 468 208.50 475.50Q200 483 187 483Q183 483 175 481L97 450L97 0L35 0L35 700Z"  horiz-adv-x="314" vert-adv-y="1000"  />

      
      <glyph glyph-name="uni69" unicode="&#x69;" d="M102 0L40 0L40 540L102 540L102 0M41 700L102 700L102 629L41 629L41 700Z"  horiz-adv-x="142" vert-adv-y="1000"  />

      
      <glyph glyph-name="uni6a" unicode="&#x6a;" d="M102 540L40 540L40-8Q40-21 31.50-30Q23-39 9-39L-33-39L-33-101L9-101Q46-101 74-73.50Q102-46 102-8L102 540M41 700L102 700L102 629L41 629L41 700Z"  horiz-adv-x="142" vert-adv-y="1000"  />

      
      <glyph glyph-name="uni6b" unicode="&#x6b;" d="M35 700L97 700L97 320L125 320L225 540L292 540L179 288L291 0L225 0L123 258L97 258L97 0L35 0L35 700Z"  horiz-adv-x="307" vert-adv-y="1000"  />

      
      <glyph glyph-name="uni6c" unicode="&#x6c;" d="M40 700L102 700L102 0L40 0L40 700Z"  horiz-adv-x="142" vert-adv-y="1000"  />

      
      <glyph glyph-name="uni6d" unicode="&#x6d;" d="M35 540L87 540L97 517L130 536Q147 545 172 545Q220 545 244 512L295 536Q313 545 337 545Q376 545 401 520Q426 495 426 457L426 0L364 0L364 457Q364 483 338 483Q329 483 321 479L261 450L261 0L199 0L199 456Q199 483 172 483Q164 483 156 479L97 450L97 0L35 0L35 540Z"  horiz-adv-x="461" vert-adv-y="1000"  />

      
      <glyph glyph-name="uni6e" unicode="&#x6e;" d="M35 540L87 540L97 517L155 540Q172 545 187 545Q225 545 252 517.50Q279 490 279 452L279 0L217 0L217 456Q217 468 208.50 475.50Q200 483 187 483Q183 483 175 481L97 450L97 0L35 0L35 540Z"  horiz-adv-x="314" vert-adv-y="1000"  />

      
      <glyph glyph-name="uni6f" unicode="&#x6f;" d="M231 93L231 446Q231 459 222 468Q213 477 200 477L128 477Q115 477 106 468Q97 459 97 446L97 93Q97 80 106 71Q115 62 128 62L200 62Q213 62 222 71Q231 80 231 93M293 446L293 93Q293 55 266 27.50Q239 0 200 0L128 0Q89 0 62 27.50Q35 55 35 93L35 446Q35 485 62 512.50Q89 540 128 540L200 540Q238 540 265.50 512.50Q293 485 293 446Z"  horiz-adv-x="328" vert-adv-y="1000"  />

      
      <glyph glyph-name="uni70" unicode="&#x70;" d="M97-155L35-155L35 540L87 540L97 517L156 539Q171 545 188 545Q225 545 252 520Q279 495 279 457L279 83Q279 44 253.50 19.50Q228-5 187-5Q171-5 156 1L97 23L97-155M97 89L176 60Q182 58 186 58Q199 58 208 65.50Q217 73 217 85L217 452Q217 482 186 482Q179 482 176 481L97 450L97 89Z"  horiz-adv-x="314" vert-adv-y="1000"  />

      
      <glyph glyph-name="uni71" unicode="&#x71;" d="M279-155L217-155L217 24L158 0Q144-5 124-5Q85-5 60 20Q35 45 35 83L35 446Q35 485 62.50 512.50Q90 540 128 540L279 540L279-155M138 59L217 89L217 477L128 477Q115 477 106 467.50Q97 458 97 446L97 86Q97 57 124 57Q130 57 138 59Z"  horiz-adv-x="314" vert-adv-y="1000"  />

      
      <glyph glyph-name="uni72" unicode="&#x72;" d="M196 545L196 483Q163 482 142 471.50Q121 461 111.50 439Q102 417 99.50 396Q97 375 97 341L97 0L35 0L35 540L87 540L97 517Q134 545 196 545Z"  horiz-adv-x="216" vert-adv-y="1000"  />

      
      <glyph glyph-name="uni73" unicode="&#x73;" d="M35 178L97 178L97 93Q97 80 106 71Q115 62 128 62L179 62Q192 62 201.50 71Q211 80 211 93L211 135Q211 161 190 182L76 295Q35 335 35 392L35 446Q35 485 62.50 512.50Q90 540 128 540L179 540Q218 540 245.50 512.50Q273 485 273 446L273 394L211 394L211 446Q211 459 201.50 468Q192 477 179 477L128 477Q115 477 106 468Q97 459 97 446L97 397Q97 366 121 342L238 227Q273 192 273 140L273 93Q273 55 245.50 27.50Q218 0 179 0L128 0Q90 0 62.50 27.50Q35 55 35 93L35 178Z"  horiz-adv-x="308" vert-adv-y="1000"  />

      
      <glyph glyph-name="uni74" unicode="&#x74;" d="M133 477L133 93Q133 80 142.50 71Q152 62 164 62L198 62L198 0L163 0Q125 0 98 28.50Q71 57 71 94L71 477L15 477L15 540L70 540L70 623L133 623L133 540L198 540L198 477L133 477Z"  horiz-adv-x="213" vert-adv-y="1000"  />

      
      <glyph glyph-name="uni75" unicode="&#x75;" d="M277 0L215 0L215 24L164 2Q146-5 128-5Q88-5 61.50 19Q35 43 35 84L35 540L97 540L97 84Q97 57 128 57Q134 57 141 60L215 90L215 540L277 540L277 0Z"  horiz-adv-x="312" vert-adv-y="1000"  />

      
      <glyph glyph-name="uni76" unicode="&#x76;" d="M10 540L73 540L156 62L167 62L250 540L313 540L215 0L108 0L10 540Z"  horiz-adv-x="323" vert-adv-y="1000"  />

      
      <glyph glyph-name="uni77" unicode="&#x77;" d="M433 540L497 540L402 0L297 0L253 258L209 0L104 0L10 540L73 540L152 62L160 62L221 395L193 540L312 540L285 395L346 62L355 62L433 540Z"  horiz-adv-x="507" vert-adv-y="1000"  />

      
      <glyph glyph-name="uni78" unicode="&#x78;" d="M88 540L162 320L175 320L249 540L316 540L225 289L328 0L262 0L176 258L161 258L76 0L10 0L112 289L21 540L88 540Z"  horiz-adv-x="338" vert-adv-y="1000"  />

      
      <glyph glyph-name="uni79" unicode="&#x79;" d="M217 540L280 540L184-155L121-155L143 0L90 0L10 540L73 540L144 62L153 62L217 540Z"  horiz-adv-x="295" vert-adv-y="1000"  />

      
      <glyph glyph-name="uni7a" unicode="&#x7a;" d="M32 477L32 540L255 540L107 62L243 62L243 0L20 0L168 477L32 477Z"  horiz-adv-x="275" vert-adv-y="1000"  />

      
      <glyph glyph-name="uni7b" unicode="&#x7b;" d="M142 614L142 366Q142 314 104 303Q142 294 142 245L142-68Q142-78 149.50-85.50Q157-93 167-93L183-93L183-154L157-154Q126-154 103.50-131.50Q81-109 81-78L81 248Q81 258 73.50 265.50Q66 273 56 273L30 273L30 334L56 334Q66 334 73.50 341Q81 348 81 359L81 624Q81 655 103.50 677.50Q126 700 157 700L183 700L183 639L167 639Q157 639 149.50 631.50Q142 624 142 614Z"  horiz-adv-x="213" vert-adv-y="1000"  />

      
      <glyph glyph-name="uni7c" unicode="&#x7c;" d="M30 700L86 700L86-154L30-154L30 700Z"  horiz-adv-x="114" vert-adv-y="1000"  />

      
      <glyph glyph-name="uni7d" unicode="&#x7d;" d="M71 366L71 614Q71 624 63.50 631.50Q56 639 46 639L30 639L30 700L56 700Q87 700 109.50 677.50Q132 655 132 624L132 359Q132 348 139 341Q146 334 157 334L183 334L183 273L157 273Q146 273 139 265.50Q132 258 132 248L132-78Q132-109 109.50-131.50Q87-154 56-154L30-154L30-93L46-93Q56-93 63.50-85.50Q71-78 71-68L71 245Q71 294 109 303Q71 314 71 366Z"  horiz-adv-x="213" vert-adv-y="1000"  />

      
      <glyph glyph-name="uni7e" unicode="&#x7e;" d="M70 249L30 280Q78 344 146 344Q185 344 232 317Q279 290 303 290Q349 290 391 341L431 309Q407 278 372.50 258.50Q338 239 303 239Q267 239 217.50 266.50Q168 294 146 294Q103 294 70 249Z"  horiz-adv-x="461" vert-adv-y="1000"  />

      
      <glyph glyph-name="unia1" unicode="&#xa1;" d="M91 469L30 469L30 540L91 540L91 469M91-160L30-160L30 406L91 406L91-160Z"  horiz-adv-x="121" vert-adv-y="1000"  />

      
      <glyph glyph-name="unia2" unicode="&#xa2;" d="M168 0L117 0L117 109Q81 110 55.50 137Q30 164 30 200L30 499Q30 535 56 561.50Q82 588 117 590L117 700L168 700L168 590Q204 589 230 562Q256 535 256 499L256 441L195 441L195 499Q195 512 185.50 521Q176 530 165 530L121 530Q109 530 100 520.50Q91 511 91 499L91 200Q91 187 100 178.50Q109 170 121 170L165 170Q178 170 186.50 179Q195 188 195 200L195 261L256 261L256 200Q256 163 229.50 136.50Q203 110 168 109L168 0Z"  horiz-adv-x="286" vert-adv-y="1000"  />

      
      <glyph glyph-name="unia3" unicode="&#xa3;" d="M30 61L88 61L88 322L30 322L30 378L88 378L88 609Q88 647 114.50 673.50Q141 700 179 700L191 700Q228 700 255 673Q282 646 282 609L282 540L222 540L222 609Q222 622 213 631Q204 640 191 640L179 640Q166 640 157.50 631Q149 622 149 609L149 378L238 378L238 322L149 322L149 61L282 61L282 0L30 0L30 61Z"  horiz-adv-x="312" vert-adv-y="1000"  />

      
      <glyph glyph-name="unia4" unicode="&#xa4;" d="M319 540L355 504L311 460Q337 425 337 378Q337 334 311 295L355 251L319 215L274 260Q238 235 193 235Q147 235 111 260L66 215L30 251L75 296Q50 332 50 378Q50 423 75 459L30 504L66 540L110 496Q149 522 193 522Q240 522 275 496L319 540M128 443.50Q128 443.50 114.50 429.75Q101 416 101 378Q101 340 128.50 313Q156 286 193 286Q231 286 258.50 313Q286 340 286 378Q286 416 258.50 443.50Q231 471 193 471Q155 471 128 443.50Z"  horiz-adv-x="385" vert-adv-y="1000"  />

      
      <glyph glyph-name="unia5" unicode="&#xa5;" d="M40 364L40 419L113 419L30 700L98 700L175 421L255 700L323 700L238 419L313 419L313 364L221 364L208 320L208 299L313 299L313 244L208 244L208 61L265 61L265 0L85 0L85 61L142 61L142 244L40 244L40 299L142 299L142 319L129 364L40 364Z"  horiz-adv-x="353" vert-adv-y="1000"  />

      
      <glyph glyph-name="unia6" unicode="&#xa6;" d="M30 700L81 700L81 363L30 363L30 700M30 222L81 222L81-154L30-154L30 222Z"  horiz-adv-x="111" vert-adv-y="1000"  />

      
      <glyph glyph-name="unia7" unicode="&#xa7;" d="M30 140L86 140L86 83Q86 72 96.50 64Q107 56 120 56L145 56Q178 56 178 89Q178 109 177 119Q176 129 171 142.50Q166 156 156 168L62 278Q30 316 30 367Q30 429 93 473L71 499Q47 527 41 549Q35 571 35 612Q35 651 60.50 675.50Q86 700 125 700L145 700Q182 700 208 676Q234 652 234 617L234 561L178 561L178 612Q178 626 168.50 635Q159 644 145 644L125 644Q91 644 91 610Q91 591 92 582Q93 573 97.50 560.50Q102 548 113 536L208 425Q239 388 239 337Q239 274 177 231L199 204Q222 177 228 154Q234 131 234 89Q234 50 208.50 25Q183 0 145 0L120 0Q84 0 57 24Q30 48 30 83L30 140M105 315L140 273Q183 300 183 337Q183 368 165 389L130 431Q86 402 86 367Q86 337 105 315Z"  horiz-adv-x="269" vert-adv-y="1000"  />

      
      <glyph glyph-name="unia8" unicode="&#xa8;" d="M147 700L207 700L207 629L147 629L147 700M30 700L91 700L91 629L30 629L30 700Z"  horiz-adv-x="237" vert-adv-y="1000"  />

      
      <glyph glyph-name="unia9" unicode="&#xa9;" d="M465 523L465 177Q465 100 410 44.50Q355-11 278-11L218-11Q140-11 85 44Q30 99 30 177L30 523Q30 601 85 656Q140 711 218 711L278 711Q355 711 410 655.50Q465 600 465 523M415 177L415 523Q415 579 374.50 619.50Q334 660 278 660L218 660Q161 660 121 620Q81 580 81 523L81 177Q81 120 121 80Q161 40 218 40L278 40Q334 40 374.50 81Q415 122 415 177M363 465L302 465L302 515Q302 528 293 537Q284 546 272 546L224 546Q211 546 202 537Q193 528 193 515L193 190Q193 177 202 168Q211 159 224 159L272 159Q284 159 293 168Q302 177 302 190L302 274L363 274L363 190Q363 152 336.50 125Q310 98 272 98L224 98Q186 98 159.50 125Q133 152 133 190L133 515Q133 552 159.50 579Q186 606 224 606L272 606Q309 606 336 579Q363 552 363 515L363 465Z"  horiz-adv-x="495" vert-adv-y="1000"  />

      
      <glyph glyph-name="uniab" unicode="&#xab;" d="M122 472L167 472L100 270L167 67L122 67L30 270L122 472M220 472L265 472L219 270L265 67L220 67L153 270L220 472Z"  horiz-adv-x="295" vert-adv-y="1000"  />

      
      <glyph glyph-name="uniac" unicode="&#xac;" d="M375 270L375 417L30 417L30 480L438 480L438 270L375 270Z"  horiz-adv-x="468" vert-adv-y="1000"  />

      
      <glyph glyph-name="uniad" unicode="&#xad;" d="M30 249L30 300L217 300L217 249L30 249Z"  horiz-adv-x="247" vert-adv-y="1000"  />

      
      <glyph glyph-name="uniae" unicode="&#xae;" d="M466 523L466 177Q466 99 411.50 44Q357-11 279-11L217-11Q140-11 85 44.50Q30 100 30 177L30 523Q30 600 85 655.50Q140 711 217 711L279 711Q356 711 411 655.50Q466 600 466 523M416 177L416 523Q416 579 375.50 619.50Q335 660 279 660L217 660Q161 660 121 619.50Q81 579 81 523L81 177Q81 121 121 80.50Q161 40 217 40L279 40Q335 40 375.50 81Q416 122 416 177M209 98L148 98L148 606L268 606Q306 606 332.50 579Q359 552 359 515L359 448Q359 426 346 404.50Q333 383 312 371Q330 363 344.50 340Q359 317 359 295L359 98L299 98L299 295Q299 314 285.50 327.50Q272 341 253 341L209 341L209 98M209 402L253 402Q272 402 285.50 415.50Q299 429 299 448L299 515Q299 527 290 536.50Q281 546 268 546L209 546L209 402Z"  horiz-adv-x="496" vert-adv-y="1000"  />

      
      <glyph glyph-name="uniaf" unicode="&#xaf;" d="M45 700L236 700L236 649L45 649L45 700Z"  horiz-adv-x="281" vert-adv-y="1000"  />

      
      <glyph glyph-name="unib0" unicode="&#xb0;" d="M143 711Q189 711 221.50 677.50Q254 644 254 599Q254 552 221.50 519.50Q189 487 143 487Q96 487 63 519.50Q30 552 30 599Q30 645 63 678Q96 711 143 711M143 666Q115 666 95 646.50Q75 627 75 599Q75 570 94.50 551Q114 532 143 532Q171 532 190.50 551.50Q210 571 210 599Q210 626 190 646Q170 666 143 666Z"  horiz-adv-x="284" vert-adv-y="1000"  />

      
      <glyph glyph-name="unib1" unicode="&#xb1;" d="M169 540L220 540L220 401L359 401L359 350L220 350L220 211L169 211L169 350L30 350L30 401L169 401L169 540M30 131L359 131L359 80L30 80L30 131Z"  horiz-adv-x="389" vert-adv-y="1000"  />

      
      <glyph glyph-name="unib2" unicode="&#xb2;" d="M69 615L30 615L30 658Q30 676 43 688Q56 700 74 700L97 700Q116 700 128.50 688Q141 676 141 658L141 621Q141 596 134 582Q127 567 109 542Q91 517 80 495.50Q69 474 69 451L69 443L141 443L141 404L30 404L30 451Q30 477 41 501Q52 525 71.50 554Q91 583 98 597Q102 606 102 622L102 657Q102 663 97 663L74 663Q69 663 69 657L69 615Z"  horiz-adv-x="171" vert-adv-y="1000"  />

      
      <glyph glyph-name="unib3" unicode="&#xb3;" d="M30 661L30 700L138 700L138 664L92 589Q97 592 105 592Q120 592 129 582.50Q138 573 138 559L138 448Q138 429 125 416.50Q112 404 94 404L75 404Q56 404 43 416.50Q30 429 30 448L30 494L69 494L69 448Q69 443 75 443L94 443Q99 443 99 448L99 547Q99 558 87 558Q76 558 67 541L33 557L94 661L30 661Z"  horiz-adv-x="168" vert-adv-y="1000"  />

      
      <glyph glyph-name="unib4" unicode="&#xb4;" d="M134 700L164 662L75 596L45 634L134 700Z"  horiz-adv-x="209" vert-adv-y="1000"  />

      
      <glyph glyph-name="unib5" unicode="&#xb5;" d="M282 0L220 0L220 24L169 2Q151-5 133-5Q117-5 102 0L102-101L40-101L40 540L102 540L102 84Q102 57 133 57Q138 57 146 60L220 90L220 540L282 540L282 0Z"  horiz-adv-x="322" vert-adv-y="1000"  />

      
      <glyph glyph-name="unib6" unicode="&#xb6;" d="M239 0L185 0L185 646L157 646L157 369L120 369Q81 369 55.50 397Q30 425 30 465L30 604Q30 644 58.50 672Q87 700 127 700L239 700L239 0Z"  horiz-adv-x="269" vert-adv-y="1000"  />

      
      <glyph glyph-name="unib7" unicode="&#xb7;" d="M30 410L90 410L90 339L30 339L30 410Z"  horiz-adv-x="120" vert-adv-y="1000"  />

      
      <glyph glyph-name="unib8" unicode="&#xb8;" d="M74 20L74-33L78-33Q101-33 118.50-49.50Q136-66 136-90L136-96Q136-119 119-137Q102-155 78-155L30-155L30-110L78-110Q82-110 86-106Q90-102 90-97L90-89Q90-77 78-77L37-77L37 20L74 20Z"  horiz-adv-x="166" vert-adv-y="1000"  />

      
      <glyph glyph-name="unibb" unicode="&#xbb;" d="M128 472L173 472L265 270L173 67L128 67L195 270L128 472M30 472L75 472L142 270L75 67L30 67L76 270L30 472Z"  horiz-adv-x="295" vert-adv-y="1000"  />

      
      <glyph glyph-name="unibc" unicode="&#xbc;" d="M32 342L70 342L70 654L30 654L30 700L118 700L118 342L155 342L155 296L32 296L32 342M397 0L353 0L353 81L264 81L264 122L337 405L397 405L397 124L430 124L430 81L397 81L397 0M359 332L308 124L353 124L353 222L359 332M328 700L381 700L150 0L97 0L328 700Z"  horiz-adv-x="460" vert-adv-y="1000"  />

      
      <glyph glyph-name="unibd" unicode="&#xbd;" d="M353 296L308 296L308 349Q308 372 324.50 388Q341 404 363 404L399 404Q422 404 437.50 388Q453 372 453 349L453 294Q453 268 445 248L367 111Q356 89 356 66L356 46L453 46L453 0L308 0L308 59Q308 103 326 135L402 265Q409 280 409 304L409 344Q409 350 404 354.50Q399 359 394 359L368 359Q362 359 357.50 354Q353 349 353 344L353 296M32 342L70 342L70 654L30 654L30 700L118 700L118 342L155 342L155 296L32 296L32 342M328 700L381 700L150 0L97 0L328 700Z"  horiz-adv-x="483" vert-adv-y="1000"  />

      
      <glyph glyph-name="unibe" unicode="&#xbe;" d="M31 653L31 700L165 700L165 657L101 550Q108 555 120 555Q140 555 152.50 542.50Q165 530 165 507L165 351Q165 328 148.50 312Q132 296 109 296L85 296Q63 296 47 312Q31 328 31 351L31 415L78 415L78 356Q78 350 82 345.50Q86 341 91 341L103 341Q109 341 113.50 345.50Q118 350 118 356L118 493Q118 499 113.50 503.50Q109 508 102 508Q84 508 75 488L30 512L112 653L31 653M398 0L354 0L354 81L265 81L265 122L338 405L398 405L398 124L431 124L431 81L398 81L398 0M360 332L309 124L354 124L354 222L360 332M329 700L382 700L151 0L98 0L329 700Z"  horiz-adv-x="461" vert-adv-y="1000"  />

      
      <glyph glyph-name="unibf" unicode="&#xbf;" d="M171 469L110 469L110 540L171 540L171 469M181 11L242 11L242-69Q242-106 215-133Q188-160 151-160L131-160Q93-160 66.50-133.50Q40-107 40-69L40 11Q40 62 75 168Q110 274 110 326L110 406L171 406L171 326Q171 270 136 163.50Q101 57 101 11L101-69Q101-82 109.50-90.50Q118-99 131-99L151-99Q164-99 172.50-90.50Q181-82 181-69L181 11Z"  horiz-adv-x="282" vert-adv-y="1000"  />

      
      <glyph glyph-name="unic0" unicode="&#xc0;" d="M87 0L20 0L115 700L234 700L329 0L263 0L233 206L116 206L87 0M177 635L172 635L123 267L226 267L177 635M115 816L145 854L234 788L204 750L115 816Z"  horiz-adv-x="349" vert-adv-y="1000"  />

      
      <glyph glyph-name="unic1" unicode="&#xc1;" d="M87 0L20 0L115 700L234 700L329 0L263 0L233 206L116 206L87 0M177 635L172 635L123 267L226 267L177 635M204 854L234 816L145 750L115 788L204 854Z"  horiz-adv-x="349" vert-adv-y="1000"  />

      
      <glyph glyph-name="unic2" unicode="&#xc2;" d="M87 0L20 0L115 700L234 700L329 0L263 0L233 206L116 206L87 0M177 635L172 635L123 267L226 267L177 635M108 750L78 788L168 844L181 844L270 788L240 750L174 792L108 750Z"  horiz-adv-x="349" vert-adv-y="1000"  />

      
      <glyph glyph-name="unic3" unicode="&#xc3;" d="M87 0L20 0L115 700L234 700L329 0L263 0L233 206L116 206L87 0M177 635L172 635L123 267L226 267L177 635M111 750L69 750Q69 781 87 801.50Q105 822 135 822Q156 822 178 808.50Q200 795 213 795Q238 795 238 822L280 822Q280 791 262 770.50Q244 750 215 750Q194 750 172 764Q150 778 139 778Q111 778 111 750Z"  horiz-adv-x="349" vert-adv-y="1000"  />

      
      <glyph glyph-name="unic4" unicode="&#xc4;" d="M87 0L20 0L115 700L234 700L329 0L263 0L233 206L116 206L87 0M177 635L172 635L123 267L226 267L177 635M203 821L263 821L263 750L203 750L203 821M86 821L147 821L147 750L86 750L86 821Z"  horiz-adv-x="349" vert-adv-y="1000"  />

      
      <glyph glyph-name="unic5" unicode="&#xc5;" d="M87 0L20 0L115 700L234 700L329 0L263 0L233 206L116 206L87 0M177 635L172 635L123 267L226 267L177 635M123.50 758.50Q123.50 758.50 113.25 768.75Q103 779 103 809Q103 839 123.50 859.50Q144 880 174 880Q204 880 224.50 859.50Q245 839 245 809Q245 779 224.50 758.50Q204 738 174 738Q144 738 123.50 758.50M149.50 833.50Q149.50 833.50 144.25 828.25Q139 823 139 809Q139 795 149.50 784.50Q160 774 174 774Q188 774 198.50 784.50Q209 795 209 809Q209 823 198.50 833.50Q188 844 174 844Q160 844 149.50 833.50Z"  horiz-adv-x="349" vert-adv-y="1000"  />

      
      <glyph glyph-name="unic6" unicode="&#xc6;" d="M449 634L325 634L325 408L434 408L434 347L325 347L325 66L449 66L449 0L258 0L258 201L131 201L87 0L20 0L170 700L449 700L449 634M222 635L143 262L258 262L258 635L222 635Z"  horiz-adv-x="479" vert-adv-y="1000"  />

      
      <glyph glyph-name="unic7" unicode="&#xc7;" d="M205 528L205 606Q205 617 197 625.50Q189 634 177 634L134 634Q123 634 114.50 625.50Q106 617 106 606L106 94Q106 82 114.50 74Q123 66 134 66L177 66Q188 66 196.50 74Q205 82 205 94L205 201L271 201L271 94Q271 55 243.50 27.50Q216 0 177 0L168 0L168-33L172-33Q195-33 212.50-49.50Q230-66 230-90L230-96Q230-119 213-137Q196-155 172-155L124-155L124-110L172-110Q176-110 180-106Q184-102 184-97L184-89Q184-77 172-77L131-77L131 0Q93 1 66.50 28.50Q40 56 40 94L40 606Q40 645 68 672.50Q96 700 134 700L177 700Q216 700 243.50 672.50Q271 645 271 606L271 528L205 528Z"  horiz-adv-x="311" vert-adv-y="1000"  />

      
      <glyph glyph-name="unic8" unicode="&#xc8;" d="M231 634L106 634L106 408L215 408L215 347L106 347L106 66L230 66L230 0L40 0L40 700L231 700L231 634M69 816L99 854L188 788L158 750L69 816Z"  horiz-adv-x="261" vert-adv-y="1000"  />

      
      <glyph glyph-name="unic9" unicode="&#xc9;" d="M231 634L106 634L106 408L215 408L215 347L106 347L106 66L230 66L230 0L40 0L40 700L231 700L231 634M158 854L188 816L99 750L69 788L158 854Z"  horiz-adv-x="261" vert-adv-y="1000"  />

      
      <glyph glyph-name="unica" unicode="&#xca;" d="M233 634L108 634L108 408L217 408L217 347L108 347L108 66L232 66L232 0L42 0L42 700L233 700L233 634M70 750L40 788L130 844L143 844L232 788L202 750L136 792L70 750Z"  horiz-adv-x="263" vert-adv-y="1000"  />

      
      <glyph glyph-name="unicb" unicode="&#xcb;" d="M231 634L106 634L106 408L215 408L215 347L106 347L106 66L230 66L230 0L40 0L40 700L231 700L231 634M157 821L217 821L217 750L157 750L157 821M40 821L101 821L101 750L40 750L40 821Z"  horiz-adv-x="261" vert-adv-y="1000"  />

      
      <glyph glyph-name="unicc" unicode="&#xcc;" d="M220 634L163 634L163 66L220 66L220 0L40 0L40 66L97 66L97 634L40 634L40 700L220 700L220 634M71 816L101 854L190 788L160 750L71 816Z"  horiz-adv-x="260" vert-adv-y="1000"  />

      
      <glyph glyph-name="unicd" unicode="&#xcd;" d="M220 634L163 634L163 66L220 66L220 0L40 0L40 66L97 66L97 634L40 634L40 700L220 700L220 634M160 854L190 816L101 750L71 788L160 854Z"  horiz-adv-x="260" vert-adv-y="1000"  />

      
      <glyph glyph-name="unice" unicode="&#xce;" d="M226 634L169 634L169 66L226 66L226 0L46 0L46 66L103 66L103 634L46 634L46 700L226 700L226 634M70 750L40 788L130 844L143 844L232 788L202 750L136 792L70 750Z"  horiz-adv-x="272" vert-adv-y="1000"  />

      
      <glyph glyph-name="unicf" unicode="&#xcf;" d="M220 634L163 634L163 66L220 66L220 0L40 0L40 66L97 66L97 634L40 634L40 700L220 700L220 634M159 821L219 821L219 750L159 750L159 821M42 821L103 821L103 750L42 750L42 821Z"  horiz-adv-x="260" vert-adv-y="1000"  />

      
      <glyph glyph-name="unid0" unicode="&#xd0;" d="M-10 352L-10 403L40 403L40 700L196 700Q234 700 261.50 672.50Q289 645 289 606L289 94Q289 55 261.50 27.50Q234 0 196 0L40 0L40 352L-10 352M106 634L106 403L187 403L187 352L106 352L106 66L196 66Q207 66 215 74Q223 82 223 94L223 606Q223 617 215 625.50Q207 634 196 634L106 634Z"  horiz-adv-x="329" vert-adv-y="1000"  />

      
      <glyph glyph-name="unid1" unicode="&#xd1;" d="M118 750L76 750Q76 781 94 801.50Q112 822 142 822Q163 822 185 808.50Q207 795 220 795Q245 795 245 822L287 822Q287 791 269 770.50Q251 750 222 750Q201 750 179 764Q157 778 146 778Q118 778 118 750M268 131L275 133L256 382L256 700L322 700L322 0L233 0L94 579L87 577L106 318L106 0L40 0L40 700L130 700L268 131Z"  horiz-adv-x="362" vert-adv-y="1000"  />

      
      <glyph glyph-name="unid2" unicode="&#xd2;" d="M228 606Q228 617 219.50 625.50Q211 634 200 634L134 634Q123 634 114.50 625.50Q106 617 106 606L106 94Q106 82 114.50 74Q123 66 134 66L200 66Q211 66 219.50 74Q228 82 228 94L228 606M294 606L294 94Q294 55 266.50 27.50Q239 0 200 0L134 0Q96 0 68 27.50Q40 55 40 94L40 606Q40 645 68 672.50Q96 700 134 700L200 700Q239 700 266.50 672.50Q294 645 294 606M108 816L138 854L227 788L197 750L108 816Z"  horiz-adv-x="334" vert-adv-y="1000"  />

      
      <glyph glyph-name="unid3" unicode="&#xd3;" d="M228 606Q228 617 219.50 625.50Q211 634 200 634L134 634Q123 634 114.50 625.50Q106 617 106 606L106 94Q106 82 114.50 74Q123 66 134 66L200 66Q211 66 219.50 74Q228 82 228 94L228 606M294 606L294 94Q294 55 266.50 27.50Q239 0 200 0L134 0Q96 0 68 27.50Q40 55 40 94L40 606Q40 645 68 672.50Q96 700 134 700L200 700Q239 700 266.50 672.50Q294 645 294 606M197 854L227 816L138 750L108 788L197 854Z"  horiz-adv-x="334" vert-adv-y="1000"  />

      
      <glyph glyph-name="unid4" unicode="&#xd4;" d="M228 606Q228 617 219.50 625.50Q211 634 200 634L134 634Q123 634 114.50 625.50Q106 617 106 606L106 94Q106 82 114.50 74Q123 66 134 66L200 66Q211 66 219.50 74Q228 82 228 94L228 606M294 606L294 94Q294 55 266.50 27.50Q239 0 200 0L134 0Q96 0 68 27.50Q40 55 40 94L40 606Q40 645 68 672.50Q96 700 134 700L200 700Q239 700 266.50 672.50Q294 645 294 606M101 750L71 788L161 844L174 844L263 788L233 750L167 792L101 750Z"  horiz-adv-x="334" vert-adv-y="1000"  />

      
      <glyph glyph-name="unid5" unicode="&#xd5;" d="M228 606Q228 617 219.50 625.50Q211 634 200 634L134 634Q123 634 114.50 625.50Q106 617 106 606L106 94Q106 82 114.50 74Q123 66 134 66L200 66Q211 66 219.50 74Q228 82 228 94L228 606M294 606L294 94Q294 55 266.50 27.50Q239 0 200 0L134 0Q96 0 68 27.50Q40 55 40 94L40 606Q40 645 68 672.50Q96 700 134 700L200 700Q239 700 266.50 672.50Q294 645 294 606M104 750L62 750Q62 781 80 801.50Q98 822 128 822Q149 822 171 808.50Q193 795 206 795Q231 795 231 822L273 822Q273 791 255 770.50Q237 750 208 750Q187 750 165 764Q143 778 132 778Q104 778 104 750Z"  horiz-adv-x="334" vert-adv-y="1000"  />

      
      <glyph glyph-name="unid6" unicode="&#xd6;" d="M228 606Q228 617 219.50 625.50Q211 634 200 634L134 634Q123 634 114.50 625.50Q106 617 106 606L106 94Q106 82 114.50 74Q123 66 134 66L200 66Q211 66 219.50 74Q228 82 228 94L228 606M294 606L294 94Q294 55 266.50 27.50Q239 0 200 0L134 0Q96 0 68 27.50Q40 55 40 94L40 606Q40 645 68 672.50Q96 700 134 700L200 700Q239 700 266.50 672.50Q294 645 294 606M196 821L256 821L256 750L196 750L196 821M79 821L140 821L140 750L79 750L79 821Z"  horiz-adv-x="334" vert-adv-y="1000"  />

      
      <glyph glyph-name="unid7" unicode="&#xd7;" d="M263 510L299 474L201 376L299 277L263 241L165 340L66 241L30 277L128 376L30 474L66 510L165 412L263 510Z"  horiz-adv-x="329" vert-adv-y="1000"  />

      
      <glyph glyph-name="unid8" unicode="&#xd8;" d="M343 719L383 700L337 590L337 94Q337 55 309.50 27.50Q282 0 243 0L177 0Q133 0 104 34L81-19L40 0L83 102L83 606Q83 645 111 672.50Q139 700 177 700L243 700Q288 700 317 663L343 719M271 606Q271 617 262.50 625.50Q254 634 243 634L177 634Q166 634 157.50 625.50Q149 617 149 606L149 404L135 226L271 551L271 606M243 66Q254 66 262.50 74Q271 82 271 94L271 303L289 474L149 141L149 94Q149 82 157.50 74Q166 66 177 66L243 66Z"  horiz-adv-x="423" vert-adv-y="1000"  />

      
      <glyph glyph-name="unid9" unicode="&#xd9;" d="M106 700L106 94Q106 82 114 74Q122 66 134 66L201 66Q212 66 220.50 74Q229 82 229 94L229 700L295 700L295 94Q295 55 267 27.50Q239 0 201 0L134 0Q95 0 67.50 27.50Q40 55 40 94L40 700L106 700M108 816L138 854L227 788L197 750L108 816Z"  horiz-adv-x="335" vert-adv-y="1000"  />

      
      <glyph glyph-name="unida" unicode="&#xda;" d="M106 700L106 94Q106 82 114 74Q122 66 134 66L201 66Q212 66 220.50 74Q229 82 229 94L229 700L295 700L295 94Q295 55 267 27.50Q239 0 201 0L134 0Q95 0 67.50 27.50Q40 55 40 94L40 700L106 700M197 854L227 816L138 750L108 788L197 854Z"  horiz-adv-x="335" vert-adv-y="1000"  />

      
      <glyph glyph-name="unidb" unicode="&#xdb;" d="M106 700L106 94Q106 82 114 74Q122 66 134 66L201 66Q212 66 220.50 74Q229 82 229 94L229 700L295 700L295 94Q295 55 267 27.50Q239 0 201 0L134 0Q95 0 67.50 27.50Q40 55 40 94L40 700L106 700M101 750L71 788L161 844L174 844L263 788L233 750L167 792L101 750Z"  horiz-adv-x="335" vert-adv-y="1000"  />

      
      <glyph glyph-name="unidc" unicode="&#xdc;" d="M106 700L106 94Q106 82 114 74Q122 66 134 66L201 66Q212 66 220.50 74Q229 82 229 94L229 700L295 700L295 94Q295 55 267 27.50Q239 0 201 0L134 0Q95 0 67.50 27.50Q40 55 40 94L40 700L106 700M196 821L256 821L256 750L196 750L196 821M79 821L140 821L140 750L79 750L79 821Z"  horiz-adv-x="335" vert-adv-y="1000"  />

      
      <glyph glyph-name="unidd" unicode="&#xdd;" d="M75 66L132 66L132 319L20 700L88 700L165 421L245 700L313 700L198 320L198 66L255 66L255 0L75 0L75 66M196 854L226 816L137 750L107 788L196 854Z"  horiz-adv-x="333" vert-adv-y="1000"  />

      
      <glyph glyph-name="unide" unicode="&#xde;" d="M40 0L40 700L106 700L106 540L186 540Q224 540 252 512.50Q280 485 280 446L280 232Q280 193 255.50 166Q231 139 192 139L106 139L106 0L40 0M106 474L106 201L182 201Q196 201 205 212Q214 223 214 237L214 446Q214 457 205.50 465.50Q197 474 186 474L106 474Z"  horiz-adv-x="315" vert-adv-y="1000"  />

      
      <glyph glyph-name="unidf" unicode="&#xdf;" d="M142 179L204 179L204 94Q204 81 213 71.50Q222 62 235 62L261 62Q274 62 283 71.50Q292 81 292 94L292 146Q292 167 268 197L194 285Q173 310 173 345Q173 375 189 398L243 478L128 478Q115 478 106 469Q97 460 97 447L97 0L35 0L35 447Q35 485 62.50 512.50Q90 540 128 540L317 540L317 478L241 363Q235 354 235 345Q235 334 242 324L315 236Q329 220 335 211Q341 202 347.50 184.50Q354 167 354 146L354 94Q354 55 326.50 27.50Q299 0 261 0L235 0Q197 0 169.50 27.50Q142 55 142 94L142 179Z"  horiz-adv-x="379" vert-adv-y="1000"  />

      
      <glyph glyph-name="unie0" unicode="&#xe0;" d="M229 89L229 258L128 258Q116 258 106.50 248Q97 238 97 227L97 87Q97 74 106.50 65.50Q116 57 128 57Q135 57 139 58L229 89M128 320L229 320L229 446Q229 459 219.50 468Q210 477 198 477L138 477Q125 477 116 468Q107 461 107 446L107 394L45 394L45 447Q45 486 72.50 513Q100 540 139 540L199 540Q237 540 264.50 512Q292 484 292 447L292 0L240 0L230 24L159 1Q137-5 123-5Q84-5 59.50 18.50Q35 42 35 79L35 227Q35 265 63 292.50Q91 320 128 320M104 662L134 700L223 634L193 596L104 662Z"  horiz-adv-x="327" vert-adv-y="1000"  />

      
      <glyph glyph-name="unie1" unicode="&#xe1;" d="M229 89L229 258L128 258Q116 258 106.50 248Q97 238 97 227L97 87Q97 74 106.50 65.50Q116 57 128 57Q135 57 139 58L229 89M128 320L229 320L229 446Q229 459 219.50 468Q210 477 198 477L138 477Q125 477 116 468Q107 461 107 446L107 394L45 394L45 447Q45 486 72.50 513Q100 540 139 540L199 540Q237 540 264.50 512Q292 484 292 447L292 0L240 0L230 24L159 1Q137-5 123-5Q84-5 59.50 18.50Q35 42 35 79L35 227Q35 265 63 292.50Q91 320 128 320M193 700L223 662L134 596L104 634L193 700Z"  horiz-adv-x="327" vert-adv-y="1000"  />

      
      <glyph glyph-name="unie2" unicode="&#xe2;" d="M229 89L229 258L128 258Q116 258 106.50 248Q97 238 97 227L97 87Q97 74 106.50 65.50Q116 57 128 57Q135 57 139 58L229 89M128 320L229 320L229 446Q229 459 219.50 468Q210 477 198 477L138 477Q125 477 116 468Q107 461 107 446L107 394L45 394L45 447Q45 486 72.50 513Q100 540 139 540L199 540Q237 540 264.50 512Q292 484 292 447L292 0L240 0L230 24L159 1Q137-5 123-5Q84-5 59.50 18.50Q35 42 35 79L35 227Q35 265 63 292.50Q91 320 128 320M97 606L67 644L157 700L170 700L259 644L229 606L163 648L97 606Z"  horiz-adv-x="327" vert-adv-y="1000"  />

      
      <glyph glyph-name="unie3" unicode="&#xe3;" d="M229 89L229 258L128 258Q116 258 106.50 248Q97 238 97 227L97 87Q97 74 106.50 65.50Q116 57 128 57Q135 57 139 58L229 89M128 320L229 320L229 446Q229 459 219.50 468Q210 477 198 477L138 477Q125 477 116 468Q107 461 107 446L107 394L45 394L45 447Q45 486 72.50 513Q100 540 139 540L199 540Q237 540 264.50 512Q292 484 292 447L292 0L240 0L230 24L159 1Q137-5 123-5Q84-5 59.50 18.50Q35 42 35 79L35 227Q35 265 63 292.50Q91 320 128 320M100 628L58 628Q58 659 76 679.50Q94 700 124 700Q145 700 167 686.50Q189 673 202 673Q227 673 227 700L269 700Q269 669 251 648.50Q233 628 204 628Q183 628 161 642Q139 656 128 656Q100 656 100 628Z"  horiz-adv-x="327" vert-adv-y="1000"  />

      
      <glyph glyph-name="unie4" unicode="&#xe4;" d="M229 89L229 258L128 258Q116 258 106.50 248Q97 238 97 227L97 87Q97 74 106.50 65.50Q116 57 128 57Q135 57 139 58L229 89M128 320L229 320L229 446Q229 459 219.50 468Q210 477 198 477L138 477Q125 477 116 468Q107 461 107 446L107 394L45 394L45 447Q45 486 72.50 513Q100 540 139 540L199 540Q237 540 264.50 512Q292 484 292 447L292 0L240 0L230 24L159 1Q137-5 123-5Q84-5 59.50 18.50Q35 42 35 79L35 227Q35 265 63 292.50Q91 320 128 320M192 700L252 700L252 629L192 629L192 700M75 700L136 700L136 629L75 629L75 700Z"  horiz-adv-x="327" vert-adv-y="1000"  />

      
      <glyph glyph-name="unie5" unicode="&#xe5;" d="M229 89L229 258L128 258Q116 258 106.50 248Q97 238 97 227L97 87Q97 74 106.50 65.50Q116 57 128 57Q135 57 139 58L229 89M128 320L229 320L229 446Q229 459 219.50 468Q210 477 198 477L138 477Q125 477 116 468Q107 461 107 446L107 394L45 394L45 447Q45 486 72.50 513Q100 540 139 540L199 540Q237 540 264.50 512Q292 484 292 447L292 0L240 0L230 24L159 1Q137-5 123-5Q84-5 59.50 18.50Q35 42 35 79L35 227Q35 265 63 292.50Q91 320 128 320M112.50 598.50Q112.50 598.50 102.25 608.75Q92 619 92 649Q92 679 112.50 699.50Q133 720 163 720Q193 720 213.50 699.50Q234 679 234 649Q234 619 213.50 598.50Q193 578 163 578Q133 578 112.50 598.50M138.50 673.50Q138.50 673.50 133.25 668.25Q128 663 128 649Q128 635 138.50 624.50Q149 614 163 614Q177 614 187.50 624.50Q198 635 198 649Q198 663 187.50 673.50Q177 684 163 684Q149 684 138.50 673.50Z"  horiz-adv-x="327" vert-adv-y="1000"  />

      
      <glyph glyph-name="unie6" unicode="&#xe6;" d="M128 320L229 320L229 446Q229 459 219.50 468Q210 477 198 477L138 477Q125 477 116 468Q107 461 107 446L107 394L45 394L45 447Q45 486 72.50 513Q100 540 139 540L199 540Q234 540 261 516Q287 540 323 540L384 540Q423 540 450 512.50Q477 485 477 447L477 258L292 258L292 93Q292 80 301.50 71Q311 62 323 62L384 62Q397 62 406 71.50Q415 81 415 93L415 178L477 178L477 94Q477 55 449.50 27.50Q422 0 384 0L323 0Q282 0 253 32L159 1Q137-5 123-5Q84-5 59.50 18.50Q35 42 35 79L35 227Q35 265 63 292.50Q91 320 128 320M229 89L229 258L128 258Q116 258 106.50 248Q97 238 97 227L97 87Q97 74 106.50 65.50Q116 57 128 57Q135 57 139 58L229 89M292 449L292 320L415 320L415 446Q415 459 405.50 468Q396 477 384 477L322 477Q309 477 300.50 468.50Q292 460 292 449Z"  horiz-adv-x="512" vert-adv-y="1000"  />

      
      <glyph glyph-name="unie7" unicode="&#xe7;" d="M270 394L208 394L208 446Q208 459 199 468Q190 477 177 477L128 477Q115 477 106 468Q97 459 97 446L97 93Q97 80 106 71Q115 62 128 62L177 62Q190 62 199 71Q208 80 208 93L208 178L270 178L270 93Q270 55 243 27.50Q216 0 177 0L161 0L161-33L165-33Q188-33 205.50-49.50Q223-66 223-90L223-96Q223-119 206-137Q189-155 165-155L117-155L117-110L165-110Q169-110 173-106Q177-102 177-97L177-89Q177-77 165-77L124-77L124 0Q87 1 61 28Q35 55 35 93L35 446Q35 485 62.50 512.50Q90 540 128 540L177 540Q216 540 243 512.50Q270 485 270 446L270 394Z"  horiz-adv-x="305" vert-adv-y="1000"  />

      
      <glyph glyph-name="unie8" unicode="&#xe8;" d="M97 446L97 320L220 320L220 446Q220 459 210.50 468Q201 477 189 477L128 477Q115 477 106 467.50Q97 458 97 446M282 258L97 258L97 93Q97 80 106.50 71Q116 62 128 62L189 62Q202 62 211 71.50Q220 81 220 93L220 178L282 178L282 94Q282 55 254.50 27.50Q227 0 189 0L128 0Q90 0 62.50 28.50Q35 57 35 94L35 447Q35 486 62.50 513Q90 540 128 540L189 540Q228 540 255 512.50Q282 485 282 447L282 258M99 662L129 700L218 634L188 596L99 662Z"  horiz-adv-x="317" vert-adv-y="1000"  />

      
      <glyph glyph-name="unie9" unicode="&#xe9;" d="M97 446L97 320L220 320L220 446Q220 459 210.50 468Q201 477 189 477L128 477Q115 477 106 467.50Q97 458 97 446M282 258L97 258L97 93Q97 80 106.50 71Q116 62 128 62L189 62Q202 62 211 71.50Q220 81 220 93L220 178L282 178L282 94Q282 55 254.50 27.50Q227 0 189 0L128 0Q90 0 62.50 28.50Q35 57 35 94L35 447Q35 486 62.50 513Q90 540 128 540L189 540Q228 540 255 512.50Q282 485 282 447L282 258M188 700L218 662L129 596L99 634L188 700Z"  horiz-adv-x="317" vert-adv-y="1000"  />

      
      <glyph glyph-name="uniea" unicode="&#xea;" d="M97 446L97 320L220 320L220 446Q220 459 210.50 468Q201 477 189 477L128 477Q115 477 106 467.50Q97 458 97 446M282 258L97 258L97 93Q97 80 106.50 71Q116 62 128 62L189 62Q202 62 211 71.50Q220 81 220 93L220 178L282 178L282 94Q282 55 254.50 27.50Q227 0 189 0L128 0Q90 0 62.50 28.50Q35 57 35 94L35 447Q35 486 62.50 513Q90 540 128 540L189 540Q228 540 255 512.50Q282 485 282 447L282 258M92 606L62 644L152 700L165 700L254 644L224 606L158 648L92 606Z"  horiz-adv-x="317" vert-adv-y="1000"  />

      
      <glyph glyph-name="unieb" unicode="&#xeb;" d="M97 446L97 320L220 320L220 446Q220 459 210.50 468Q201 477 189 477L128 477Q115 477 106 467.50Q97 458 97 446M282 258L97 258L97 93Q97 80 106.50 71Q116 62 128 62L189 62Q202 62 211 71.50Q220 81 220 93L220 178L282 178L282 94Q282 55 254.50 27.50Q227 0 189 0L128 0Q90 0 62.50 28.50Q35 57 35 94L35 447Q35 486 62.50 513Q90 540 128 540L189 540Q228 540 255 512.50Q282 485 282 447L282 258M187 700L247 700L247 629L187 629L187 700M70 700L131 700L131 629L70 629L70 700Z"  horiz-adv-x="317" vert-adv-y="1000"  />

      
      <glyph glyph-name="uniec" unicode="&#xec;" d="M102 0L40 0L40 540L102 540L102 0M12 662L42 700L131 634L101 596L12 662Z"  horiz-adv-x="142" vert-adv-y="1000"  />

      
      <glyph glyph-name="unied" unicode="&#xed;" d="M40 0L102 0L102 540L40 540L40 0M101 700L131 662L42 596L12 634L101 700Z"  horiz-adv-x="142" vert-adv-y="1000"  />

      
      <glyph glyph-name="uniee" unicode="&#xee;" d="M102 0L40 0L40 540L102 540L102 0M5 606L-25 644L65 700L78 700L167 644L137 606L71 648L5 606Z"  horiz-adv-x="142" vert-adv-y="1000"  />

      
      <glyph glyph-name="unief" unicode="&#xef;" d="M102 0L40 0L40 540L102 540L102 0M100 700L160 700L160 629L100 629L100 700M-17 700L44 700L44 629L-17 629L-17 700Z"  horiz-adv-x="142" vert-adv-y="1000"  />

      
      <glyph glyph-name="unif0" unicode="&#xf0;" d="M229 94L229 429L138 461Q132 463 128 463Q116 463 106.50 453.50Q97 444 97 431L97 94Q97 81 106 71.50Q115 62 128 62L198 62Q211 62 220 71.50Q229 81 229 94M158 520L229 495L229 523Q229 569 189 588L52 657L80 713L217 644Q291 605 291 523L291 94Q291 55 263.50 27.50Q236 0 198 0L128 0Q90 0 62.50 27.50Q35 55 35 94L35 431Q35 471 62.50 498Q90 525 128 525Q146 525 158 520Z"  horiz-adv-x="326" vert-adv-y="1000"  />

      
      <glyph glyph-name="unif1" unicode="&#xf1;" d="M35 540L87 540L97 517L155 540Q172 545 187 545Q225 545 252 517.50Q279 490 279 452L279 0L217 0L217 456Q217 468 208.50 475.50Q200 483 187 483Q183 483 175 481L97 450L97 0L35 0L35 540M94 628L52 628Q52 659 70 679.50Q88 700 118 700Q139 700 161 686.50Q183 673 196 673Q221 673 221 700L263 700Q263 669 245 648.50Q227 628 198 628Q177 628 155 642Q133 656 122 656Q94 656 94 628Z"  horiz-adv-x="314" vert-adv-y="1000"  />

      
      <glyph glyph-name="unif2" unicode="&#xf2;" d="M231 93L231 446Q231 459 222 468Q213 477 200 477L128 477Q115 477 106 468Q97 459 97 446L97 93Q97 80 106 71Q115 62 128 62L200 62Q213 62 222 71Q231 80 231 93M293 446L293 93Q293 55 266 27.50Q239 0 200 0L128 0Q89 0 62 27.50Q35 55 35 93L35 446Q35 485 62 512.50Q89 540 128 540L200 540Q238 540 265.50 512.50Q293 485 293 446M105 662L135 700L224 634L194 596L105 662Z"  horiz-adv-x="328" vert-adv-y="1000"  />

      
      <glyph glyph-name="unif3" unicode="&#xf3;" d="M231 446L231 93Q231 80 222 71Q213 62 200 62L128 62Q115 62 106 71Q97 80 97 93L97 446Q97 459 106 468Q115 477 128 477L200 477Q213 477 222 468Q231 459 231 446M293 446Q293 485 265.50 512.50Q238 540 200 540L128 540Q89 540 62 512.50Q35 485 35 446L35 93Q35 55 62 27.50Q89 0 128 0L200 0Q239 0 266 27.50Q293 55 293 93L293 446M194 700L224 662L135 596L105 634L194 700Z"  horiz-adv-x="328" vert-adv-y="1000"  />

      
      <glyph glyph-name="unif4" unicode="&#xf4;" d="M231 93L231 446Q231 459 222 468Q213 477 200 477L128 477Q115 477 106 468Q97 459 97 446L97 93Q97 80 106 71Q115 62 128 62L200 62Q213 62 222 71Q231 80 231 93M293 446L293 93Q293 55 266 27.50Q239 0 200 0L128 0Q89 0 62 27.50Q35 55 35 93L35 446Q35 485 62 512.50Q89 540 128 540L200 540Q238 540 265.50 512.50Q293 485 293 446M98 606L68 644L158 700L171 700L260 644L230 606L164 648L98 606Z"  horiz-adv-x="328" vert-adv-y="1000"  />

      
      <glyph glyph-name="unif5" unicode="&#xf5;" d="M231 93L231 446Q231 459 222 468Q213 477 200 477L128 477Q115 477 106 468Q97 459 97 446L97 93Q97 80 106 71Q115 62 128 62L200 62Q213 62 222 71Q231 80 231 93M293 446L293 93Q293 55 266 27.50Q239 0 200 0L128 0Q89 0 62 27.50Q35 55 35 93L35 446Q35 485 62 512.50Q89 540 128 540L200 540Q238 540 265.50 512.50Q293 485 293 446M101 628L59 628Q59 659 77 679.50Q95 700 125 700Q146 700 168 686.50Q190 673 203 673Q228 673 228 700L270 700Q270 669 252 648.50Q234 628 205 628Q184 628 162 642Q140 656 129 656Q101 656 101 628Z"  horiz-adv-x="328" vert-adv-y="1000"  />

      
      <glyph glyph-name="unif6" unicode="&#xf6;" d="M231 93L231 446Q231 459 222 468Q213 477 200 477L128 477Q115 477 106 468Q97 459 97 446L97 93Q97 80 106 71Q115 62 128 62L200 62Q213 62 222 71Q231 80 231 93M293 446L293 93Q293 55 266 27.50Q239 0 200 0L128 0Q89 0 62 27.50Q35 55 35 93L35 446Q35 485 62 512.50Q89 540 128 540L200 540Q238 540 265.50 512.50Q293 485 293 446M193 700L253 700L253 629L193 629L193 700M76 700L137 700L137 629L76 629L76 700Z"  horiz-adv-x="328" vert-adv-y="1000"  />

      
      <glyph glyph-name="unif7" unicode="&#xf7;" d="M176 282L236 282L236 211L176 211L176 282M176 540L236 540L236 469L176 469L176 540M30 401L399 401L399 350L30 350L30 401Z"  horiz-adv-x="429" vert-adv-y="1000"  />

      
      <glyph glyph-name="unif8" unicode="&#xf8;" d="M329 446L329 93Q329 55 301.50 27.50Q274 0 235 0L163 0Q126 0 101 23L77-23L35 0L71 71Q69 78 69 93L69 446Q69 484 96.50 512Q124 540 163 540L235 540Q271 540 299 514L325 563L367 540L327 463Q329 451 329 446M235 477L163 477Q150 477 141 468Q132 459 132 446L132 298L115 155L266 448Q265 460 256 468.50Q247 477 235 477M163 62L235 62Q248 62 257 71Q266 80 266 93L266 191L283 377L133 85Q135 75 144 68.50Q153 62 163 62Z"  horiz-adv-x="402" vert-adv-y="1000"  />

      
      <glyph glyph-name="unif9" unicode="&#xf9;" d="M277 0L215 0L215 24L164 2Q146-5 128-5Q88-5 61.50 19Q35 43 35 84L35 540L97 540L97 84Q97 57 128 57Q134 57 141 60L215 90L215 540L277 540L277 0M97 662L127 700L216 634L186 596L97 662Z"  horiz-adv-x="312" vert-adv-y="1000"  />

      
      <glyph glyph-name="unifa" unicode="&#xfa;" d="M277 0L215 0L215 24L164 2Q146-5 128-5Q88-5 61.50 19Q35 43 35 84L35 540L97 540L97 84Q97 57 128 57Q134 57 141 60L215 90L215 540L277 540L277 0M186 700L216 662L127 596L97 634L186 700Z"  horiz-adv-x="312" vert-adv-y="1000"  />

      
      <glyph glyph-name="unifb" unicode="&#xfb;" d="M277 0L215 0L215 24L164 2Q146-5 128-5Q88-5 61.50 19Q35 43 35 84L35 540L97 540L97 84Q97 57 128 57Q134 57 141 60L215 90L215 540L277 540L277 0M90 606L60 644L150 700L163 700L252 644L222 606L156 648L90 606Z"  horiz-adv-x="312" vert-adv-y="1000"  />

      
      <glyph glyph-name="unifc" unicode="&#xfc;" d="M277 0L215 0L215 24L164 2Q146-5 128-5Q88-5 61.50 19Q35 43 35 84L35 540L97 540L97 84Q97 57 128 57Q134 57 141 60L215 90L215 540L277 540L277 0M185 700L245 700L245 629L185 629L185 700M68 700L129 700L129 629L68 629L68 700Z"  horiz-adv-x="312" vert-adv-y="1000"  />

      
      <glyph glyph-name="unifd" unicode="&#xfd;" d="M280 540L217 540L153 62L144 62L73 540L10 540L90 0L143 0L121-155L184-155L280 540M175 700L205 662L116 596L86 634L175 700Z"  horiz-adv-x="295" vert-adv-y="1000"  />

      
      <glyph glyph-name="unife" unicode="&#xfe;" d="M280 445L280 93Q280 55 252.50 27.50Q225 0 186 0L97 0L97-155L35-155L35 700L97 700L97 539L186 539Q225 539 252.50 511.50Q280 484 280 445M97 62L186 62Q199 62 208 71Q217 80 217 93L217 445Q217 458 208 467Q199 476 186 476L97 476L97 62Z"  horiz-adv-x="315" vert-adv-y="1000"  />

      
      <glyph glyph-name="uniff" unicode="&#xff;" d="M217 540L280 540L184-155L121-155L143 0L90 0L10 540L73 540L144 62L153 62L217 540M174 700L234 700L234 629L174 629L174 700M57 700L118 700L118 629L57 629L57 700Z"  horiz-adv-x="295" vert-adv-y="1000"  />

      
      <glyph glyph-name="uni0100" unicode="&#x0100;" d="M87 0L20 0L115 700L234 700L329 0L263 0L233 206L116 206L87 0M177 635L172 635L123 267L226 267L177 635M79 814L270 814L270 763L79 763L79 814Z"  horiz-adv-x="349" vert-adv-y="1000"  />

      
      <glyph glyph-name="uni0101" unicode="&#x0101;" d="M229 89L229 258L128 258Q116 258 106.50 248Q97 238 97 227L97 87Q97 74 106.50 65.50Q116 57 128 57Q135 57 139 58L229 89M128 320L229 320L229 446Q229 459 219.50 468Q210 477 198 477L138 477Q125 477 116 468Q107 461 107 446L107 394L45 394L45 447Q45 486 72.50 513Q100 540 139 540L199 540Q237 540 264.50 512Q292 484 292 447L292 0L240 0L230 24L159 1Q137-5 123-5Q84-5 59.50 18.50Q35 42 35 79L35 227Q35 265 63 292.50Q91 320 128 320M68 700L259 700L259 649L68 649L68 700Z"  horiz-adv-x="327" vert-adv-y="1000"  />

      
      <glyph glyph-name="uni0102" unicode="&#x0102;" d="M87 0L20 0L115 700L234 700L329 0L263 0L233 206L116 206L87 0M177 635L172 635L123 267L226 267L177 635M74 828L123 828L123 817Q123 809 129 802.50Q135 796 143 796L205 796Q213 796 219 802.50Q225 809 225 817L225 828L274 828L274 820Q274 790 255 770Q236 750 206 750L142 750Q112 750 93 770Q74 790 74 820L74 828Z"  horiz-adv-x="349" vert-adv-y="1000"  />

      
      <glyph glyph-name="uni0103" unicode="&#x0103;" d="M229 89L229 258L128 258Q116 258 106.50 248Q97 238 97 227L97 87Q97 74 106.50 65.50Q116 57 128 57Q135 57 139 58L229 89M128 320L229 320L229 446Q229 459 219.50 468Q210 477 198 477L138 477Q125 477 116 468Q107 461 107 446L107 394L45 394L45 447Q45 486 72.50 513Q100 540 139 540L199 540Q237 540 264.50 512Q292 484 292 447L292 0L240 0L230 24L159 1Q137-5 123-5Q84-5 59.50 18.50Q35 42 35 79L35 227Q35 265 63 292.50Q91 320 128 320M63 700L112 700L112 689Q112 681 118 674.50Q124 668 132 668L194 668Q202 668 208 674.50Q214 681 214 689L214 700L263 700L263 692Q263 662 244 642Q225 622 195 622L131 622Q101 622 82 642Q63 662 63 692L63 700Z"  horiz-adv-x="327" vert-adv-y="1000"  />

      
      <glyph glyph-name="uni0104" unicode="&#x0104;" d="M292-80Q292-95 307-95L330-95L330-139L291-139Q268-139 255.50-124Q243-109 243-88Q243-46 282 0L263 0L233 206L116 206L87 0L20 0L115 700L234 700L329 0Q292-45 292-80M177 635L172 635L123 267L226 267L177 635Z"  horiz-adv-x="350" vert-adv-y="1000"  />

      
      <glyph glyph-name="uni0105" unicode="&#x0105;" d="M255-80Q255-95 270-95L293-95L293-139L254-139Q231-139 218.50-124Q206-109 206-88Q206-46 245 0L240 0L230 24L159 1Q137-5 123-5Q84-5 59.50 18.50Q35 42 35 79L35 227Q35 265 63 292.50Q91 320 128 320L229 320L229 446Q229 459 219.50 468Q210 477 198 477L138 477Q125 477 116 468Q107 461 107 446L107 394L45 394L45 447Q45 486 72.50 513Q100 540 139 540L199 540Q237 540 264.50 512Q292 484 292 447L292 0Q255-45 255-80M229 89L229 258L128 258Q116 258 106.50 248Q97 238 97 227L97 87Q97 74 106.50 65.50Q116 57 128 57Q135 57 139 58L229 89Z"  horiz-adv-x="327" vert-adv-y="1000"  />

      
      <glyph glyph-name="uni0106" unicode="&#x0106;" d="M205 528L205 606Q205 617 197 625.50Q189 634 177 634L134 634Q123 634 114.50 625.50Q106 617 106 606L106 94Q106 82 114.50 74Q123 66 134 66L177 66Q188 66 196.50 74Q205 82 205 94L205 201L271 201L271 94Q271 55 243.50 27.50Q216 0 177 0L134 0Q96 0 68 27.50Q40 55 40 94L40 606Q40 645 68 672.50Q96 700 134 700L177 700Q216 700 243.50 672.50Q271 645 271 606L271 528L205 528M185 854L215 816L126 750L96 788L185 854Z"  horiz-adv-x="311" vert-adv-y="1000"  />

      
      <glyph glyph-name="uni0107" unicode="&#x0107;" d="M270 394L208 394L208 446Q208 459 199 468Q190 477 177 477L128 477Q115 477 106 468Q97 459 97 446L97 93Q97 80 106 71Q115 62 128 62L177 62Q190 62 199 71Q208 80 208 93L208 178L270 178L270 93Q270 55 243 27.50Q216 0 177 0L128 0Q90 0 62.50 27.50Q35 55 35 93L35 446Q35 485 62.50 512.50Q90 540 128 540L177 540Q216 540 243 512.50Q270 485 270 446L270 394M183 700L213 662L124 596L94 634L183 700Z"  horiz-adv-x="305" vert-adv-y="1000"  />

      
      <glyph glyph-name="uni0108" unicode="&#x0108;" d="M205 528L205 606Q205 617 197 625.50Q189 634 177 634L134 634Q123 634 114.50 625.50Q106 617 106 606L106 94Q106 82 114.50 74Q123 66 134 66L177 66Q188 66 196.50 74Q205 82 205 94L205 201L271 201L271 94Q271 55 243.50 27.50Q216 0 177 0L134 0Q96 0 68 27.50Q40 55 40 94L40 606Q40 645 68 672.50Q96 700 134 700L177 700Q216 700 243.50 672.50Q271 645 271 606L271 528L205 528M89 750L59 788L149 844L162 844L251 788L221 750L155 792L89 750Z"  horiz-adv-x="311" vert-adv-y="1000"  />

      
      <glyph glyph-name="uni0109" unicode="&#x0109;" d="M270 394L208 394L208 446Q208 459 199 468Q190 477 177 477L128 477Q115 477 106 468Q97 459 97 446L97 93Q97 80 106 71Q115 62 128 62L177 62Q190 62 199 71Q208 80 208 93L208 178L270 178L270 93Q270 55 243 27.50Q216 0 177 0L128 0Q90 0 62.50 27.50Q35 55 35 93L35 446Q35 485 62.50 512.50Q90 540 128 540L177 540Q216 540 243 512.50Q270 485 270 446L270 394M88 606L58 644L148 700L161 700L250 644L220 606L154 648L88 606Z"  horiz-adv-x="305" vert-adv-y="1000"  />

      
      <glyph glyph-name="uni010A" unicode="&#x010A;" d="M205 528L205 606Q205 617 197 625.50Q189 634 177 634L134 634Q123 634 114.50 625.50Q106 617 106 606L106 94Q106 82 114.50 74Q123 66 134 66L177 66Q188 66 196.50 74Q205 82 205 94L205 201L271 201L271 94Q271 55 243.50 27.50Q216 0 177 0L134 0Q96 0 68 27.50Q40 55 40 94L40 606Q40 645 68 672.50Q96 700 134 700L177 700Q216 700 243.50 672.50Q271 645 271 606L271 528L205 528M125 821L186 821L186 750L125 750L125 821Z"  horiz-adv-x="311" vert-adv-y="1000"  />

      
      <glyph glyph-name="uni010B" unicode="&#x010B;" d="M270 394L208 394L208 446Q208 459 199 468Q190 477 177 477L128 477Q115 477 106 468Q97 459 97 446L97 93Q97 80 106 71Q115 62 128 62L177 62Q190 62 199 71Q208 80 208 93L208 178L270 178L270 93Q270 55 243 27.50Q216 0 177 0L128 0Q90 0 62.50 27.50Q35 55 35 93L35 446Q35 485 62.50 512.50Q90 540 128 540L177 540Q216 540 243 512.50Q270 485 270 446L270 394M123 700L184 700L184 629L123 629L123 700Z"  horiz-adv-x="305" vert-adv-y="1000"  />

      
      <glyph glyph-name="uni010C" unicode="&#x010C;" d="M205 528L205 606Q205 617 197 625.50Q189 634 177 634L134 634Q123 634 114.50 625.50Q106 617 106 606L106 94Q106 82 114.50 74Q123 66 134 66L177 66Q188 66 196.50 74Q205 82 205 94L205 201L271 201L271 94Q271 55 243.50 27.50Q216 0 177 0L134 0Q96 0 68 27.50Q40 55 40 94L40 606Q40 645 68 672.50Q96 700 134 700L177 700Q216 700 243.50 672.50Q271 645 271 606L271 528L205 528M59 806L89 844L155 802L221 844L251 806L162 750L149 750L59 806Z"  horiz-adv-x="311" vert-adv-y="1000"  />

      
      <glyph glyph-name="uni010D" unicode="&#x010D;" d="M270 394L208 394L208 446Q208 459 199 468Q190 477 177 477L128 477Q115 477 106 468Q97 459 97 446L97 93Q97 80 106 71Q115 62 128 62L177 62Q190 62 199 71Q208 80 208 93L208 178L270 178L270 93Q270 55 243 27.50Q216 0 177 0L128 0Q90 0 62.50 27.50Q35 55 35 93L35 446Q35 485 62.50 512.50Q90 540 128 540L177 540Q216 540 243 512.50Q270 485 270 446L270 394M57 662L87 700L153 658L219 700L249 662L160 606L147 606L57 662Z"  horiz-adv-x="305" vert-adv-y="1000"  />

      
      <glyph glyph-name="uni010E" unicode="&#x010E;" d="M40 700L196 700Q234 700 261.50 672.50Q289 645 289 606L289 94Q289 55 261.50 27.50Q234 0 196 0L40 0L40 700M106 634L106 66L196 66Q207 66 215 74Q223 82 223 94L223 606Q223 617 215 625.50Q207 634 196 634L106 634M48 806L78 844L144 802L210 844L240 806L151 750L138 750L48 806Z"  horiz-adv-x="329" vert-adv-y="1000"  />

      
      <glyph glyph-name="uni010F" unicode="&#x010F;" d="M292 0L240 0L230 24L159 0Q144-5 125-5Q88-5 61.50 20.50Q35 46 35 83L35 458Q35 496 61.50 520.50Q88 545 126 545Q144 545 159 540L230 517L230 700L292 700L292 0M126 483Q114 483 105.50 475.50Q97 468 97 456L97 83Q97 71 105 64Q113 57 125 57Q130 57 138 59L230 89L230 450L138 481Q130 483 126 483M327 700L387 700L387 639L350 577L327 577L349 639L327 639L327 700Z"  horiz-adv-x="327" vert-adv-y="1000"  />

      
      <glyph glyph-name="uni0110" unicode="&#x0110;" d="M20 352L20 403L70 403L70 700L226 700Q264 700 291.50 672.50Q319 645 319 606L319 94Q319 55 291.50 27.50Q264 0 226 0L70 0L70 352L20 352M136 634L136 403L217 403L217 352L136 352L136 66L226 66Q237 66 245 74Q253 82 253 94L253 606Q253 617 245 625.50Q237 634 226 634L136 634Z"  horiz-adv-x="359" vert-adv-y="1000"  />

      
      <glyph glyph-name="uni0111" unicode="&#x0111;" d="M292 0L240 0L230 24L159 0Q144-5 125-5Q88-5 61.50 20.50Q35 46 35 83L35 458Q35 496 61.50 520.50Q88 545 126 545Q144 545 159 540L230 517L230 593L140 593L140 644L230 644L230 700L292 700L292 644L337 644L337 593L292 593L292 0M126 483Q114 483 105.50 475.50Q97 468 97 456L97 83Q97 71 105 64Q113 57 125 57Q130 57 138 59L230 89L230 450L138 481Q130 483 126 483Z"  horiz-adv-x="327" vert-adv-y="1000"  />

      
      <glyph glyph-name="uni0112" unicode="&#x0112;" d="M231 634L106 634L106 408L215 408L215 347L106 347L106 66L230 66L230 0L40 0L40 700L231 700L231 634M40 814L231 814L231 763L40 763L40 814Z"  horiz-adv-x="261" vert-adv-y="1000"  />

      
      <glyph glyph-name="uni0113" unicode="&#x0113;" d="M97 446L97 320L220 320L220 446Q220 459 210.50 468Q201 477 189 477L128 477Q115 477 106 467.50Q97 458 97 446M282 258L97 258L97 93Q97 80 106.50 71Q116 62 128 62L189 62Q202 62 211 71.50Q220 81 220 93L220 178L282 178L282 94Q282 55 254.50 27.50Q227 0 189 0L128 0Q90 0 62.50 28.50Q35 57 35 94L35 447Q35 486 62.50 513Q90 540 128 540L189 540Q228 540 255 512.50Q282 485 282 447L282 258M66 700L257 700L257 649L66 649L66 700Z"  horiz-adv-x="317" vert-adv-y="1000"  />

      
      <glyph glyph-name="uni0114" unicode="&#x0114;" d="M231 634L106 634L106 408L215 408L215 347L106 347L106 66L230 66L230 0L40 0L40 700L231 700L231 634M35 828L84 828L84 817Q84 809 90 802.50Q96 796 104 796L166 796Q174 796 180 802.50Q186 809 186 817L186 828L235 828L235 820Q235 790 216 770Q197 750 167 750L103 750Q73 750 54 770Q35 790 35 820L35 828Z"  horiz-adv-x="261" vert-adv-y="1000"  />

      
      <glyph glyph-name="uni0115" unicode="&#x0115;" d="M97 446L97 320L220 320L220 446Q220 459 210.50 468Q201 477 189 477L128 477Q115 477 106 467.50Q97 458 97 446M282 258L97 258L97 93Q97 80 106.50 71Q116 62 128 62L189 62Q202 62 211 71.50Q220 81 220 93L220 178L282 178L282 94Q282 55 254.50 27.50Q227 0 189 0L128 0Q90 0 62.50 28.50Q35 57 35 94L35 447Q35 486 62.50 513Q90 540 128 540L189 540Q228 540 255 512.50Q282 485 282 447L282 258M60 700L109 700L109 689Q109 681 115 674.50Q121 668 129 668L191 668Q199 668 205 674.50Q211 681 211 689L211 700L260 700L260 692Q260 662 241 642Q222 622 192 622L128 622Q98 622 79 642Q60 662 60 692L60 700Z"  horiz-adv-x="317" vert-adv-y="1000"  />

      
      <glyph glyph-name="uni0116" unicode="&#x0116;" d="M231 634L106 634L106 408L215 408L215 347L106 347L106 66L230 66L230 0L40 0L40 700L231 700L231 634M105 821L166 821L166 750L105 750L105 821Z"  horiz-adv-x="261" vert-adv-y="1000"  />

      
      <glyph glyph-name="uni0117" unicode="&#x0117;" d="M97 446L97 320L220 320L220 446Q220 459 210.50 468Q201 477 189 477L128 477Q115 477 106 467.50Q97 458 97 446M282 258L97 258L97 93Q97 80 106.50 71Q116 62 128 62L189 62Q202 62 211 71.50Q220 81 220 93L220 178L282 178L282 94Q282 55 254.50 27.50Q227 0 189 0L128 0Q90 0 62.50 28.50Q35 57 35 94L35 447Q35 486 62.50 513Q90 540 128 540L189 540Q228 540 255 512.50Q282 485 282 447L282 258M131 700L192 700L192 629L131 629L131 700Z"  horiz-adv-x="317" vert-adv-y="1000"  />

      
      <glyph glyph-name="uni0118" unicode="&#x0118;" d="M193-80Q193-95 208-95L231-95L231-139L192-139Q169-139 156.50-124Q144-109 144-88Q144-46 183 0L40 0L40 700L231 700L231 634L106 634L106 408L215 408L215 347L106 347L106 66L230 66L230 0Q193-45 193-80Z"  horiz-adv-x="261" vert-adv-y="1000"  />

      
      <glyph glyph-name="uni0119" unicode="&#x0119;" d="M156-80Q156-95 171-95L194-95L194-139L155-139Q132-139 119.50-124Q107-109 107-88Q107-46 146 0L128 0Q90 0 62.50 28.50Q35 57 35 94L35 447Q35 486 62.50 513Q90 540 128 540L189 540Q228 540 255 512.50Q282 485 282 447L282 258L97 258L97 93Q97 80 106.50 71Q116 62 128 62L189 62Q202 62 211 71.50Q220 81 220 93L220 178L282 178L282 94Q282 56 255.50 29Q229 2 193 0Q156-45 156-80M97 446L97 320L220 320L220 446Q220 459 210.50 468Q201 477 189 477L128 477Q115 477 106 467.50Q97 458 97 446Z"  horiz-adv-x="317" vert-adv-y="1000"  />

      
      <glyph glyph-name="uni011A" unicode="&#x011A;" d="M231 634L106 634L106 408L215 408L215 347L106 347L106 66L230 66L230 0L40 0L40 700L231 700L231 634M44 806L74 844L140 802L206 844L236 806L147 750L134 750L44 806Z"  horiz-adv-x="261" vert-adv-y="1000"  />

      
      <glyph glyph-name="uni011B" unicode="&#x011B;" d="M97 446L97 320L220 320L220 446Q220 459 210.50 468Q201 477 189 477L128 477Q115 477 106 467.50Q97 458 97 446M282 258L97 258L97 93Q97 80 106.50 71Q116 62 128 62L189 62Q202 62 211 71.50Q220 81 220 93L220 178L282 178L282 94Q282 55 254.50 27.50Q227 0 189 0L128 0Q90 0 62.50 28.50Q35 57 35 94L35 447Q35 486 62.50 513Q90 540 128 540L189 540Q228 540 255 512.50Q282 485 282 447L282 258M65 662L95 700L161 658L227 700L257 662L168 606L155 606L65 662Z"  horiz-adv-x="317" vert-adv-y="1000"  />

      
      <glyph glyph-name="uni011C" unicode="&#x011C;" d="M205 528L205 606Q205 617 197 625.50Q189 634 177 634L134 634Q123 634 114.50 625.50Q106 617 106 606L106 94Q106 82 114.50 74Q123 66 134 66L177 66Q188 66 196.50 74Q205 82 205 94L205 286L162 286L162 347L271 347L271 94Q271 55 243.50 27.50Q216 0 177 0L134 0Q95 0 67.50 27.50Q40 55 40 94L40 606Q40 644 68 672Q96 700 134 700L177 700Q216 700 243.50 672.50Q271 645 271 606L271 528L205 528M89 750L59 788L149 844L162 844L251 788L221 750L155 792L89 750Z"  horiz-adv-x="311" vert-adv-y="1000"  />

      
      <glyph glyph-name="uni011D" unicode="&#x011D;" d="M227 540L279 540L279-62Q279-101 252-128Q225-155 186-155L66-155L66-93L186-93Q199-93 208-84Q217-75 217-62L217 24L159 0Q145-5 126-5Q88-5 61.50 20.50Q35 46 35 83L35 459Q35 495 61.50 520Q88 545 125 545Q145 545 159 540L217 517L227 540M124 484Q97 484 97 457L97 84Q97 72 105 64.50Q113 57 125 57Q135 57 139 59L217 89L217 450L138 481Q132 484 124 484M101 606L71 644L161 700L174 700L263 644L233 606L167 648L101 606Z"  horiz-adv-x="314" vert-adv-y="1000"  />

      
      <glyph glyph-name="uni011E" unicode="&#x011E;" d="M205 528L205 606Q205 617 197 625.50Q189 634 177 634L134 634Q123 634 114.50 625.50Q106 617 106 606L106 94Q106 82 114.50 74Q123 66 134 66L177 66Q188 66 196.50 74Q205 82 205 94L205 286L162 286L162 347L271 347L271 94Q271 55 243.50 27.50Q216 0 177 0L134 0Q95 0 67.50 27.50Q40 55 40 94L40 606Q40 644 68 672Q96 700 134 700L177 700Q216 700 243.50 672.50Q271 645 271 606L271 528L205 528M55 828L104 828L104 817Q104 809 110 802.50Q116 796 124 796L186 796Q194 796 200 802.50Q206 809 206 817L206 828L255 828L255 820Q255 790 236 770Q217 750 187 750L123 750Q93 750 74 770Q55 790 55 820L55 828Z"  horiz-adv-x="311" vert-adv-y="1000"  />

      
      <glyph glyph-name="uni011F" unicode="&#x011F;" d="M227 540L279 540L279-62Q279-101 252-128Q225-155 186-155L66-155L66-93L186-93Q199-93 208-84Q217-75 217-62L217 24L159 0Q145-5 126-5Q88-5 61.50 20.50Q35 46 35 83L35 459Q35 495 61.50 520Q88 545 125 545Q145 545 159 540L217 517L227 540M124 484Q97 484 97 457L97 84Q97 72 105 64.50Q113 57 125 57Q135 57 139 59L217 89L217 450L138 481Q132 484 124 484M67 700L116 700L116 689Q116 681 122 674.50Q128 668 136 668L198 668Q206 668 212 674.50Q218 681 218 689L218 700L267 700L267 692Q267 662 248 642Q229 622 199 622L135 622Q105 622 86 642Q67 662 67 692L67 700Z"  horiz-adv-x="314" vert-adv-y="1000"  />

      
      <glyph glyph-name="uni0120" unicode="&#x0120;" d="M205 528L205 606Q205 617 197 625.50Q189 634 177 634L134 634Q123 634 114.50 625.50Q106 617 106 606L106 94Q106 82 114.50 74Q123 66 134 66L177 66Q188 66 196.50 74Q205 82 205 94L205 286L162 286L162 347L271 347L271 94Q271 55 243.50 27.50Q216 0 177 0L134 0Q95 0 67.50 27.50Q40 55 40 94L40 606Q40 644 68 672Q96 700 134 700L177 700Q216 700 243.50 672.50Q271 645 271 606L271 528L205 528M125 821L186 821L186 750L125 750L125 821Z"  horiz-adv-x="311" vert-adv-y="1000"  />

      
      <glyph glyph-name="uni0121" unicode="&#x0121;" d="M227 540L279 540L279-62Q279-101 252-128Q225-155 186-155L66-155L66-93L186-93Q199-93 208-84Q217-75 217-62L217 24L159 0Q145-5 126-5Q88-5 61.50 20.50Q35 46 35 83L35 459Q35 495 61.50 520Q88 545 125 545Q145 545 159 540L217 517L227 540M124 484Q97 484 97 457L97 84Q97 72 105 64.50Q113 57 125 57Q135 57 139 59L217 89L217 450L138 481Q132 484 124 484M137 700L198 700L198 629L137 629L137 700Z"  horiz-adv-x="314" vert-adv-y="1000"  />

      
      <glyph glyph-name="uni0122" unicode="&#x0122;" d="M205 528L205 606Q205 617 197 625.50Q189 634 177 634L134 634Q123 634 114.50 625.50Q106 617 106 606L106 94Q106 82 114.50 74Q123 66 134 66L177 66Q188 66 196.50 74Q205 82 205 94L205 286L162 286L162 347L271 347L271 94Q271 55 243.50 27.50Q216 0 177 0L134 0Q95 0 67.50 27.50Q40 55 40 94L40 606Q40 644 68 672Q96 700 134 700L177 700Q216 700 243.50 672.50Q271 645 271 606L271 528L205 528M185-32L125-32L125-93L147-93L125-155L148-155L185-93L185-32Z"  horiz-adv-x="311" vert-adv-y="1000"  />

      
      <glyph glyph-name="uni0123" unicode="&#x0123;" d="M227 540L279 540L279-62Q279-101 252-128Q225-155 186-155L66-155L66-93L186-93Q199-93 208-84Q217-75 217-62L217 24L159 0Q145-5 126-5Q88-5 61.50 20.50Q35 46 35 83L35 459Q35 495 61.50 520Q88 545 125 545Q145 545 159 540L217 517L227 540M124 484Q97 484 97 457L97 84Q97 72 105 64.50Q113 57 125 57Q135 57 139 59L217 89L217 450L138 481Q132 484 124 484M187 577L127 577L127 638L164 700L187 700L165 638L187 638L187 577Z"  horiz-adv-x="314" vert-adv-y="1000"  />

      
      <glyph glyph-name="uni0124" unicode="&#x0124;" d="M295 700L295 0L229 0L229 347L106 347L106 0L40 0L40 700L106 700L106 408L229 408L229 700L295 700M101 750L71 788L161 844L174 844L263 788L233 750L167 792L101 750Z"  horiz-adv-x="335" vert-adv-y="1000"  />

      
      <glyph glyph-name="uni0125" unicode="&#x0125;" d="M35 700L97 700L97 517L155 540Q172 545 187 545Q225 545 252 517.50Q279 490 279 452L279 0L217 0L217 456Q217 468 208.50 475.50Q200 483 187 483Q183 483 175 481L97 450L97 0L35 0L35 700M0 750L-30 788L60 844L73 844L162 788L132 750L66 792L0 750Z"  horiz-adv-x="314" vert-adv-y="1000"  />

      
      <glyph glyph-name="uni0126" unicode="&#x0126;" d="M295 700L295 591L345 591L345 540L295 540L295 0L229 0L229 347L106 347L106 0L40 0L40 540L-10 540L-10 591L40 591L40 700L106 700L106 591L229 591L229 700L295 700M106 408L229 408L229 540L106 540L106 408Z"  horiz-adv-x="335" vert-adv-y="1000"  />

      
      <glyph glyph-name="uni0127" unicode="&#x0127;" d="M-10 593L-10 644L35 644L35 700L97 700L97 644L187 644L187 593L97 593L97 517L155 540Q172 545 187 545Q225 545 252 517.50Q279 490 279 452L279 0L217 0L217 456Q217 468 208.50 475.50Q200 483 187 483Q183 483 175 481L97 450L97 0L35 0L35 593L-10 593Z"  horiz-adv-x="314" vert-adv-y="1000"  />

      
      <glyph glyph-name="uni0128" unicode="&#x0128;" d="M220 634L163 634L163 66L220 66L220 0L40 0L40 66L97 66L97 634L40 634L40 700L220 700L220 634M67 750L25 750Q25 781 43 801.50Q61 822 91 822Q112 822 134 808.50Q156 795 169 795Q194 795 194 822L236 822Q236 791 218 770.50Q200 750 171 750Q150 750 128 764Q106 778 95 778Q67 778 67 750Z"  horiz-adv-x="260" vert-adv-y="1000"  />

      
      <glyph glyph-name="uni0129" unicode="&#x0129;" d="M102 0L40 0L40 540L102 540L102 0M8 628L-34 628Q-34 659-16 679.50Q2 700 32 700Q53 700 75 686.50Q97 673 110 673Q135 673 135 700L177 700Q177 669 159 648.50Q141 628 112 628Q91 628 69 642Q47 656 36 656Q8 656 8 628Z"  horiz-adv-x="142" vert-adv-y="1000"  />

      
      <glyph glyph-name="uni012A" unicode="&#x012A;" d="M220 634L163 634L163 66L220 66L220 0L40 0L40 66L97 66L97 634L40 634L40 700L220 700L220 634M35 814L226 814L226 763L35 763L35 814Z"  horiz-adv-x="260" vert-adv-y="1000"  />

      
      <glyph glyph-name="uni012B" unicode="&#x012B;" d="M102 0L40 0L40 540L102 540L102 0M-24 700L167 700L167 649L-24 649L-24 700Z"  horiz-adv-x="142" vert-adv-y="1000"  />

      
      <glyph glyph-name="uni012C" unicode="&#x012C;" d="M220 634L163 634L163 66L220 66L220 0L40 0L40 66L97 66L97 634L40 634L40 700L220 700L220 634M30 828L79 828L79 817Q79 809 85 802.50Q91 796 99 796L161 796Q169 796 175 802.50Q181 809 181 817L181 828L230 828L230 820Q230 790 211 770Q192 750 162 750L98 750Q68 750 49 770Q30 790 30 820L30 828Z"  horiz-adv-x="260" vert-adv-y="1000"  />

      
      <glyph glyph-name="uni012D" unicode="&#x012D;" d="M102 0L40 0L40 540L102 540L102 0M-29 700L20 700L20 689Q20 681 26 674.50Q32 668 40 668L102 668Q110 668 116 674.50Q122 681 122 689L122 700L171 700L171 692Q171 662 152 642Q133 622 103 622L39 622Q9 622-10 642Q-29 662-29 692L-29 700Z"  horiz-adv-x="142" vert-adv-y="1000"  />

      
      <glyph glyph-name="uni012E" unicode="&#x012E;" d="M136-80Q136-95 151-95L174-95L174-139L135-139Q112-139 99.50-124Q87-109 87-88Q87-46 126 0L40 0L40 66L97 66L97 634L40 634L40 700L220 700L220 634L163 634L163 66L220 66L220 0L173 0Q136-45 136-80Z"  horiz-adv-x="260" vert-adv-y="1000"  />

      
      <glyph glyph-name="uni012F" unicode="&#x012F;" d="M65-80Q65-95 80-95L103-95L103-139L64-139Q41-139 28.50-124Q16-109 16-88Q16-46 55 0L40 0L40 540L102 540L102 0Q65-45 65-80M41 700L102 700L102 629L41 629L41 700Z"  horiz-adv-x="142" vert-adv-y="1000"  />

      
      <glyph glyph-name="uni0130" unicode="&#x0130;" d="M220 634L163 634L163 66L220 66L220 0L40 0L40 66L97 66L97 634L40 634L40 700L220 700L220 634M100 821L161 821L161 750L100 750L100 821Z"  horiz-adv-x="260" vert-adv-y="1000"  />

      
      <glyph glyph-name="uni0131" unicode="&#x0131;" d="M102 0L40 0L40 540L102 540L102 0Z"  horiz-adv-x="142" vert-adv-y="1000"  />

      
      <glyph glyph-name="uni0134" unicode="&#x0134;" d="M91 201L91 94Q91 82 99.50 74Q108 66 119 66L162 66Q174 66 182 74Q190 82 190 94L190 634L96 634L96 700L256 700L256 94Q256 55 228.50 27.50Q201 0 162 0L119 0Q81 0 53 27.50Q25 55 25 94L25 201L91 201M118 750L88 788L178 844L191 844L280 788L250 750L184 792L118 750Z"  horiz-adv-x="296" vert-adv-y="1000"  />

      
      <glyph glyph-name="uni0135" unicode="&#x0135;" d="M5 606L-25 644L65 700L78 700L167 644L137 606L71 648L5 606M40 540L102 540L102-8Q102-46 74-73.50Q46-101 9-101L-33-101L-33-39L9-39Q23-39 31.50-30Q40-21 40-8L40 540Z"  horiz-adv-x="142" vert-adv-y="1000"  />

      
      <glyph glyph-name="uni0136" unicode="&#x0136;" d="M106 700L106 408L131 408L221 700L289 700L186 388L288 0L220 0L129 347L106 347L106 0L40 0L40 700L106 700M187-32L127-32L127-93L149-93L127-155L150-155L187-93L187-32Z"  horiz-adv-x="304" vert-adv-y="1000"  />

      
      <glyph glyph-name="uni0137" unicode="&#x0137;" d="M35 700L97 700L97 320L125 320L225 540L292 540L179 288L291 0L225 0L123 258L97 258L97 0L35 0L35 700M127-32L187-32L187-93L150-155L127-155L149-93L127-93L127-32Z"  horiz-adv-x="307" vert-adv-y="1000"  />

      
      <glyph glyph-name="uni0138" unicode="&#x0138;" d="M35 540L97 540L97 320L125 320L225 540L292 540L179 288L291 0L225 0L123 258L97 258L97 0L35 0L35 540Z"  horiz-adv-x="307" vert-adv-y="1000"  />

      
      <glyph glyph-name="uni0139" unicode="&#x0139;" d="M106 700L106 66L230 66L230 0L40 0L40 700L106 700M136 854L166 816L77 750L47 788L136 854Z"  horiz-adv-x="260" vert-adv-y="1000"  />

      
      <glyph glyph-name="uni013A" unicode="&#x013A;" d="M102 700L40 700L40 0L102 0L102 700M101 854L131 816L42 750L12 788L101 854Z"  horiz-adv-x="142" vert-adv-y="1000"  />

      
      <glyph glyph-name="uni013B" unicode="&#x013B;" d="M106 700L106 66L230 66L230 0L40 0L40 700L106 700M172-32L112-32L112-93L134-93L112-155L135-155L172-93L172-32Z"  horiz-adv-x="260" vert-adv-y="1000"  />

      
      <glyph glyph-name="uni013C" unicode="&#x013C;" d="M40 700L102 700L102 0L40 0L40 700M41-32L101-32L101-93L64-155L41-155L63-93L41-93L41-32Z"  horiz-adv-x="142" vert-adv-y="1000"  />

      
      <glyph glyph-name="uni013D" unicode="&#x013D;" d="M106 700L106 66L230 66L230 0L40 0L40 700L106 700M230 700L170 700L170 639L192 639L170 577L193 577L230 639L230 700Z"  horiz-adv-x="260" vert-adv-y="1000"  />

      
      <glyph glyph-name="uni013E" unicode="&#x013E;" d="M40 700L102 700L102 0L40 0L40 700M132 540L192 540L192 479L155 417L132 417L154 479L132 479L132 540Z"  horiz-adv-x="162" vert-adv-y="1000"  />

      
      <glyph glyph-name="uni013F" unicode="&#x013F;" d="M106 700L106 66L230 66L230 0L40 0L40 700L106 700M230 540L170 540L170 469L230 469L230 540Z"  horiz-adv-x="260" vert-adv-y="1000"  />

      
      <glyph glyph-name="uni0140" unicode="&#x0140;" d="M40 700L102 700L102 0L40 0L40 700M132 410L192 410L192 339L132 339L132 410Z"  horiz-adv-x="162" vert-adv-y="1000"  />

      
      <glyph glyph-name="uni0141" unicode="&#x0141;" d="M106 700L106 433L156 457L178 411L106 376L106 66L230 66L230 0L40 0L40 344L1 326L-21 372L40 401L40 700L106 700Z"  horiz-adv-x="260" vert-adv-y="1000"  />

      
      <glyph glyph-name="uni0142" unicode="&#x0142;" d="M2 255L-20 301L40 330L40 700L102 700L102 359L157 386L179 340L102 303L102 0L40 0L40 273L2 255Z"  horiz-adv-x="142" vert-adv-y="1000"  />

      
      <glyph glyph-name="uni0143" unicode="&#x0143;" d="M211 854L241 816L152 750L122 788L211 854M268 131L275 133L256 382L256 700L322 700L322 0L233 0L94 579L87 577L106 318L106 0L40 0L40 700L130 700L268 131Z"  horiz-adv-x="362" vert-adv-y="1000"  />

      
      <glyph glyph-name="uni0144" unicode="&#x0144;" d="M87 540L35 540L35 0L97 0L97 450L175 481Q183 483 187 483Q200 483 208.50 475.50Q217 468 217 456L217 0L279 0L279 452Q279 490 252 517.50Q225 545 187 545Q172 545 155 540L97 517L87 540M187 700L217 662L128 596L98 634L187 700Z"  horiz-adv-x="314" vert-adv-y="1000"  />

      
      <glyph glyph-name="uni0145" unicode="&#x0145;" d="M211-32L151-32L151-93L173-93L151-155L174-155L211-93L211-32M268 131L275 133L256 382L256 700L322 700L322 0L233 0L94 579L87 577L106 318L106 0L40 0L40 700L130 700L268 131Z"  horiz-adv-x="362" vert-adv-y="1000"  />

      
      <glyph glyph-name="uni0146" unicode="&#x0146;" d="M35 540L87 540L97 517L155 540Q172 545 187 545Q225 545 252 517.50Q279 490 279 452L279 0L217 0L217 456Q217 468 208.50 475.50Q200 483 187 483Q183 483 175 481L97 450L97 0L35 0L35 540M127-32L187-32L187-93L150-155L127-155L149-93L127-93L127-32Z"  horiz-adv-x="314" vert-adv-y="1000"  />

      
      <glyph glyph-name="uni0147" unicode="&#x0147;" d="M85 806L115 844L181 802L247 844L277 806L188 750L175 750L85 806M268 131L275 133L256 382L256 700L322 700L322 0L233 0L94 579L87 577L106 318L106 0L40 0L40 700L130 700L268 131Z"  horiz-adv-x="362" vert-adv-y="1000"  />

      
      <glyph glyph-name="uni0148" unicode="&#x0148;" d="M87 540L35 540L35 0L97 0L97 450L175 481Q183 483 187 483Q200 483 208.50 475.50Q217 468 217 456L217 0L279 0L279 452Q279 490 252 517.50Q225 545 187 545Q172 545 155 540L97 517L87 540M61 662L91 700L157 658L223 700L253 662L164 606L151 606L61 662Z"  horiz-adv-x="314" vert-adv-y="1000"  />

      
      <glyph glyph-name="uni0149" unicode="&#x0149;" d="M35 540L87 540L97 517L155 540Q172 545 187 545Q225 545 252 517.50Q279 490 279 452L279 0L217 0L217 456Q217 468 208.50 475.50Q200 483 187 483Q183 483 175 481L97 450L97 0L35 0L35 540M-19 700L41 700L41 639L4 577L-19 577L3 639L-19 639L-19 700Z"  horiz-adv-x="314" vert-adv-y="1000"  />

      
      <glyph glyph-name="uni014A" unicode="&#x014A;" d="M256 481L256 700L322 700L322-61Q322-100 294.50-127.50Q267-155 228-155L185-155L185-89L228-89Q240-89 248-81Q256-73 256-61L256 0L94 579L87 577L106 298L106 0L40 0L40 700L125 700L274 158L256 481Z"  horiz-adv-x="362" vert-adv-y="1000"  />

      
      <glyph glyph-name="uni014B" unicode="&#x014B;" d="M35 540L87 540L97 517L155 540Q172 545 187 545Q225 545 252 517.50Q279 490 279 452L279-8Q279-46 251-73.50Q223-101 186-101L144-101L144-39L186-39Q200-39 208.50-30Q217-21 217-8L217 456Q217 468 208.50 475.50Q200 483 187 483Q183 483 175 481L97 450L97 0L35 0L35 540Z"  horiz-adv-x="314" vert-adv-y="1000"  />

      
      <glyph glyph-name="uni014C" unicode="&#x014C;" d="M228 606Q228 617 219.50 625.50Q211 634 200 634L134 634Q123 634 114.50 625.50Q106 617 106 606L106 94Q106 82 114.50 74Q123 66 134 66L200 66Q211 66 219.50 74Q228 82 228 94L228 606M294 606L294 94Q294 55 266.50 27.50Q239 0 200 0L134 0Q96 0 68 27.50Q40 55 40 94L40 606Q40 645 68 672.50Q96 700 134 700L200 700Q239 700 266.50 672.50Q294 645 294 606M72 814L263 814L263 763L72 763L72 814Z"  horiz-adv-x="334" vert-adv-y="1000"  />

      
      <glyph glyph-name="uni014D" unicode="&#x014D;" d="M231 93L231 446Q231 459 222 468Q213 477 200 477L128 477Q115 477 106 468Q97 459 97 446L97 93Q97 80 106 71Q115 62 128 62L200 62Q213 62 222 71Q231 80 231 93M293 446L293 93Q293 55 266 27.50Q239 0 200 0L128 0Q89 0 62 27.50Q35 55 35 93L35 446Q35 485 62 512.50Q89 540 128 540L200 540Q238 540 265.50 512.50Q293 485 293 446M69 700L260 700L260 649L69 649L69 700Z"  horiz-adv-x="328" vert-adv-y="1000"  />

      
      <glyph glyph-name="uni014E" unicode="&#x014E;" d="M228 606Q228 617 219.50 625.50Q211 634 200 634L134 634Q123 634 114.50 625.50Q106 617 106 606L106 94Q106 82 114.50 74Q123 66 134 66L200 66Q211 66 219.50 74Q228 82 228 94L228 606M294 606L294 94Q294 55 266.50 27.50Q239 0 200 0L134 0Q96 0 68 27.50Q40 55 40 94L40 606Q40 645 68 672.50Q96 700 134 700L200 700Q239 700 266.50 672.50Q294 645 294 606M67 828L116 828L116 817Q116 809 122 802.50Q128 796 136 796L198 796Q206 796 212 802.50Q218 809 218 817L218 828L267 828L267 820Q267 790 248 770Q229 750 199 750L135 750Q105 750 86 770Q67 790 67 820L67 828Z"  horiz-adv-x="334" vert-adv-y="1000"  />

      
      <glyph glyph-name="uni014F" unicode="&#x014F;" d="M231 93L231 446Q231 459 222 468Q213 477 200 477L128 477Q115 477 106 468Q97 459 97 446L97 93Q97 80 106 71Q115 62 128 62L200 62Q213 62 222 71Q231 80 231 93M293 446L293 93Q293 55 266 27.50Q239 0 200 0L128 0Q89 0 62 27.50Q35 55 35 93L35 446Q35 485 62 512.50Q89 540 128 540L200 540Q238 540 265.50 512.50Q293 485 293 446M64 700L113 700L113 689Q113 681 119 674.50Q125 668 133 668L195 668Q203 668 209 674.50Q215 681 215 689L215 700L264 700L264 692Q264 662 245 642Q226 622 196 622L132 622Q102 622 83 642Q64 662 64 692L64 700Z"  horiz-adv-x="328" vert-adv-y="1000"  />

      
      <glyph glyph-name="uni0150" unicode="&#x0150;" d="M228 606Q228 617 219.50 625.50Q211 634 200 634L134 634Q123 634 114.50 625.50Q106 617 106 606L106 94Q106 82 114.50 74Q123 66 134 66L200 66Q211 66 219.50 74Q228 82 228 94L228 606M294 606L294 94Q294 55 266.50 27.50Q239 0 200 0L134 0Q96 0 68 27.50Q40 55 40 94L40 606Q40 645 68 672.50Q96 700 134 700L200 700Q239 700 266.50 672.50Q294 645 294 606M138 854L168 816L79 750L49 788L138 854M256 854L286 816L197 750L167 788L256 854Z"  horiz-adv-x="334" vert-adv-y="1000"  />

      
      <glyph glyph-name="uni0151" unicode="&#x0151;" d="M231 446L231 93Q231 80 222 71Q213 62 200 62L128 62Q115 62 106 71Q97 80 97 93L97 446Q97 459 106 468Q115 477 128 477L200 477Q213 477 222 468Q231 459 231 446M293 446Q293 485 265.50 512.50Q238 540 200 540L128 540Q89 540 62 512.50Q35 485 35 446L35 93Q35 55 62 27.50Q89 0 128 0L200 0Q239 0 266 27.50Q293 55 293 93L293 446M135 700L165 662L76 596L46 634L135 700M253 700L283 662L194 596L164 634L253 700Z"  horiz-adv-x="328" vert-adv-y="1000"  />

      
      <glyph glyph-name="uni0152" unicode="&#x0152;" d="M134 700L419 700L419 634L295 634L295 408L404 408L404 347L295 347L295 66L419 66L419 0L134 0Q96 0 68 27.50Q40 55 40 94L40 606Q40 645 68 672.50Q96 700 134 700M134 66L228 66L228 634L134 634Q123 634 114.50 625.50Q106 617 106 606L106 94Q106 82 114.50 74Q123 66 134 66Z"  horiz-adv-x="449" vert-adv-y="1000"  />

      
      <glyph glyph-name="uni0153" unicode="&#x0153;" d="M478 258L293 258L293 89Q294 77 303.50 69.50Q313 62 324 62L385 62Q398 62 407 71.50Q416 81 416 93L416 178L478 178L478 94Q478 55 450.50 27.50Q423 0 385 0L324 0Q289 0 262 24Q236 0 200 0L128 0Q89 0 62 27.50Q35 55 35 93L35 446Q35 485 62 512.50Q89 540 128 540L200 540Q235 540 262 516Q288 540 324 540L385 540Q424 540 451 512.50Q478 485 478 447L478 258M231 90L231 447Q230 459 221 468Q212 477 200 477L128 477Q115 477 106 468Q97 459 97 446L97 93Q97 80 106 71Q115 62 128 62L200 62Q212 62 221.50 70Q231 78 231 90M293 446L293 320L416 320L416 446Q416 459 406.50 468Q397 477 385 477L323 477Q310 477 301.50 468Q293 459 293 446Z"  horiz-adv-x="513" vert-adv-y="1000"  />

      
      <glyph glyph-name="uni0154" unicode="&#x0154;" d="M106 408L157 408Q217 408 217 472L217 606Q217 617 208.50 625.50Q200 634 189 634L106 634L106 408M40 700L189 700Q227 700 255 672Q283 644 283 606L283 468Q283 405 224 377Q283 364 283 302L283 0L217 0L217 297Q217 347 167 347L106 347L106 0L40 0L40 700M190 854L220 816L131 750L101 788L190 854Z"  horiz-adv-x="323" vert-adv-y="1000"  />

      
      <glyph glyph-name="uni0155" unicode="&#x0155;" d="M196 483L196 545Q134 545 97 517L87 540L35 540L35 0L97 0L97 341Q97 375 99.50 396Q102 417 111.50 439Q121 461 142 471.50Q163 482 196 483M131 700L161 662L72 596L42 634L131 700Z"  horiz-adv-x="216" vert-adv-y="1000"  />

      
      <glyph glyph-name="uni0156" unicode="&#x0156;" d="M106 408L157 408Q217 408 217 472L217 606Q217 617 208.50 625.50Q200 634 189 634L106 634L106 408M40 700L189 700Q227 700 255 672Q283 644 283 606L283 468Q283 405 224 377Q283 364 283 302L283 0L217 0L217 297Q217 347 167 347L106 347L106 0L40 0L40 700M191-32L131-32L131-93L153-93L131-155L154-155L191-93L191-32Z"  horiz-adv-x="323" vert-adv-y="1000"  />

      
      <glyph glyph-name="uni0157" unicode="&#x0157;" d="M196 545L196 483Q163 482 142 471.50Q121 461 111.50 439Q102 417 99.50 396Q97 375 97 341L97 0L35 0L35 540L87 540L97 517Q134 545 196 545M71-32L131-32L131-93L94-155L71-155L93-93L71-93L71-32Z"  horiz-adv-x="216" vert-adv-y="1000"  />

      
      <glyph glyph-name="uni0158" unicode="&#x0158;" d="M106 408L157 408Q217 408 217 472L217 606Q217 617 208.50 625.50Q200 634 189 634L106 634L106 408M40 700L189 700Q227 700 255 672Q283 644 283 606L283 468Q283 405 224 377Q283 364 283 302L283 0L217 0L217 297Q217 347 167 347L106 347L106 0L40 0L40 700M45 806L75 844L141 802L207 844L237 806L148 750L135 750L45 806Z"  horiz-adv-x="323" vert-adv-y="1000"  />

      
      <glyph glyph-name="uni0159" unicode="&#x0159;" d="M196 483L196 545Q134 545 97 517L87 540L35 540L35 0L97 0L97 341Q97 375 99.50 396Q102 417 111.50 439Q121 461 142 471.50Q163 482 196 483M15 662L45 700L111 658L177 700L207 662L118 606L105 606L15 662Z"  horiz-adv-x="216" vert-adv-y="1000"  />

      
      <glyph glyph-name="uni015A" unicode="&#x015A;" d="M106 201L106 94Q106 82 114.50 74Q123 66 134 66L180 66Q191 66 199.50 74Q208 82 208 94L208 213Q208 255 187 280L73 419Q40 460 40 525L40 606Q40 644 68 672Q96 700 134 700L180 700Q218 700 246 672.50Q274 645 274 606L274 528L208 528L208 606Q208 617 199.50 625.50Q191 634 180 634L134 634Q123 634 114.50 625.50Q106 617 106 606L106 525Q106 484 127 458L240 319Q274 278 274 213L274 94Q274 55 246 27.50Q218 0 180 0L134 0Q95 0 67.50 27.50Q40 55 40 94L40 201L106 201M187 854L217 816L128 750L98 788L187 854Z"  horiz-adv-x="314" vert-adv-y="1000"  />

      
      <glyph glyph-name="uni015B" unicode="&#x015B;" d="M35 178L97 178L97 93Q97 80 106 71Q115 62 128 62L179 62Q192 62 201.50 71Q211 80 211 93L211 135Q211 161 190 182L76 295Q35 335 35 392L35 446Q35 485 62.50 512.50Q90 540 128 540L179 540Q218 540 245.50 512.50Q273 485 273 446L273 394L211 394L211 446Q211 459 201.50 468Q192 477 179 477L128 477Q115 477 106 468Q97 459 97 446L97 397Q97 366 121 342L238 227Q273 192 273 140L273 93Q273 55 245.50 27.50Q218 0 179 0L128 0Q90 0 62.50 27.50Q35 55 35 93L35 178M183 700L213 662L124 596L94 634L183 700Z"  horiz-adv-x="308" vert-adv-y="1000"  />

      
      </font>
</defs>
</svg>
