<?xml version="1.0" standalone="no"?>
  <!DOCTYPE svg PUBLIC "-//W3C//DTD SVG 1.1//EN" "http://www.w3.org/Graphics/SVG/1.1/DTD/svg11.dtd" >
  <svg>
  <metadata>
  Created by font-carrier
  </metadata>
  <defs>
  <font id="IdealistSans" horiz-adv-x="6435" vert-adv-y="6435" >
    <font-face
      
      font-family="Idealist Sans"
      
      font-weight="400"
      
      font-stretch="normal"
      
      units-per-em="1000"
      
      ascent="750"
      
      descent="-250"
      
    />
      <missing-glyph />

      

      
      <glyph glyph-name="uni41" unicode="&#x41;" d="M406 650L684 0L585 0L500 197L201 197L120 0L22 0L301 650L406 650M232 275L470 275L356 558L347 558L232 275Z"  horiz-adv-x="707" vert-adv-y="1000"  />

      
      <glyph glyph-name="unic6" unicode="&#xc6;" d="M894 650L894 571L571 571L571 377L861 377L861 299L571 299L571 79L908 79L908 0L475 0L475 140L203 140L117 0L15 0L405 650L894 650M245 219L475 219L475 564L448 564L245 219Z"  horiz-adv-x="951" vert-adv-y="1000"  />

      
      <glyph glyph-name="unic1" unicode="&#xc1;" d="M406 650L684 0L585 0L500 197L201 197L120 0L22 0L301 650L406 650M232 275L470 275L356 558L347 558L232 275M416 881L494 834L396 698L327 698L416 881Z"  horiz-adv-x="707" vert-adv-y="1000"  />

      
      <glyph glyph-name="uni0102" unicode="&#x0102;" d="M406 650L684 0L585 0L500 197L201 197L120 0L22 0L301 650L406 650M232 275L470 275L356 558L347 558L232 275M257 829Q271 800 296.50 785Q322 770 353 770Q421 770 450 829L510 802Q493 749 451.50 723Q410 697 353 697Q297 697 254.50 724Q212 751 197 802L257 829Z"  horiz-adv-x="707" vert-adv-y="1000"  />

      
      <glyph glyph-name="unic2" unicode="&#xc2;" d="M406 650L684 0L585 0L500 197L201 197L120 0L22 0L301 650L406 650M232 275L470 275L356 558L347 558L232 275M353 768L221 682L200 736L341 855L364 855L506 736L485 682L353 768Z"  horiz-adv-x="707" vert-adv-y="1000"  />

      
      <glyph glyph-name="unic4" unicode="&#xc4;" d="M406 650L684 0L585 0L500 197L201 197L120 0L22 0L301 650L406 650M232 275L470 275L356 558L347 558L232 275M243 828Q274 828 290.50 811Q307 794 307 767Q307 741 290.50 724Q274 707 243 707Q214 707 197.50 724Q181 741 181 767Q181 794 197.50 811Q214 828 243 828M462 828Q491 828 508 811Q525 794 525 767Q525 741 508 724Q491 707 462 707Q433 707 416 724Q399 741 399 767Q399 794 416 811Q433 828 462 828Z"  horiz-adv-x="707" vert-adv-y="1000"  />

      
      <glyph glyph-name="unic0" unicode="&#xc0;" d="M406 650L684 0L585 0L500 197L201 197L120 0L22 0L301 650L406 650M232 275L470 275L356 558L347 558L232 275M379 698L310 698L212 834L290 881L379 698Z"  horiz-adv-x="707" vert-adv-y="1000"  />

      
      <glyph glyph-name="uni0100" unicode="&#x0100;" d="M406 650L684 0L585 0L500 197L201 197L120 0L22 0L301 650L406 650M232 275L470 275L356 558L347 558L232 275M516 784L516 711L190 711L190 784L516 784Z"  horiz-adv-x="707" vert-adv-y="1000"  />

      
      <glyph glyph-name="uni0104" unicode="&#x0104;" d="M404 650L682 0Q650-17 639-34.50Q628-52 628-72Q628-89 638.50-102.50Q649-116 677-116Q684-116 691.50-115Q699-114 708-111L692-176Q682-178 672.50-179Q663-180 655-180Q607-180 579-155.50Q551-131 551-93Q551-68 564.50-41.50Q578-15 608 0L585 0L500 197L200 197L120 0L25 0L304 650L404 650M230 275L470 275L356 558L345 558L230 275Z"  horiz-adv-x="707" vert-adv-y="1000"  />

      
      <glyph glyph-name="unic5" unicode="&#xc5;" d="M406 650L684 0L585 0L500 197L201 197L120 0L22 0L301 650L406 650M232 275L470 275L356 558L347 558L232 275M353 674Q301 674 268.50 705.50Q236 737 236 786Q236 809 245 829.50Q254 850 269.50 865Q285 880 306.50 888.50Q328 897 353 897Q378 897 399.50 888.50Q421 880 436.50 865Q452 850 461 829.50Q470 809 470 786Q470 736 437 705Q404 674 353 674M409 786Q409 810 393 825.50Q377 841 353 841Q329 841 312.50 825.50Q296 810 296 786Q296 762 312.50 746Q329 730 353 730Q377 730 393 746Q409 762 409 786Z"  horiz-adv-x="707" vert-adv-y="1000"  />

      
      <glyph glyph-name="unic3" unicode="&#xc3;" d="M406 650L684 0L585 0L500 197L201 197L120 0L22 0L301 650L406 650M232 275L470 275L356 558L347 558L232 275M172 765Q194 787 224.50 798.50Q255 810 289 810Q313 810 330 804Q347 798 362 791.50Q377 785 391.50 779Q406 773 426 773Q447 773 462 779Q477 785 494 802L535 754Q492 699 427 699Q404 699 386 705Q368 711 351 718.50Q334 726 317.50 732Q301 738 283 738Q234 738 200 699L172 765Z"  horiz-adv-x="707" vert-adv-y="1000"  />

      
      <glyph glyph-name="uni42" unicode="&#x42;" d="M292 650Q337 650 377.50 640.50Q418 631 448 610Q478 589 496 556Q514 523 514 477Q514 439 498.50 408Q483 377 448 357L448 353Q559 297 559 185Q559 140 540 105.50Q521 71 489.50 47.50Q458 24 416 12Q374 0 329 0L65 0L65 650L292 650M159 77L320 77Q348 77 374.50 82.50Q401 88 421 101Q441 114 453 135Q465 156 465 187Q465 247 427 276.50Q389 306 328 306L159 306L159 77M159 380L307 380Q362 380 391.50 405.50Q421 431 421 474Q421 525 388.50 549.50Q356 574 302 574L159 574L159 380Z"  horiz-adv-x="601" vert-adv-y="1000"  />

      
      <glyph glyph-name="uni43" unicode="&#x43;" d="M584 518Q536 553 490.50 569Q445 585 391 585Q333 585 285.50 565.50Q238 546 204.50 511.50Q171 477 153 429.50Q135 382 135 326Q135 263 155 215.50Q175 168 209.50 135.50Q244 103 290.50 87Q337 71 390 71Q420 71 446 74Q472 77 496 84.50Q520 92 544 104Q568 116 594 134L622 52Q568 15 511.50 1Q455-13 380-13Q315-13 253.50 7.50Q192 28 144.50 69.50Q97 111 68.50 175Q40 239 40 326Q40 401 68 463.50Q96 526 144 570Q192 614 256 638.50Q320 663 391 663Q464 663 517.50 646Q571 629 622 591L584 518Z"  horiz-adv-x="660" vert-adv-y="1000"  />

      
      <glyph glyph-name="uni0106" unicode="&#x0106;" d="M584 518Q536 553 490.50 569Q445 585 391 585Q333 585 285.50 565.50Q238 546 204.50 511.50Q171 477 153 429.50Q135 382 135 326Q135 263 155 215.50Q175 168 209.50 135.50Q244 103 290.50 87Q337 71 390 71Q420 71 446 74Q472 77 496 84.50Q520 92 544 104Q568 116 594 134L622 52Q568 15 511.50 1Q455-13 380-13Q315-13 253.50 7.50Q192 28 144.50 69.50Q97 111 68.50 175Q40 239 40 326Q40 401 68 463.50Q96 526 144 570Q192 614 256 638.50Q320 663 391 663Q464 663 517.50 646Q571 629 622 591L584 518M440 881L518 834L420 698L351 698L440 881Z"  horiz-adv-x="660" vert-adv-y="1000"  />

      
      <glyph glyph-name="uni010C" unicode="&#x010C;" d="M584 518Q536 553 490.50 569Q445 585 391 585Q333 585 285.50 565.50Q238 546 204.50 511.50Q171 477 153 429.50Q135 382 135 326Q135 263 155 215.50Q175 168 209.50 135.50Q244 103 290.50 87Q337 71 390 71Q420 71 446 74Q472 77 496 84.50Q520 92 544 104Q568 116 594 134L622 52Q568 15 511.50 1Q455-13 380-13Q315-13 253.50 7.50Q192 28 144.50 69.50Q97 111 68.50 175Q40 239 40 326Q40 401 68 463.50Q96 526 144 570Q192 614 256 638.50Q320 663 391 663Q464 663 517.50 646Q571 629 622 591L584 518M395 778L527 864L548 810L407 691L384 691L242 810L263 864L395 778Z"  horiz-adv-x="660" vert-adv-y="1000"  />

      
      <glyph glyph-name="unic7" unicode="&#xc7;" d="M584 518Q536 553 490.50 569Q445 585 391 585Q333 585 285.50 565.50Q238 546 204.50 511.50Q171 477 153 429.50Q135 382 135 326Q135 263 155 215.50Q175 168 209.50 135.50Q244 103 290.50 87Q337 71 390 71Q453 71 505 88.50Q557 106 610 146L622 52Q597 35 572 23Q547 11 520 3.50Q493-4 464-8Q435-12 402-13L398-48Q433-48 452-66.50Q471-85 471-118Q471-146 456.50-167.50Q442-189 419.50-204.50Q397-220 369.50-230Q342-240 317-244L304-183Q345-176 372-161.50Q399-147 399-120Q399-93 363-93L330-93L333-10Q274-4 221 19.50Q168 43 128 84.50Q88 126 64 186Q40 246 40 326Q40 401 68 463.50Q96 526 144 570Q192 614 256 638.50Q320 663 391 663Q464 663 517.50 646Q571 629 622 591L584 518Z"  horiz-adv-x="660" vert-adv-y="1000"  />

      
      <glyph glyph-name="uni0108" unicode="&#x0108;" d="M584 518Q536 553 490.50 569Q445 585 391 585Q333 585 285.50 565.50Q238 546 204.50 511.50Q171 477 153 429.50Q135 382 135 326Q135 263 155 215.50Q175 168 209.50 135.50Q244 103 290.50 87Q337 71 390 71Q420 71 446 74Q472 77 496 84.50Q520 92 544 104Q568 116 594 134L622 52Q568 15 511.50 1Q455-13 380-13Q315-13 253.50 7.50Q192 28 144.50 69.50Q97 111 68.50 175Q40 239 40 326Q40 401 68 463.50Q96 526 144 570Q192 614 256 638.50Q320 663 391 663Q464 663 517.50 646Q571 629 622 591L584 518M391 777L259 691L238 745L379 864L402 864L544 745L523 691L391 777Z"  horiz-adv-x="660" vert-adv-y="1000"  />

      
      <glyph glyph-name="uni010A" unicode="&#x010A;" d="M584 518Q536 553 490.50 569Q445 585 391 585Q333 585 285.50 565.50Q238 546 204.50 511.50Q171 477 153 429.50Q135 382 135 326Q135 263 155 215.50Q175 168 209.50 135.50Q244 103 290.50 87Q337 71 390 71Q420 71 446 74Q472 77 496 84.50Q520 92 544 104Q568 116 594 134L622 52Q568 15 511.50 1Q455-13 380-13Q315-13 253.50 7.50Q192 28 144.50 69.50Q97 111 68.50 175Q40 239 40 326Q40 401 68 463.50Q96 526 144 570Q192 614 256 638.50Q320 663 391 663Q464 663 517.50 646Q571 629 622 591L584 518M397 840Q429 840 446.50 821Q464 802 464 774Q464 745 446.50 728Q429 711 397 711Q365 711 348 728Q331 745 331 774Q331 802 348 821Q365 840 397 840Z"  horiz-adv-x="660" vert-adv-y="1000"  />

      
      <glyph glyph-name="uni44" unicode="&#x44;" d="M306 650Q388 650 453.50 627.50Q519 605 565 563Q611 521 635.50 460Q660 399 660 321Q660 241 632 181Q604 121 554.50 81Q505 41 436 20.50Q367 0 286 0L65 0L65 650L306 650M160 79L294 79Q352 79 402 92Q452 105 488 134Q524 163 544.50 209Q565 255 565 321Q565 388 546.50 435.50Q528 483 494 513.50Q460 544 412 558Q364 572 306 572L160 572L160 79Z"  horiz-adv-x="700" vert-adv-y="1000"  />

      
      <glyph glyph-name="uni010E" unicode="&#x010E;" d="M306 650Q388 650 453.50 627.50Q519 605 565 563Q611 521 635.50 460Q660 399 660 321Q660 241 632 181Q604 121 554.50 81Q505 41 436 20.50Q367 0 286 0L65 0L65 650L306 650M160 79L294 79Q352 79 402 92Q452 105 488 134Q524 163 544.50 209Q565 255 565 321Q565 388 546.50 435.50Q528 483 494 513.50Q460 544 412 558Q364 572 306 572L160 572L160 79M312 778L444 864L465 810L324 691L301 691L159 810L180 864L312 778Z"  horiz-adv-x="700" vert-adv-y="1000"  />

      
      <glyph glyph-name="uni0110" unicode="&#x0110;" d="M312 650Q394 650 459.50 627.50Q525 605 571 563Q617 521 641.50 460Q666 399 666 321Q666 241 638 181Q610 121 560.50 81Q511 41 442 20.50Q373 0 292 0L71 0L71 294L5 294L5 369L71 369L71 650L312 650M166 369L329 369L329 294L166 294L166 79L300 79Q358 79 408 92Q458 105 494 134Q530 163 550.50 209Q571 255 571 321Q571 388 552.50 435.50Q534 483 500 513.50Q466 544 418 558Q370 572 312 572L166 572L166 369Z"  horiz-adv-x="706" vert-adv-y="1000"  />

      
      <glyph glyph-name="uni2206" unicode="&#x2206;" d="M388 650L625 50L625 0L35 0L35 50L285 650L388 650M142 77L518 77L338 555L327 555L142 77Z"  horiz-adv-x="660" vert-adv-y="1000"  />

      
      <glyph glyph-name="uni45" unicode="&#x45;" d="M65 650L484 650L484 571L161 571L161 377L451 377L451 299L161 299L161 79L498 79L498 0L65 0L65 650Z"  horiz-adv-x="541" vert-adv-y="1000"  />

      
      <glyph glyph-name="unic9" unicode="&#xc9;" d="M65 650L484 650L484 571L161 571L161 377L451 377L451 299L161 299L161 79L498 79L498 0L65 0L65 650M329 881L407 834L309 698L240 698L329 881Z"  horiz-adv-x="541" vert-adv-y="1000"  />

      
      <glyph glyph-name="uni0114" unicode="&#x0114;" d="M65 650L484 650L484 571L161 571L161 377L451 377L451 299L161 299L161 79L498 79L498 0L65 0L65 650M187 829Q201 800 226.50 785Q252 770 283 770Q351 770 380 829L440 802Q423 749 381.50 723Q340 697 283 697Q227 697 184.50 724Q142 751 127 802L187 829Z"  horiz-adv-x="541" vert-adv-y="1000"  />

      
      <glyph glyph-name="uni011A" unicode="&#x011A;" d="M65 650L484 650L484 571L161 571L161 377L451 377L451 299L161 299L161 79L498 79L498 0L65 0L65 650M285 778L417 864L438 810L297 691L274 691L132 810L153 864L285 778Z"  horiz-adv-x="541" vert-adv-y="1000"  />

      
      <glyph glyph-name="unica" unicode="&#xca;" d="M65 650L484 650L484 571L161 571L161 377L451 377L451 299L161 299L161 79L498 79L498 0L65 0L65 650M285 777L153 691L132 745L273 864L296 864L438 745L417 691L285 777Z"  horiz-adv-x="541" vert-adv-y="1000"  />

      
      <glyph glyph-name="unicb" unicode="&#xcb;" d="M65 650L484 650L484 571L161 571L161 377L451 377L451 299L161 299L161 79L498 79L498 0L65 0L65 650M171 828Q202 828 218.50 811Q235 794 235 767Q235 741 218.50 724Q202 707 171 707Q142 707 125.50 724Q109 741 109 767Q109 794 125.50 811Q142 828 171 828M390 828Q419 828 436 811Q453 794 453 767Q453 741 436 724Q419 707 390 707Q361 707 344 724Q327 741 327 767Q327 794 344 811Q361 828 390 828Z"  horiz-adv-x="541" vert-adv-y="1000"  />

      
      <glyph glyph-name="uni0116" unicode="&#x0116;" d="M65 650L484 650L484 571L161 571L161 377L451 377L451 299L161 299L161 79L498 79L498 0L65 0L65 650M283 826Q315 826 332.50 807Q350 788 350 760Q350 731 332.50 714Q315 697 283 697Q251 697 234 714Q217 731 217 760Q217 788 234 807Q251 826 283 826Z"  horiz-adv-x="541" vert-adv-y="1000"  />

      
      <glyph glyph-name="unic8" unicode="&#xc8;" d="M65 650L484 650L484 571L161 571L161 377L451 377L451 299L161 299L161 79L498 79L498 0L65 0L65 650M324 698L255 698L157 834L235 881L324 698Z"  horiz-adv-x="541" vert-adv-y="1000"  />

      
      <glyph glyph-name="uni0112" unicode="&#x0112;" d="M65 650L484 650L484 571L161 571L161 377L451 377L451 299L161 299L161 79L498 79L498 0L65 0L65 650M441 784L441 711L115 711L115 784L441 784Z"  horiz-adv-x="541" vert-adv-y="1000"  />

      
      <glyph glyph-name="uni0118" unicode="&#x0118;" d="M65 650L484 650L484 571L161 571L161 377L451 377L451 299L161 299L161 79L498 79L498 0Q466-17 455-34.50Q444-52 444-72Q444-89 454.50-102.50Q465-116 493-116Q500-116 507.50-115Q515-114 524-111L508-176Q498-178 488.50-179Q479-180 471-180Q423-180 395-155.50Q367-131 367-93Q367-68 380.50-41.50Q394-15 424 0L65 0L65 650Z"  horiz-adv-x="541" vert-adv-y="1000"  />

      
      <glyph glyph-name="unid0" unicode="&#xd0;" d="M312 650Q394 650 459.50 627.50Q525 605 571 563Q617 521 641.50 460Q666 399 666 321Q666 241 638 181Q610 121 560.50 81Q511 41 442 20.50Q373 0 292 0L71 0L71 294L5 294L5 369L71 369L71 650L312 650M166 369L329 369L329 294L166 294L166 79L300 79Q358 79 408 92Q458 105 494 134Q530 163 550.50 209Q571 255 571 321Q571 388 552.50 435.50Q534 483 500 513.50Q466 544 418 558Q370 572 312 572L166 572L166 369Z"  horiz-adv-x="706" vert-adv-y="1000"  />

      
      <glyph glyph-name="uni20AC" unicode="&#x20AC;" d="M452 286L448 217L174 217Q186 179 207.50 150.50Q229 122 258 102.50Q287 83 322.50 73.50Q358 64 398 64Q455 64 500.50 78Q546 92 594 124L621 51Q572 16 515.50 1.50Q459-13 389-13Q337-13 287.50 0.50Q238 14 197 42.50Q156 71 126 114.50Q96 158 83 217L25 217L29 286L452 286M91 395Q106 444 136 483.50Q166 523 206.50 551Q247 579 296.50 593.50Q346 608 399 608Q466 608 515 592Q564 576 611 542L576 475Q532 507 490 521.50Q448 536 399 536Q318 536 261.50 498.50Q205 461 180 395L457 395L453 326L34 326L38 395L91 395Z"  horiz-adv-x="649" vert-adv-y="1000"  />

      
      <glyph glyph-name="uni46" unicode="&#x46;" d="M484 650L484 573L161 573L161 374L451 374L451 297L161 297L161 0L65 0L65 650L484 650Z"  horiz-adv-x="539" vert-adv-y="1000"  />

      
      <glyph glyph-name="uni47" unicode="&#x47;" d="M645 347L645 67Q588 25 522 6Q456-13 377-13Q308-13 246.50 9Q185 31 139.50 73.50Q94 116 67 179Q40 242 40 325Q40 400 67.50 462.50Q95 525 142.50 569.50Q190 614 253 638.50Q316 663 388 663Q461 663 520.50 646Q580 629 632 591L594 518Q546 553 494 568.50Q442 584 388 584Q330 584 283 564.50Q236 545 203 510.50Q170 476 152.50 428.50Q135 381 135 325Q135 266 154.50 218.50Q174 171 208 138Q242 105 288 87Q334 69 387 69Q438 69 477 77.50Q516 86 553 106L553 272L383 272L383 347L645 347Z"  horiz-adv-x="700" vert-adv-y="1000"  />

      
      <glyph glyph-name="uni011E" unicode="&#x011E;" d="M645 347L645 67Q588 25 522 6Q456-13 377-13Q308-13 246.50 9Q185 31 139.50 73.50Q94 116 67 179Q40 242 40 325Q40 400 67.50 462.50Q95 525 142.50 569.50Q190 614 253 638.50Q316 663 388 663Q461 663 520.50 646Q580 629 632 591L594 518Q546 553 494 568.50Q442 584 388 584Q330 584 283 564.50Q236 545 203 510.50Q170 476 152.50 428.50Q135 381 135 325Q135 266 154.50 218.50Q174 171 208 138Q242 105 288 87Q334 69 387 69Q438 69 477 77.50Q516 86 553 106L553 272L383 272L383 347L645 347M288 839Q302 810 327.50 795Q353 780 384 780Q452 780 481 839L541 812Q524 759 482.50 733Q441 707 384 707Q328 707 285.50 734Q243 761 228 812L288 839Z"  horiz-adv-x="700" vert-adv-y="1000"  />

      
      <glyph glyph-name="uni011C" unicode="&#x011C;" d="M645 347L645 67Q588 25 522 6Q456-13 377-13Q308-13 246.50 9Q185 31 139.50 73.50Q94 116 67 179Q40 242 40 325Q40 400 67.50 462.50Q95 525 142.50 569.50Q190 614 253 638.50Q316 663 388 663Q461 663 520.50 646Q580 629 632 591L594 518Q546 553 494 568.50Q442 584 388 584Q330 584 283 564.50Q236 545 203 510.50Q170 476 152.50 428.50Q135 381 135 325Q135 266 154.50 218.50Q174 171 208 138Q242 105 288 87Q334 69 387 69Q438 69 477 77.50Q516 86 553 106L553 272L383 272L383 347L645 347M382 777L250 691L229 745L370 864L393 864L535 745L514 691L382 777Z"  horiz-adv-x="700" vert-adv-y="1000"  />

      
      <glyph glyph-name="uni0122" unicode="&#x0122;" d="M645 347L645 67Q588 25 522 6Q456-13 377-13Q308-13 246.50 9Q185 31 139.50 73.50Q94 116 67 179Q40 242 40 325Q40 400 67.50 462.50Q95 525 142.50 569.50Q190 614 253 638.50Q316 663 388 663Q461 663 520.50 646Q580 629 632 591L594 518Q546 553 494 568.50Q442 584 388 584Q330 584 283 564.50Q236 545 203 510.50Q170 476 152.50 428.50Q135 381 135 325Q135 266 154.50 218.50Q174 171 208 138Q242 105 288 87Q334 69 387 69Q438 69 477 77.50Q516 86 553 106L553 272L383 272L383 347L645 347M329-229Q391-205 391-161Q361-161 347.50-144.50Q334-128 334-107Q334-97 337-87Q340-77 347-68.50Q354-60 365.50-54.50Q377-49 394-49Q429-49 447-74.50Q465-100 465-137Q465-156 458-176.50Q451-197 437.50-215.50Q424-234 403-249.50Q382-265 354-274L329-229Z"  horiz-adv-x="700" vert-adv-y="1000"  />

      
      <glyph glyph-name="uni0120" unicode="&#x0120;" d="M645 347L645 67Q588 25 522 6Q456-13 377-13Q308-13 246.50 9Q185 31 139.50 73.50Q94 116 67 179Q40 242 40 325Q40 400 67.50 462.50Q95 525 142.50 569.50Q190 614 253 638.50Q316 663 388 663Q461 663 520.50 646Q580 629 632 591L594 518Q546 553 494 568.50Q442 584 388 584Q330 584 283 564.50Q236 545 203 510.50Q170 476 152.50 428.50Q135 381 135 325Q135 266 154.50 218.50Q174 171 208 138Q242 105 288 87Q334 69 387 69Q438 69 477 77.50Q516 86 553 106L553 272L383 272L383 347L645 347M393 840Q425 840 442.50 821Q460 802 460 774Q460 745 442.50 728Q425 711 393 711Q361 711 344 728Q327 745 327 774Q327 802 344 821Q361 840 393 840Z"  horiz-adv-x="700" vert-adv-y="1000"  />

      
      <glyph glyph-name="uni48" unicode="&#x48;" d="M604 650L604 0L509 0L509 303L160 303L160 0L65 0L65 650L160 650L160 380L509 380L509 650L604 650Z"  horiz-adv-x="669" vert-adv-y="1000"  />

      
      <glyph glyph-name="uni0126" unicode="&#x0126;" d="M160 650L160 548L509 548L509 650L604 650L604 548L649 548L649 478L604 478L604 0L509 0L509 303L160 303L160 0L65 0L65 478L20 478L20 548L65 548L65 650L160 650M160 380L509 380L509 478L160 478L160 380Z"  horiz-adv-x="669" vert-adv-y="1000"  />

      
      <glyph glyph-name="uni0124" unicode="&#x0124;" d="M604 650L604 0L509 0L509 303L160 303L160 0L65 0L65 650L160 650L160 380L509 380L509 650L604 650M334 777L202 691L181 745L322 864L345 864L487 745L466 691L334 777Z"  horiz-adv-x="669" vert-adv-y="1000"  />

      
      <glyph glyph-name="uni49" unicode="&#x49;" d="M160 650L160 0L65 0L65 650L160 650Z"  horiz-adv-x="225" vert-adv-y="1000"  />

      
      <glyph glyph-name="unicd" unicode="&#xcd;" d="M160 650L160 0L65 0L65 650L160 650M169 881L247 834L149 698L80 698L169 881Z"  horiz-adv-x="225" vert-adv-y="1000"  />

      
      <glyph glyph-name="uni012C" unicode="&#x012C;" d="M160 650L160 0L65 0L65 650L160 650M17 829Q31 800 56.50 785Q82 770 113 770Q181 770 210 829L270 802Q253 749 211.50 723Q170 697 113 697Q57 697 14.50 724Q-28 751-43 802L17 829Z"  horiz-adv-x="225" vert-adv-y="1000"  />

      
      <glyph glyph-name="unice" unicode="&#xce;" d="M160 650L160 0L65 0L65 650L160 650M113 768L-19 682L-40 736L101 855L124 855L266 736L245 682L113 768Z"  horiz-adv-x="225" vert-adv-y="1000"  />

      
      <glyph glyph-name="unicf" unicode="&#xcf;" d="M160 650L160 0L65 0L65 650L160 650M3 828Q34 828 50.50 811Q67 794 67 767Q67 741 50.50 724Q34 707 3 707Q-26 707-42.50 724Q-59 741-59 767Q-59 794-42.50 811Q-26 828 3 828M222 828Q251 828 268 811Q285 794 285 767Q285 741 268 724Q251 707 222 707Q193 707 176 724Q159 741 159 767Q159 794 176 811Q193 828 222 828Z"  horiz-adv-x="225" vert-adv-y="1000"  />

      
      <glyph glyph-name="uni0130" unicode="&#x0130;" d="M160 650L160 0L65 0L65 650L160 650M116 841Q148 841 165.50 822Q183 803 183 775Q183 746 165.50 729Q148 712 116 712Q84 712 67 729Q50 746 50 775Q50 803 67 822Q84 841 116 841Z"  horiz-adv-x="225" vert-adv-y="1000"  />

      
      <glyph glyph-name="unicc" unicode="&#xcc;" d="M160 650L160 0L65 0L65 650L160 650M149 698L80 698L-18 834L60 881L149 698Z"  horiz-adv-x="225" vert-adv-y="1000"  />

      
      <glyph glyph-name="uni012E" unicode="&#x012E;" d="M160 650L160 0Q128-17 117-34.50Q106-52 106-72Q106-89 116.50-102.50Q127-116 155-116Q162-116 169.50-115Q177-114 186-111L170-176Q160-178 150.50-179Q141-180 133-180Q85-180 57-155.50Q29-131 29-93Q29-68 42.50-41.50Q56-15 86 0L65 0L65 650L160 650Z"  horiz-adv-x="225" vert-adv-y="1000"  />

      
      <glyph glyph-name="uni0128" unicode="&#x0128;" d="M160 650L160 0L65 0L65 650L160 650M-68 765Q-46 787-15.50 798.50Q15 810 49 810Q73 810 90 804Q107 798 122 791.50Q137 785 151.50 779Q166 773 186 773Q207 773 222 779Q237 785 254 802L295 754Q252 699 187 699Q164 699 146 705Q128 711 111 718.50Q94 726 77.50 732Q61 738 43 738Q-6 738-40 699L-68 765Z"  horiz-adv-x="225" vert-adv-y="1000"  />

      
      <glyph glyph-name="uni4a" unicode="&#x4a;" d="M179 650L179 18Q179-49 162-95.50Q145-142 114.50-172.50Q84-203 42-219.50Q0-236-49-243L-79-165Q-39-159-8-148.50Q23-138 43.50-118Q64-98 74.50-64.50Q85-31 85 21L85 650L179 650Z"  horiz-adv-x="244" vert-adv-y="1000"  />

      
      <glyph glyph-name="uni0134" unicode="&#x0134;" d="M179 650L179 18Q179-49 162-95.50Q145-142 114.50-172.50Q84-203 42-219.50Q0-236-49-243L-79-165Q-39-159-8-148.50Q23-138 43.50-118Q64-98 74.50-64.50Q85-31 85 21L85 650L179 650M134 769L2 683L-19 737L122 856L145 856L287 737L266 683L134 769Z"  horiz-adv-x="244" vert-adv-y="1000"  />

      
      <glyph glyph-name="uni4b" unicode="&#x4b;" d="M161 650L161 309L474 650L593 650L341 385L620 0L507 0L278 320L161 209L161 0L65 0L65 650L161 650Z"  horiz-adv-x="635" vert-adv-y="1000"  />

      
      <glyph glyph-name="uni0136" unicode="&#x0136;" d="M161 650L161 309L474 650L593 650L341 385L620 0L507 0L278 320L161 209L161 0L65 0L65 650L161 650M237-170Q299-146 299-102Q269-102 255.50-85.50Q242-69 242-48Q242-38 245-28Q248-18 255-9.50Q262-1 273.50 4.50Q285 10 302 10Q337 10 355-15.50Q373-41 373-78Q373-97 366-117.50Q359-138 345.50-156.50Q332-175 311-190.50Q290-206 262-215L237-170Z"  horiz-adv-x="634" vert-adv-y="1000"  />

      
      <glyph glyph-name="uni4c" unicode="&#x4c;" d="M467 80L467 0L65 0L65 650L161 650L161 80L467 80Z"  horiz-adv-x="504" vert-adv-y="1000"  />

      
      <glyph glyph-name="uni0139" unicode="&#x0139;" d="M467 80L467 0L65 0L65 650L161 650L161 80L467 80M167 881L245 834L147 698L78 698L167 881Z"  horiz-adv-x="504" vert-adv-y="1000"  />

      
      <glyph glyph-name="uni013D" unicode="&#x013D;" d="M467 80L467 0L65 0L65 650L161 650L161 80L467 80M290 472Q352 496 352 540Q322 540 308.50 556.50Q295 573 295 594Q295 604 298 614Q301 624 308 632.50Q315 641 326.50 646.50Q338 652 355 652Q390 652 408 626.50Q426 601 426 564Q426 545 419 524.50Q412 504 398.50 485.50Q385 467 364 451.50Q343 436 315 427L290 472Z"  horiz-adv-x="504" vert-adv-y="1000"  />

      
      <glyph glyph-name="uni013B" unicode="&#x013B;" d="M467 80L467 0L65 0L65 650L161 650L161 80L467 80M192-223Q254-199 254-155Q224-155 210.50-138.50Q197-122 197-101Q197-91 200-81Q203-71 210-62.50Q217-54 228.50-48.50Q240-43 257-43Q292-43 310-68.50Q328-94 328-131Q328-150 321-170.50Q314-191 300.50-209.50Q287-228 266-243.50Q245-259 217-268L192-223Z"  horiz-adv-x="504" vert-adv-y="1000"  />

      
      <glyph glyph-name="uni013F" unicode="&#x013F;" d="M467 80L467 0L65 0L65 650L161 650L161 80L467 80M351 417Q383 417 400.50 398Q418 379 418 351Q418 322 400.50 305Q383 288 351 288Q319 288 302 305Q285 322 285 351Q285 379 302 398Q319 417 351 417Z"  horiz-adv-x="504" vert-adv-y="1000"  />

      
      <glyph glyph-name="uni0141" unicode="&#x0141;" d="M484 80L484 0L82 0L82 267L26 245L0 310L82 342L82 650L178 650L178 380L292 425L318 360L178 305L178 80L484 80Z"  horiz-adv-x="521" vert-adv-y="1000"  />

      
      <glyph glyph-name="uni4d" unicode="&#x4d;" d="M182 650L380 354L582 650L696 650L696 0L604 0L604 368L606 532L597 532L398 241L359 241L162 532L154 532L155 368L155 0L65 0L65 650L182 650Z"  horiz-adv-x="761" vert-adv-y="1000"  />

      
      <glyph glyph-name="uni4e" unicode="&#x4e;" d="M164 650L581 119L578 289L578 650L669 650L669 0L567 0L149 533L155 335L155 0L65 0L65 650L164 650Z"  horiz-adv-x="734" vert-adv-y="1000"  />

      
      <glyph glyph-name="uni0143" unicode="&#x0143;" d="M164 650L581 119L578 289L578 650L669 650L669 0L567 0L149 533L155 335L155 0L65 0L65 650L164 650M418 881L496 834L398 698L329 698L418 881Z"  horiz-adv-x="734" vert-adv-y="1000"  />

      
      <glyph glyph-name="uni0147" unicode="&#x0147;" d="M164 650L581 119L578 289L578 650L669 650L669 0L567 0L149 533L155 335L155 0L65 0L65 650L164 650M367 778L499 864L520 810L379 691L356 691L214 810L235 864L367 778Z"  horiz-adv-x="734" vert-adv-y="1000"  />

      
      <glyph glyph-name="uni0145" unicode="&#x0145;" d="M164 650L581 119L578 289L578 650L669 650L669 0L567 0L149 533L155 335L155 0L65 0L65 650L164 650M285-177Q347-153 347-109Q317-109 303.50-92.50Q290-76 290-55Q290-45 293-35Q296-25 303-16.50Q310-8 321.50-2.50Q333 3 350 3Q385 3 403-22.50Q421-48 421-85Q421-104 414-124.50Q407-145 393.50-163.50Q380-182 359-197.50Q338-213 310-222L285-177Z"  horiz-adv-x="734" vert-adv-y="1000"  />

      
      <glyph glyph-name="unid1" unicode="&#xd1;" d="M164 650L581 119L578 289L578 650L669 650L669 0L567 0L149 533L155 335L155 0L65 0L65 650L164 650M186 765Q208 787 238.50 798.50Q269 810 303 810Q327 810 344 804Q361 798 376 791.50Q391 785 405.50 779Q420 773 440 773Q461 773 476 779Q491 785 508 802L549 754Q506 699 441 699Q418 699 400 705Q382 711 365 718.50Q348 726 331.50 732Q315 738 297 738Q248 738 214 699L186 765Z"  horiz-adv-x="734" vert-adv-y="1000"  />

      
      <glyph glyph-name="uni4f" unicode="&#x4f;" d="M740 325Q740 250 713 188Q686 126 638.50 81Q591 36 527 11.50Q463-13 390-13Q316-13 252.50 11.50Q189 36 141.50 81Q94 126 67 188Q40 250 40 325Q40 400 67 462Q94 524 141.50 569Q189 614 252.50 638.50Q316 663 390 663Q463 663 527 638.50Q591 614 638.50 569Q686 524 713 462Q740 400 740 325M136 325Q136 263 156.50 215Q177 167 211.50 134Q246 101 292 83.50Q338 66 390 66Q442 66 488 83.50Q534 101 568.50 134Q603 167 623.50 215Q644 263 644 325Q644 387 623.50 435Q603 483 568.50 516Q534 549 488 566.50Q442 584 390 584Q338 584 292 566.50Q246 549 211.50 516Q177 483 156.50 435Q136 387 136 325Z"  horiz-adv-x="780" vert-adv-y="1000"  />

      
      <glyph glyph-name="uni0152" unicode="&#x0152;" d="M1013 650L1013 571L694 571L694 377L980 377L980 299L694 299L694 79L1027 79L1027 0L603 0L603 89Q561 41 503 14Q445-13 370-13Q296-13 235.50 11.50Q175 36 131.50 81Q88 126 64 188Q40 250 40 325Q40 400 64 462Q88 524 131.50 569Q175 614 235.50 638.50Q296 663 370 663Q442 663 500.50 636.50Q559 610 603 562L603 650L1013 650M136 325Q136 263 153 215Q170 167 201 134Q232 101 275 83.50Q318 66 370 66Q422 66 465 83.50Q508 101 539 134Q570 167 587 215Q604 263 604 325Q604 387 587 435Q570 483 539 516Q508 549 465 566.50Q422 584 370 584Q318 584 275 566.50Q232 549 201 516Q170 483 153 435Q136 387 136 325Z"  horiz-adv-x="1070" vert-adv-y="1000"  />

      
      <glyph glyph-name="unid3" unicode="&#xd3;" d="M740 325Q740 250 713 188Q686 126 638.50 81Q591 36 527 11.50Q463-13 390-13Q316-13 252.50 11.50Q189 36 141.50 81Q94 126 67 188Q40 250 40 325Q40 400 67 462Q94 524 141.50 569Q189 614 252.50 638.50Q316 663 390 663Q463 663 527 638.50Q591 614 638.50 569Q686 524 713 462Q740 400 740 325M136 325Q136 263 156.50 215Q177 167 211.50 134Q246 101 292 83.50Q338 66 390 66Q442 66 488 83.50Q534 101 568.50 134Q603 167 623.50 215Q644 263 644 325Q644 387 623.50 435Q603 483 568.50 516Q534 549 488 566.50Q442 584 390 584Q338 584 292 566.50Q246 549 211.50 516Q177 483 156.50 435Q136 387 136 325M441 886L519 839L421 703L352 703L441 886Z"  horiz-adv-x="780" vert-adv-y="1000"  />

      
      <glyph glyph-name="uni014E" unicode="&#x014E;" d="M740 325Q740 250 713 188Q686 126 638.50 81Q591 36 527 11.50Q463-13 390-13Q316-13 252.50 11.50Q189 36 141.50 81Q94 126 67 188Q40 250 40 325Q40 400 67 462Q94 524 141.50 569Q189 614 252.50 638.50Q316 663 390 663Q463 663 527 638.50Q591 614 638.50 569Q686 524 713 462Q740 400 740 325M136 325Q136 263 156.50 215Q177 167 211.50 134Q246 101 292 83.50Q338 66 390 66Q442 66 488 83.50Q534 101 568.50 134Q603 167 623.50 215Q644 263 644 325Q644 387 623.50 435Q603 483 568.50 516Q534 549 488 566.50Q442 584 390 584Q338 584 292 566.50Q246 549 211.50 516Q177 483 156.50 435Q136 387 136 325M294 839Q308 810 333.50 795Q359 780 390 780Q458 780 487 839L547 812Q530 759 488.50 733Q447 707 390 707Q334 707 291.50 734Q249 761 234 812L294 839Z"  horiz-adv-x="780" vert-adv-y="1000"  />

      
      <glyph glyph-name="unid4" unicode="&#xd4;" d="M740 325Q740 250 713 188Q686 126 638.50 81Q591 36 527 11.50Q463-13 390-13Q316-13 252.50 11.50Q189 36 141.50 81Q94 126 67 188Q40 250 40 325Q40 400 67 462Q94 524 141.50 569Q189 614 252.50 638.50Q316 663 390 663Q463 663 527 638.50Q591 614 638.50 569Q686 524 713 462Q740 400 740 325M136 325Q136 263 156.50 215Q177 167 211.50 134Q246 101 292 83.50Q338 66 390 66Q442 66 488 83.50Q534 101 568.50 134Q603 167 623.50 215Q644 263 644 325Q644 387 623.50 435Q603 483 568.50 516Q534 549 488 566.50Q442 584 390 584Q338 584 292 566.50Q246 549 211.50 516Q177 483 156.50 435Q136 387 136 325M390 777L258 691L237 745L378 864L401 864L543 745L522 691L390 777Z"  horiz-adv-x="780" vert-adv-y="1000"  />

      
      <glyph glyph-name="unid6" unicode="&#xd6;" d="M740 325Q740 250 713 188Q686 126 638.50 81Q591 36 527 11.50Q463-13 390-13Q316-13 252.50 11.50Q189 36 141.50 81Q94 126 67 188Q40 250 40 325Q40 400 67 462Q94 524 141.50 569Q189 614 252.50 638.50Q316 663 390 663Q463 663 527 638.50Q591 614 638.50 569Q686 524 713 462Q740 400 740 325M136 325Q136 263 156.50 215Q177 167 211.50 134Q246 101 292 83.50Q338 66 390 66Q442 66 488 83.50Q534 101 568.50 134Q603 167 623.50 215Q644 263 644 325Q644 387 623.50 435Q603 483 568.50 516Q534 549 488 566.50Q442 584 390 584Q338 584 292 566.50Q246 549 211.50 516Q177 483 156.50 435Q136 387 136 325M280 828Q311 828 327.50 811Q344 794 344 767Q344 741 327.50 724Q311 707 280 707Q251 707 234.50 724Q218 741 218 767Q218 794 234.50 811Q251 828 280 828M499 828Q528 828 545 811Q562 794 562 767Q562 741 545 724Q528 707 499 707Q470 707 453 724Q436 741 436 767Q436 794 453 811Q470 828 499 828Z"  horiz-adv-x="780" vert-adv-y="1000"  />

      
      <glyph glyph-name="unid2" unicode="&#xd2;" d="M740 325Q740 250 713 188Q686 126 638.50 81Q591 36 527 11.50Q463-13 390-13Q316-13 252.50 11.50Q189 36 141.50 81Q94 126 67 188Q40 250 40 325Q40 400 67 462Q94 524 141.50 569Q189 614 252.50 638.50Q316 663 390 663Q463 663 527 638.50Q591 614 638.50 569Q686 524 713 462Q740 400 740 325M136 325Q136 263 156.50 215Q177 167 211.50 134Q246 101 292 83.50Q338 66 390 66Q442 66 488 83.50Q534 101 568.50 134Q603 167 623.50 215Q644 263 644 325Q644 387 623.50 435Q603 483 568.50 516Q534 549 488 566.50Q442 584 390 584Q338 584 292 566.50Q246 549 211.50 516Q177 483 156.50 435Q136 387 136 325M420 703L351 703L253 839L331 886L420 703Z"  horiz-adv-x="780" vert-adv-y="1000"  />

      
      <glyph glyph-name="uni0150" unicode="&#x0150;" d="M740 325Q740 250 713 188Q686 126 638.50 81Q591 36 527 11.50Q463-13 390-13Q316-13 252.50 11.50Q189 36 141.50 81Q94 126 67 188Q40 250 40 325Q40 400 67 462Q94 524 141.50 569Q189 614 252.50 638.50Q316 663 390 663Q463 663 527 638.50Q591 614 638.50 569Q686 524 713 462Q740 400 740 325M136 325Q136 263 156.50 215Q177 167 211.50 134Q246 101 292 83.50Q338 66 390 66Q442 66 488 83.50Q534 101 568.50 134Q603 167 623.50 215Q644 263 644 325Q644 387 623.50 435Q603 483 568.50 516Q534 549 488 566.50Q442 584 390 584Q338 584 292 566.50Q246 549 211.50 516Q177 483 156.50 435Q136 387 136 325M345 893L427 863L358 704L294 704L345 893M483 883L559 836L466 704L399 704L483 883Z"  horiz-adv-x="780" vert-adv-y="1000"  />

      
      <glyph glyph-name="uni014C" unicode="&#x014C;" d="M740 325Q740 250 713 188Q686 126 638.50 81Q591 36 527 11.50Q463-13 390-13Q316-13 252.50 11.50Q189 36 141.50 81Q94 126 67 188Q40 250 40 325Q40 400 67 462Q94 524 141.50 569Q189 614 252.50 638.50Q316 663 390 663Q463 663 527 638.50Q591 614 638.50 569Q686 524 713 462Q740 400 740 325M136 325Q136 263 156.50 215Q177 167 211.50 134Q246 101 292 83.50Q338 66 390 66Q442 66 488 83.50Q534 101 568.50 134Q603 167 623.50 215Q644 263 644 325Q644 387 623.50 435Q603 483 568.50 516Q534 549 488 566.50Q442 584 390 584Q338 584 292 566.50Q246 549 211.50 516Q177 483 156.50 435Q136 387 136 325M553 784L553 711L227 711L227 784L553 784Z"  horiz-adv-x="780" vert-adv-y="1000"  />

      
      <glyph glyph-name="uni2126" unicode="&#x2126;" d="M448 60Q542 110 585.50 177.50Q629 245 629 333Q629 391 611.50 437.50Q594 484 562.50 516.50Q531 549 485.50 566.50Q440 584 385 584Q329 584 284 566.50Q239 549 207.50 516.50Q176 484 158.50 437.50Q141 391 141 333Q141 245 184.50 177.50Q228 110 322 60L322 0L58 0L58 73L174 73Q108 121 76.50 189.50Q45 258 45 333Q45 404 69 464.50Q93 525 137.50 569Q182 613 245 638Q308 663 385 663Q462 663 525 638Q588 613 632.50 569Q677 525 701 464.50Q725 404 725 333Q725 258 693.50 189.50Q662 121 596 73L712 73L712 0L448 0L448 60Z"  horiz-adv-x="770" vert-adv-y="1000"  />

      
      <glyph glyph-name="unid8" unicode="&#xd8;" d="M683 627L637 570Q685 525 712.50 462.50Q740 400 740 325Q740 250 713 188Q686 126 638.50 81Q591 36 527 11.50Q463-13 390-13Q287-13 206 33L160-24L90 20L140 82Q93 127 66.50 188.50Q40 250 40 325Q40 400 67 462Q94 524 141.50 569Q189 614 252.50 638.50Q316 663 390 663Q440 663 485 651.50Q530 640 569 619L611 671L683 627M258 98Q317 66 390 66Q442 66 488 83.50Q534 101 568.50 134Q603 167 623.50 215Q644 263 644 325Q644 381 627.50 425Q611 469 582 502L258 98M517 553Q458 584 390 584Q338 584 292 566.50Q246 549 211.50 516Q177 483 156.50 435Q136 387 136 325Q136 270 151.50 226.50Q167 183 195 151L517 553Z"  horiz-adv-x="780" vert-adv-y="1000"  />

      
      <glyph glyph-name="unid5" unicode="&#xd5;" d="M740 325Q740 250 713 188Q686 126 638.50 81Q591 36 527 11.50Q463-13 390-13Q316-13 252.50 11.50Q189 36 141.50 81Q94 126 67 188Q40 250 40 325Q40 400 67 462Q94 524 141.50 569Q189 614 252.50 638.50Q316 663 390 663Q463 663 527 638.50Q591 614 638.50 569Q686 524 713 462Q740 400 740 325M136 325Q136 263 156.50 215Q177 167 211.50 134Q246 101 292 83.50Q338 66 390 66Q442 66 488 83.50Q534 101 568.50 134Q603 167 623.50 215Q644 263 644 325Q644 387 623.50 435Q603 483 568.50 516Q534 549 488 566.50Q442 584 390 584Q338 584 292 566.50Q246 549 211.50 516Q177 483 156.50 435Q136 387 136 325M209 765Q231 787 261.50 798.50Q292 810 326 810Q350 810 367 804Q384 798 399 791.50Q414 785 428.50 779Q443 773 463 773Q484 773 499 779Q514 785 531 802L572 754Q529 699 464 699Q441 699 423 705Q405 711 388 718.50Q371 726 354.50 732Q338 738 320 738Q271 738 237 699L209 765Z"  horiz-adv-x="780" vert-adv-y="1000"  />

      
      <glyph glyph-name="uni50" unicode="&#x50;" d="M291 650Q346 650 393 636Q440 622 474.50 596Q509 570 528.50 532Q548 494 548 445Q548 395 529 357Q510 319 476 293Q442 267 394.50 253.50Q347 240 291 240L160 240L160 0L65 0L65 650L291 650M160 317L278 317Q363 317 408 346Q453 375 453 445Q453 510 408 541.50Q363 573 278 573L160 573L160 317Z"  horiz-adv-x="594" vert-adv-y="1000"  />

      
      <glyph glyph-name="uni51" unicode="&#x51;" d="M698-119L305-7Q248 9 199.50 39Q151 69 115.50 111.50Q80 154 60 207.50Q40 261 40 325Q40 400 67 462Q94 524 141.50 569Q189 614 252.50 638.50Q316 663 390 663Q463 663 527 638.50Q591 614 638.50 569Q686 524 713 462Q740 400 740 325Q740 268 723 218.50Q706 169 675.50 128.50Q645 88 603.50 58Q562 28 513 11L722-33L698-119M136 325Q136 263 156.50 215Q177 167 211.50 134Q246 101 292 83.50Q338 66 390 66Q442 66 488 83.50Q534 101 568.50 134Q603 167 623.50 215Q644 263 644 325Q644 387 623.50 435Q603 483 568.50 516Q534 549 488 566.50Q442 584 390 584Q338 584 292 566.50Q246 549 211.50 516Q177 483 156.50 435Q136 387 136 325Z"  horiz-adv-x="780" vert-adv-y="1000"  />

      
      <glyph glyph-name="uni52" unicode="&#x52;" d="M330 650Q379 650 420.50 637.50Q462 625 492 601Q522 577 539 543Q556 509 556 466Q556 408 520 361.50Q484 315 413 296L601 0L490 0L316 279L160 279L160 0L65 0L65 650L330 650M160 356L316 356Q380 356 420.50 384Q461 412 461 466Q461 520 422 546.50Q383 573 315 573L160 573L160 356Z"  horiz-adv-x="631" vert-adv-y="1000"  />

      
      <glyph glyph-name="uni0154" unicode="&#x0154;" d="M330 650Q379 650 420.50 637.50Q462 625 492 601Q522 577 539 543Q556 509 556 466Q556 408 520 361.50Q484 315 413 296L601 0L490 0L316 279L160 279L160 0L65 0L65 650L330 650M160 356L316 356Q380 356 420.50 384Q461 412 461 466Q461 520 422 546.50Q383 573 315 573L160 573L160 356M334 881L412 834L314 698L245 698L334 881Z"  horiz-adv-x="636" vert-adv-y="1000"  />

      
      <glyph glyph-name="uni0158" unicode="&#x0158;" d="M330 650Q379 650 420.50 637.50Q462 625 492 601Q522 577 539 543Q556 509 556 466Q556 408 520 361.50Q484 315 413 296L601 0L490 0L316 279L160 279L160 0L65 0L65 650L330 650M160 356L316 356Q380 356 420.50 384Q461 412 461 466Q461 520 422 546.50Q383 573 315 573L160 573L160 356M289 778L421 864L442 810L301 691L278 691L136 810L157 864L289 778Z"  horiz-adv-x="636" vert-adv-y="1000"  />

      
      <glyph glyph-name="uni0156" unicode="&#x0156;" d="M330 650Q379 650 420.50 637.50Q462 625 492 601Q522 577 539 543Q556 509 556 466Q556 408 520 361.50Q484 315 413 296L601 0L490 0L316 279L160 279L160 0L65 0L65 650L330 650M160 356L316 356Q380 356 420.50 384Q461 412 461 466Q461 520 422 546.50Q383 573 315 573L160 573L160 356M249-177Q311-153 311-109Q281-109 267.50-92.50Q254-76 254-55Q254-45 257-35Q260-25 267-16.50Q274-8 285.50-2.50Q297 3 314 3Q349 3 367-22.50Q385-48 385-85Q385-104 378-124.50Q371-145 357.50-163.50Q344-182 323-197.50Q302-213 274-222L249-177Z"  horiz-adv-x="636" vert-adv-y="1000"  />

      
      <glyph glyph-name="uni53" unicode="&#x53;" d="M453 531Q412 560 372 572.50Q332 585 281 585Q243 585 219 576.50Q195 568 181 555Q167 542 161.50 525Q156 508 156 492Q156 456 179.50 432Q203 408 259 397L352 378Q434 361 482.50 312Q531 263 531 180Q531 138 513.50 103Q496 68 463 42Q430 16 382.50 1.50Q335-13 275-13Q239-13 209.50-10Q180-7 153 0Q126 7 99.50 18Q73 29 44 45L76 132Q132 97 177 84Q222 71 273 71Q356 71 397.50 102Q439 133 439 179Q439 231 411.50 257.50Q384 284 319 296L217 315Q145 329 105.50 377.50Q66 426 66 488Q66 527 80 559Q94 591 121.50 614Q149 637 189 650Q229 663 281 663Q345 663 394 651Q443 639 493 606L453 531Z"  horiz-adv-x="574" vert-adv-y="1000"  />

      
      <glyph glyph-name="uni015A" unicode="&#x015A;" d="M453 531Q412 560 372 572.50Q332 585 281 585Q243 585 219 576.50Q195 568 181 555Q167 542 161.50 525Q156 508 156 492Q156 456 179.50 432Q203 408 259 397L352 378Q434 361 482.50 312Q531 263 531 180Q531 138 513.50 103Q496 68 463 42Q430 16 382.50 1.50Q335-13 275-13Q239-13 209.50-10Q180-7 153 0Q126 7 99.50 18Q73 29 44 45L76 132Q132 97 177 84Q222 71 273 71Q356 71 397.50 102Q439 133 439 179Q439 231 411.50 257.50Q384 284 319 296L217 315Q145 329 105.50 377.50Q66 426 66 488Q66 527 80 559Q94 591 121.50 614Q149 637 189 650Q229 663 281 663Q345 663 394 651Q443 639 493 606L453 531M345 886L423 839L325 703L256 703L345 886Z"  horiz-adv-x="574" vert-adv-y="1000"  />

      
      <glyph glyph-name="uni0160" unicode="&#x0160;" d="M453 531Q412 560 372 572.50Q332 585 281 585Q243 585 219 576.50Q195 568 181 555Q167 542 161.50 525Q156 508 156 492Q156 456 179.50 432Q203 408 259 397L352 378Q434 361 482.50 312Q531 263 531 180Q531 138 513.50 103Q496 68 463 42Q430 16 382.50 1.50Q335-13 275-13Q239-13 209.50-10Q180-7 153 0Q126 7 99.50 18Q73 29 44 45L76 132Q132 97 177 84Q222 71 273 71Q356 71 397.50 102Q439 133 439 179Q439 231 411.50 257.50Q384 284 319 296L217 315Q145 329 105.50 377.50Q66 426 66 488Q66 527 80 559Q94 591 121.50 614Q149 637 189 650Q229 663 281 663Q345 663 394 651Q443 639 493 606L453 531M285 783L417 869L438 815L297 696L274 696L132 815L153 869L285 783Z"  horiz-adv-x="574" vert-adv-y="1000"  />

      
      <glyph glyph-name="uni015E" unicode="&#x015E;" d="M453 531Q412 560 372 572.50Q332 585 281 585Q243 585 219 576.50Q195 568 181 555Q167 542 161.50 525Q156 508 156 492Q156 456 179.50 432Q203 408 259 397L352 378Q434 361 482.50 312Q531 263 531 180Q531 141 516 107.50Q501 74 472 48.50Q443 23 401 7.50Q359-8 306-12L302-48Q337-48 356-66.50Q375-85 375-118Q375-146 360.50-167.50Q346-189 323.50-204.50Q301-220 273.50-230Q246-240 221-244L208-183Q249-176 276-161.50Q303-147 303-120Q303-93 267-93L234-93L237-12Q209-11 185-7Q161-3 138 4Q115 11 92 21Q69 31 44 45L76 132Q132 97 177 84Q222 71 273 71Q356 71 397.50 102Q439 133 439 179Q439 231 411.50 257.50Q384 284 319 296L217 315Q145 329 105.50 377.50Q66 426 66 488Q66 527 80 559Q94 591 121.50 614Q149 637 189 650Q229 663 281 663Q345 663 394 651Q443 639 493 606L453 531Z"  horiz-adv-x="574" vert-adv-y="1000"  />

      
      <glyph glyph-name="uni015C" unicode="&#x015C;" d="M453 531Q412 560 372 572.50Q332 585 281 585Q243 585 219 576.50Q195 568 181 555Q167 542 161.50 525Q156 508 156 492Q156 456 179.50 432Q203 408 259 397L352 378Q434 361 482.50 312Q531 263 531 180Q531 138 513.50 103Q496 68 463 42Q430 16 382.50 1.50Q335-13 275-13Q239-13 209.50-10Q180-7 153 0Q126 7 99.50 18Q73 29 44 45L76 132Q132 97 177 84Q222 71 273 71Q356 71 397.50 102Q439 133 439 179Q439 231 411.50 257.50Q384 284 319 296L217 315Q145 329 105.50 377.50Q66 426 66 488Q66 527 80 559Q94 591 121.50 614Q149 637 189 650Q229 663 281 663Q345 663 394 651Q443 639 493 606L453 531M293 777L161 691L140 745L281 864L304 864L446 745L425 691L293 777Z"  horiz-adv-x="574" vert-adv-y="1000"  />

      
      <glyph glyph-name="uni0218" unicode="&#x0218;" d="M453 531Q412 560 372 572.50Q332 585 281 585Q243 585 219 576.50Q195 568 181 555Q167 542 161.50 525Q156 508 156 492Q156 456 179.50 432Q203 408 259 397L352 378Q434 361 482.50 312Q531 263 531 180Q531 138 513.50 103Q496 68 463 42Q430 16 382.50 1.50Q335-13 275-13Q239-13 209.50-10Q180-7 153 0Q126 7 99.50 18Q73 29 44 45L76 132Q132 97 177 84Q222 71 273 71Q356 71 397.50 102Q439 133 439 179Q439 231 411.50 257.50Q384 284 319 296L217 315Q145 329 105.50 377.50Q66 426 66 488Q66 527 80 559Q94 591 121.50 614Q149 637 189 650Q229 663 281 663Q345 663 394 651Q443 639 493 606L453 531M221-229Q283-205 283-161Q253-161 239.50-144.50Q226-128 226-107Q226-97 229-87Q232-77 239-68.50Q246-60 257.50-54.50Q269-49 286-49Q321-49 339-74.50Q357-100 357-137Q357-156 350-176.50Q343-197 329.50-215.50Q316-234 295-249.50Q274-265 246-274L221-229Z"  horiz-adv-x="574" vert-adv-y="1000"  />

      
      <glyph glyph-name="uni54" unicode="&#x54;" d="M30 650L514 650L514 574L320 574L320 0L224 0L224 574L30 574L30 650Z"  horiz-adv-x="544" vert-adv-y="1000"  />

      
      <glyph glyph-name="uni0164" unicode="&#x0164;" d="M30 650L514 650L514 574L320 574L320 0L224 0L224 574L30 574L30 650M272 778L404 864L425 810L284 691L261 691L119 810L140 864L272 778Z"  horiz-adv-x="544" vert-adv-y="1000"  />

      
      <glyph glyph-name="uni0162" unicode="&#x0162;" d="M30 650L514 650L514 574L320 574L320 0L224 0L224 574L30 574L30 650M209-223Q271-199 271-155Q241-155 227.50-138.50Q214-122 214-101Q214-91 217-81Q220-71 227-62.50Q234-54 245.50-48.50Q257-43 274-43Q309-43 327-68.50Q345-94 345-131Q345-150 338-170.50Q331-191 317.50-209.50Q304-228 283-243.50Q262-259 234-268L209-223Z"  horiz-adv-x="544" vert-adv-y="1000"  />

      
      <glyph glyph-name="unide" unicode="&#xde;" d="M160 663L160 551L288 551Q343 551 389.50 537Q436 523 469.50 497Q503 471 521.50 433Q540 395 540 346Q540 296 521.50 258Q503 220 470 194Q437 168 390.50 154.50Q344 141 288 141L160 141L160 0L65 0L65 663L160 663M160 218L275 218Q360 218 402.50 247Q445 276 445 346Q445 474 275 474L160 474L160 218Z"  horiz-adv-x="590" vert-adv-y="1000"  />

      
      <glyph glyph-name="uni55" unicode="&#x55;" d="M160 650L160 271Q160 167 207.50 115Q255 63 340 63Q425 63 472.50 115Q520 167 520 271L520 650L615 650L615 278Q615 203 595.50 148.50Q576 94 540.50 58Q505 22 454 4.50Q403-13 340-13Q277-13 226 4.50Q175 22 139.50 58Q104 94 84.50 148.50Q65 203 65 278L65 650L160 650Z"  horiz-adv-x="680" vert-adv-y="1000"  />

      
      <glyph glyph-name="unida" unicode="&#xda;" d="M160 650L160 271Q160 167 207.50 115Q255 63 340 63Q425 63 472.50 115Q520 167 520 271L520 650L615 650L615 278Q615 203 595.50 148.50Q576 94 540.50 58Q505 22 454 4.50Q403-13 340-13Q277-13 226 4.50Q175 22 139.50 58Q104 94 84.50 148.50Q65 203 65 278L65 650L160 650M380 881L458 834L360 698L291 698L380 881Z"  horiz-adv-x="680" vert-adv-y="1000"  />

      
      <glyph glyph-name="uni016C" unicode="&#x016C;" d="M160 650L160 271Q160 167 207.50 115Q255 63 340 63Q425 63 472.50 115Q520 167 520 271L520 650L615 650L615 278Q615 203 595.50 148.50Q576 94 540.50 58Q505 22 454 4.50Q403-13 340-13Q277-13 226 4.50Q175 22 139.50 58Q104 94 84.50 148.50Q65 203 65 278L65 650L160 650M244 826Q258 797 283.50 782Q309 767 340 767Q408 767 437 826L497 799Q480 746 438.50 720Q397 694 340 694Q284 694 241.50 721Q199 748 184 799L244 826Z"  horiz-adv-x="680" vert-adv-y="1000"  />

      
      <glyph glyph-name="unidb" unicode="&#xdb;" d="M160 650L160 271Q160 167 207.50 115Q255 63 340 63Q425 63 472.50 115Q520 167 520 271L520 650L615 650L615 278Q615 203 595.50 148.50Q576 94 540.50 58Q505 22 454 4.50Q403-13 340-13Q277-13 226 4.50Q175 22 139.50 58Q104 94 84.50 148.50Q65 203 65 278L65 650L160 650M340 777L208 691L187 745L328 864L351 864L493 745L472 691L340 777Z"  horiz-adv-x="680" vert-adv-y="1000"  />

      
      <glyph glyph-name="unidc" unicode="&#xdc;" d="M160 650L160 271Q160 167 207.50 115Q255 63 340 63Q425 63 472.50 115Q520 167 520 271L520 650L615 650L615 278Q615 203 595.50 148.50Q576 94 540.50 58Q505 22 454 4.50Q403-13 340-13Q277-13 226 4.50Q175 22 139.50 58Q104 94 84.50 148.50Q65 203 65 278L65 650L160 650M230 828Q261 828 277.50 811Q294 794 294 767Q294 741 277.50 724Q261 707 230 707Q201 707 184.50 724Q168 741 168 767Q168 794 184.50 811Q201 828 230 828M449 828Q478 828 495 811Q512 794 512 767Q512 741 495 724Q478 707 449 707Q420 707 403 724Q386 741 386 767Q386 794 403 811Q420 828 449 828Z"  horiz-adv-x="680" vert-adv-y="1000"  />

      
      <glyph glyph-name="unid9" unicode="&#xd9;" d="M160 650L160 271Q160 167 207.50 115Q255 63 340 63Q425 63 472.50 115Q520 167 520 271L520 650L615 650L615 278Q615 203 595.50 148.50Q576 94 540.50 58Q505 22 454 4.50Q403-13 340-13Q277-13 226 4.50Q175 22 139.50 58Q104 94 84.50 148.50Q65 203 65 278L65 650L160 650M382 698L313 698L215 834L293 881L382 698Z"  horiz-adv-x="680" vert-adv-y="1000"  />

      
      <glyph glyph-name="uni0170" unicode="&#x0170;" d="M160 650L160 271Q160 167 207.50 115Q255 63 340 63Q425 63 472.50 115Q520 167 520 271L520 650L615 650L615 278Q615 203 595.50 148.50Q576 94 540.50 58Q505 22 454 4.50Q403-13 340-13Q277-13 226 4.50Q175 22 139.50 58Q104 94 84.50 148.50Q65 203 65 278L65 650L160 650M294 881L376 851L307 692L243 692L294 881M432 871L508 824L415 692L348 692L432 871Z"  horiz-adv-x="680" vert-adv-y="1000"  />

      
      <glyph glyph-name="uni016A" unicode="&#x016A;" d="M160 650L160 271Q160 167 207.50 115Q255 63 340 63Q425 63 472.50 115Q520 167 520 271L520 650L615 650L615 278Q615 203 595.50 148.50Q576 94 540.50 58Q505 22 454 4.50Q403-13 340-13Q277-13 226 4.50Q175 22 139.50 58Q104 94 84.50 148.50Q65 203 65 278L65 650L160 650M503 784L503 711L177 711L177 784L503 784Z"  horiz-adv-x="680" vert-adv-y="1000"  />

      
      <glyph glyph-name="uni0172" unicode="&#x0172;" d="M160 650L160 271Q160 167 207.50 115Q255 63 340 63Q425 63 472.50 115Q520 167 520 271L520 650L615 650L615 278Q615 149 559.50 79.50Q504 10 407-7Q376-23 366-40.50Q356-58 356-78Q356-95 366.50-108.50Q377-122 405-122Q412-122 419.50-121Q427-120 436-117L420-182Q410-184 400.50-185Q391-186 383-186Q335-186 307-161.50Q279-137 279-99Q279-77 290-53.50Q301-30 324-13Q264-11 216.50 7.50Q169 26 135 62Q101 98 83 152Q65 206 65 278L65 650L160 650Z"  horiz-adv-x="680" vert-adv-y="1000"  />

      
      <glyph glyph-name="uni016E" unicode="&#x016E;" d="M160 650L160 271Q160 167 207.50 115Q255 63 340 63Q425 63 472.50 115Q520 167 520 271L520 650L615 650L615 278Q615 203 595.50 148.50Q576 94 540.50 58Q505 22 454 4.50Q403-13 340-13Q277-13 226 4.50Q175 22 139.50 58Q104 94 84.50 148.50Q65 203 65 278L65 650L160 650M340 670Q288 670 255.50 701.50Q223 733 223 782Q223 805 232 825.50Q241 846 256.50 861Q272 876 293.50 884.50Q315 893 340 893Q365 893 386.50 884.50Q408 876 423.50 861Q439 846 448 825.50Q457 805 457 782Q457 732 424 701Q391 670 340 670M396 782Q396 806 380 821.50Q364 837 340 837Q316 837 299.50 821.50Q283 806 283 782Q283 758 299.50 742Q316 726 340 726Q364 726 380 742Q396 758 396 782Z"  horiz-adv-x="680" vert-adv-y="1000"  />

      
      <glyph glyph-name="uni0168" unicode="&#x0168;" d="M160 650L160 271Q160 167 207.50 115Q255 63 340 63Q425 63 472.50 115Q520 167 520 271L520 650L615 650L615 278Q615 203 595.50 148.50Q576 94 540.50 58Q505 22 454 4.50Q403-13 340-13Q277-13 226 4.50Q175 22 139.50 58Q104 94 84.50 148.50Q65 203 65 278L65 650L160 650M159 765Q181 787 211.50 798.50Q242 810 276 810Q300 810 317 804Q334 798 349 791.50Q364 785 378.50 779Q393 773 413 773Q434 773 449 779Q464 785 481 802L522 754Q479 699 414 699Q391 699 373 705Q355 711 338 718.50Q321 726 304.50 732Q288 738 270 738Q221 738 187 699L159 765Z"  horiz-adv-x="680" vert-adv-y="1000"  />

      
      <glyph glyph-name="uni56" unicode="&#x56;" d="M282 0L25 650L130 650L341 88L345 88L553 650L654 650L398 0L282 0Z"  horiz-adv-x="679" vert-adv-y="1000"  />

      
      <glyph glyph-name="uni57" unicode="&#x57;" d="M231 0L25 650L128 650L297 95L301 95L463 650L548 650L719 95L723 95L888 650L984 650L779 0L651 0L507 483L503 483L358 0L231 0Z"  horiz-adv-x="1009" vert-adv-y="1000"  />

      
      <glyph glyph-name="uni0174" unicode="&#x0174;" d="M231 0L25 650L128 650L297 95L301 95L463 650L548 650L719 95L723 95L888 650L984 650L779 0L651 0L507 483L503 483L358 0L231 0M504 775L372 689L351 743L492 862L515 862L657 743L636 689L504 775Z"  horiz-adv-x="1009" vert-adv-y="1000"  />

      
      <glyph glyph-name="uni58" unicode="&#x58;" d="M162 650L340 393L522 650L629 650L403 343L657 0L542 0L337 289L133 0L25 0L274 343L48 650L162 650Z"  horiz-adv-x="682" vert-adv-y="1000"  />

      
      <glyph glyph-name="uni59" unicode="&#x59;" d="M131 650L323 337L327 337L517 650L621 650L371 249L371 0L277 0L277 247L25 650L131 650Z"  horiz-adv-x="646" vert-adv-y="1000"  />

      
      <glyph glyph-name="unidd" unicode="&#xdd;" d="M131 650L323 337L327 337L517 650L621 650L371 249L371 0L277 0L277 247L25 650L131 650M376 881L454 834L356 698L287 698L376 881Z"  horiz-adv-x="646" vert-adv-y="1000"  />

      
      <glyph glyph-name="uni0176" unicode="&#x0176;" d="M131 650L323 337L327 337L517 650L621 650L371 249L371 0L277 0L277 247L25 650L131 650M323 771L191 685L170 739L311 858L334 858L476 739L455 685L323 771Z"  horiz-adv-x="646" vert-adv-y="1000"  />

      
      <glyph glyph-name="uni0178" unicode="&#x0178;" d="M131 650L323 337L327 337L517 650L621 650L371 249L371 0L277 0L277 247L25 650L131 650M213 828Q244 828 260.50 811Q277 794 277 767Q277 741 260.50 724Q244 707 213 707Q184 707 167.50 724Q151 741 151 767Q151 794 167.50 811Q184 828 213 828M432 828Q461 828 478 811Q495 794 495 767Q495 741 478 724Q461 707 432 707Q403 707 386 724Q369 741 369 767Q369 794 386 811Q403 828 432 828Z"  horiz-adv-x="646" vert-adv-y="1000"  />

      
      <glyph glyph-name="uni5a" unicode="&#x5a;" d="M573 650L573 582L156 79L581 79L581 0L37 0L37 65L457 573L64 573L64 650L573 650Z"  horiz-adv-x="617" vert-adv-y="1000"  />

      
      <glyph glyph-name="uni0179" unicode="&#x0179;" d="M573 650L573 582L156 79L581 79L581 0L37 0L37 65L457 573L64 573L64 650L573 650M364 881L442 834L344 698L275 698L364 881Z"  horiz-adv-x="617" vert-adv-y="1000"  />

      
      <glyph glyph-name="uni017D" unicode="&#x017D;" d="M573 650L573 582L156 79L581 79L581 0L37 0L37 65L457 573L64 573L64 650L573 650M316 778L448 864L469 810L328 691L305 691L163 810L184 864L316 778Z"  horiz-adv-x="617" vert-adv-y="1000"  />

      
      <glyph glyph-name="uni017B" unicode="&#x017B;" d="M573 650L573 582L156 79L581 79L581 0L37 0L37 65L457 573L64 573L64 650L573 650M313 830Q345 830 362.50 811Q380 792 380 764Q380 735 362.50 718Q345 701 313 701Q281 701 264 718Q247 735 247 764Q247 792 264 811Q281 830 313 830Z"  horiz-adv-x="617" vert-adv-y="1000"  />

      
      <glyph glyph-name="uni61" unicode="&#x61;" d="M79 466Q135 489 182.50 499.50Q230 510 292 510Q403 510 455.50 469Q508 428 508 336L508 127Q508 91 520 78.50Q532 66 570 66L570 0Q553-5 538.50-7.50Q524-10 504-10Q473-10 455 12Q437 34 434 72Q365-10 228-10Q140-10 94.50 31Q49 72 49 143Q49 177 59.50 205Q70 233 96 262Q130 272 164.50 280Q199 288 238 293Q277 298 321 301Q365 304 418 305L418 333Q418 385 389.50 409Q361 433 288 433Q194 433 99 392L79 466M418 238Q331 236 271.50 228.50Q212 221 163 208Q143 184 143 148Q143 107 168.50 86.50Q194 66 241 66Q291 66 333.50 81Q376 96 418 132L418 238Z"  horiz-adv-x="602" vert-adv-y="1000"  />

      
      <glyph glyph-name="unie1" unicode="&#xe1;" d="M79 466Q135 489 182.50 499.50Q230 510 292 510Q403 510 455.50 469Q508 428 508 336L508 127Q508 91 520 78.50Q532 66 570 66L570 0Q553-5 538.50-7.50Q524-10 504-10Q473-10 455 12Q437 34 434 72Q365-10 228-10Q140-10 94.50 31Q49 72 49 143Q49 177 59.50 205Q70 233 96 262Q130 272 164.50 280Q199 288 238 293Q277 298 321 301Q365 304 418 305L418 333Q418 385 389.50 409Q361 433 288 433Q194 433 99 392L79 466M418 238Q331 236 271.50 228.50Q212 221 163 208Q143 184 143 148Q143 107 168.50 86.50Q194 66 241 66Q291 66 333.50 81Q376 96 418 132L418 238M352 746L425 699L322 563L258 563L352 746Z"  horiz-adv-x="602" vert-adv-y="1000"  />

      
      <glyph glyph-name="uni0103" unicode="&#x0103;" d="M79 466Q135 489 182.50 499.50Q230 510 292 510Q403 510 455.50 469Q508 428 508 336L508 127Q508 91 520 78.50Q532 66 570 66L570 0Q553-5 538.50-7.50Q524-10 504-10Q473-10 455 12Q437 34 434 72Q365-10 228-10Q140-10 94.50 31Q49 72 49 143Q49 177 59.50 205Q70 233 96 262Q130 272 164.50 280Q199 288 238 293Q277 298 321 301Q365 304 418 305L418 333Q418 385 389.50 409Q361 433 288 433Q194 433 99 392L79 466M418 238Q331 236 271.50 228.50Q212 221 163 208Q143 184 143 148Q143 107 168.50 86.50Q194 66 241 66Q291 66 333.50 81Q376 96 418 132L418 238M230 679Q235 656 251.50 642Q268 628 298 628Q328 628 344.50 642Q361 656 366 679L436 666Q423 611 384.50 584Q346 557 298 557Q250 557 211.50 584Q173 611 160 666L230 679Z"  horiz-adv-x="602" vert-adv-y="1000"  />

      
      <glyph glyph-name="unie2" unicode="&#xe2;" d="M79 466Q135 489 182.50 499.50Q230 510 292 510Q403 510 455.50 469Q508 428 508 336L508 127Q508 91 520 78.50Q532 66 570 66L570 0Q553-5 538.50-7.50Q524-10 504-10Q473-10 455 12Q437 34 434 72Q365-10 228-10Q140-10 94.50 31Q49 72 49 143Q49 177 59.50 205Q70 233 96 262Q130 272 164.50 280Q199 288 238 293Q277 298 321 301Q365 304 418 305L418 333Q418 385 389.50 409Q361 433 288 433Q194 433 99 392L79 466M418 238Q331 236 271.50 228.50Q212 221 163 208Q143 184 143 148Q143 107 168.50 86.50Q194 66 241 66Q291 66 333.50 81Q376 96 418 132L418 238M287 622L175 545L152 593L275 718L298 718L422 593L399 545L287 622Z"  horiz-adv-x="602" vert-adv-y="1000"  />

      
      <glyph glyph-name="unib4" unicode="&#xb4;" d="M148 746L221 699L118 563L54 563L148 746Z"  horiz-adv-x="264" vert-adv-y="1000"  />

      
      <glyph glyph-name="unie4" unicode="&#xe4;" d="M79 466Q135 489 182.50 499.50Q230 510 292 510Q403 510 455.50 469Q508 428 508 336L508 127Q508 91 520 78.50Q532 66 570 66L570 0Q553-5 538.50-7.50Q524-10 504-10Q473-10 455 12Q437 34 434 72Q365-10 228-10Q140-10 94.50 31Q49 72 49 143Q49 177 59.50 205Q70 233 96 262Q130 272 164.50 280Q199 288 238 293Q277 298 321 301Q365 304 418 305L418 333Q418 385 389.50 409Q361 433 288 433Q194 433 99 392L79 466M418 238Q331 236 271.50 228.50Q212 221 163 208Q143 184 143 148Q143 107 168.50 86.50Q194 66 241 66Q291 66 333.50 81Q376 96 418 132L418 238M184 681Q213 681 229.50 664Q246 647 246 621Q246 596 229.50 579.50Q213 563 184 563Q156 563 139.50 579.50Q123 596 123 621Q123 647 139.50 664Q156 681 184 681M407 681Q436 681 452.50 664Q469 647 469 621Q469 596 452.50 579.50Q436 563 407 563Q379 563 362.50 579.50Q346 596 346 621Q346 647 362.50 664Q379 681 407 681Z"  horiz-adv-x="602" vert-adv-y="1000"  />

      
      <glyph glyph-name="unie6" unicode="&#xe6;" d="M79 466Q130 489 180 499.50Q230 510 292 510Q370 510 416 491Q462 472 482 428Q518 467 564 488.50Q610 510 673 510Q733 510 777 494.50Q821 479 850 451.50Q879 424 893 386Q907 348 907 303Q907 282 905 264.50Q903 247 898 227L505 227Q508 187 523 157Q538 127 562 107.50Q586 88 618 78Q650 68 686 68Q714 68 736 69.50Q758 71 778 75Q798 79 817.50 86.50Q837 94 860 106L888 29Q864 17 841 9.50Q818 2 793-2.50Q768-7 740.50-8.50Q713-10 680-10Q605-10 555 12Q505 34 470 76Q416 27 354.50 8.50Q293-10 224-10Q136-10 92.50 31Q49 72 49 143Q49 177 59.50 204.50Q70 232 96 261Q164 284 243.50 294Q323 304 417 304L417 333Q417 385 389 409Q361 433 288 433Q193 433 99 392L79 466M417 238Q336 238 274.50 230Q213 222 164 208Q153 196 148.50 181Q144 166 144 148Q144 68 241 68Q291 68 333 80.50Q375 93 417 125L417 238M818 299Q816 371 779 403Q742 435 663 435Q633 435 605 426.50Q577 418 555.50 401Q534 384 520 358.50Q506 333 503 299L818 299Z"  horiz-adv-x="945" vert-adv-y="1000"  />

      
      <glyph glyph-name="uni0410" unicode="&#x0410;" d="M406 650L684 0L585 0L500 197L201 197L120 0L22 0L301 650L406 650M232 275L470 275L356 558L347 558L232 275Z"  horiz-adv-x="707" vert-adv-y="1000"  />

      
      <glyph glyph-name="uni0411" unicode="&#x0411;" d="M500 650L500 574L160 574L160 400L298 400Q354 400 400 387.50Q446 375 479 350Q512 325 530 287.50Q548 250 548 200Q548 151 530 114Q512 77 479.50 51.50Q447 26 401.50 13Q356 0 301 0L65 0L65 650L500 650M160 77L288 77Q375 77 414 106Q453 135 453 200Q453 270 411.50 296.50Q370 323 285 323L160 323L160 77Z"  horiz-adv-x="594" vert-adv-y="1000"  />

      
      <glyph glyph-name="uni0412" unicode="&#x0412;" d="M292 650Q337 650 377.50 640.50Q418 631 448 610Q478 589 496 556Q514 523 514 477Q514 439 498.50 408Q483 377 448 357L448 353Q559 297 559 185Q559 140 540 105.50Q521 71 489.50 47.50Q458 24 416 12Q374 0 329 0L65 0L65 650L292 650M159 77L320 77Q348 77 374.50 82.50Q401 88 421 101Q441 114 453 135Q465 156 465 187Q465 247 427 276.50Q389 306 328 306L159 306L159 77M159 380L307 380Q362 380 391.50 405.50Q421 431 421 474Q421 525 388.50 549.50Q356 574 302 574L159 574L159 380Z"  horiz-adv-x="601" vert-adv-y="1000"  />

      
      <glyph glyph-name="uni0413" unicode="&#x0413;" d="M477 650L477 573L161 573L161 0L65 0L65 650L477 650Z"  horiz-adv-x="516" vert-adv-y="1000"  />

      
      <glyph glyph-name="uni0414" unicode="&#x0414;" d="M630 650L630 78L700 78L692-141L618-141L606 0L121 0L106-141L30-141L30 76Q45 80 61.50 87Q78 94 89 105Q113 127 131 162Q149 197 160 240.50Q171 284 176.50 335.50Q182 387 182 442L182 650L630 650M274 573L274 453Q274 324 249 225Q224 126 174 78L536 78L536 573L274 573Z"  horiz-adv-x="731" vert-adv-y="1000"  />

      
      <glyph glyph-name="uni0415" unicode="&#x0415;" d="M65 650L484 650L484 571L161 571L161 377L451 377L451 299L161 299L161 79L498 79L498 0L65 0L65 650Z"  horiz-adv-x="541" vert-adv-y="1000"  />

      
      <glyph glyph-name="uni0401" unicode="&#x0401;" d="M65 650L484 650L484 571L161 571L161 377L451 377L451 299L161 299L161 79L498 79L498 0L65 0L65 650M165 828Q196 828 212.50 811Q229 794 229 767Q229 741 212.50 724Q196 707 165 707Q136 707 119.50 724Q103 741 103 767Q103 794 119.50 811Q136 828 165 828M384 828Q413 828 430 811Q447 794 447 767Q447 741 430 724Q413 707 384 707Q355 707 338 724Q321 741 321 767Q321 794 338 811Q355 828 384 828Z"  horiz-adv-x="541" vert-adv-y="1000"  />

      
      <glyph glyph-name="uni0416" unicode="&#x0416;" d="M552 650L552 406L661 406L745 578Q765 620 801 640Q837 660 877 660Q912 660 946 650L934 570Q917 575 899 575Q873 575 850 565Q827 555 812 524L737 370L971 0L862 0L659 330L552 330L552 0L458 0L458 330L351 330L148 0L39 0L273 370L198 524Q183 555 160 565Q137 575 111 575Q93 575 76 570L64 650Q98 660 133 660Q173 660 209 640Q245 620 265 578L349 406L458 406L458 650L552 650Z"  horiz-adv-x="1011" vert-adv-y="1000"  />

      
      <glyph glyph-name="uni0417" unicode="&#x0417;" d="M293 395Q344 395 373 419Q402 443 402 487Q402 505 395 523Q388 541 372.50 555Q357 569 332.50 578Q308 587 272 587Q245 587 223 584Q201 581 181 574Q161 567 142 555Q123 543 102 526L64 592Q111 632 162 647.50Q213 663 275 663Q323 663 363.50 650Q404 637 433 614Q462 591 478 559.50Q494 528 494 491Q494 452 474.50 419Q455 386 419 370L419 366Q467 345 499 300Q531 255 531 198Q531 149 512 110Q493 71 459 43.50Q425 16 378 1.50Q331-13 276-13Q239-13 209-10.50Q179-8 152-1Q125 6 99 18Q73 30 45 48L76 132Q101 111 123 98.50Q145 86 167.50 78.50Q190 71 214.50 68.50Q239 66 268 66Q301 66 332 74Q363 82 386 98Q409 114 423 138.50Q437 163 437 196Q437 259 402 289.50Q367 320 306 320L176 320L176 395L293 395Z"  horiz-adv-x="566" vert-adv-y="1000"  />

      
      <glyph glyph-name="uni0418" unicode="&#x0418;" d="M158 650L158 128L162 128L548 650L637 650L637 0L544 0L544 503L540 503L164 0L65 0L65 650L158 650Z"  horiz-adv-x="702" vert-adv-y="1000"  />

      
      <glyph glyph-name="uni0419" unicode="&#x0419;" d="M158 650L158 128L162 128L548 650L637 650L637 0L544 0L544 503L540 503L164 0L65 0L65 650L158 650M255 829Q269 800 294.50 785Q320 770 351 770Q419 770 448 829L508 802Q491 749 449.50 723Q408 697 351 697Q295 697 252.50 724Q210 751 195 802L255 829Z"  horiz-adv-x="702" vert-adv-y="1000"  />

      
      <glyph glyph-name="uni041A" unicode="&#x041A;" d="M161 650L161 411L300 411L404 578Q429 618 462.50 639Q496 660 536 660Q571 660 605 650L591 570Q574 575 556 575Q530 575 510 564.50Q490 554 471 524L376 375L620 0L511 0L300 332L161 332L161 0L65 0L65 650L161 650Z"  horiz-adv-x="659" vert-adv-y="1000"  />

      
      <glyph glyph-name="uni041B" unicode="&#x041B;" d="M655 650L655 0L560 0L560 574L302 574L302 423Q302 200 250 95Q198-8 93-8Q68-8 49-5Q30-2 13 6L27 83Q42 78 55.50 76Q69 74 83 74Q137 74 167 136Q210 226 210 463L210 650L655 650Z"  horiz-adv-x="720" vert-adv-y="1000"  />

      
      <glyph glyph-name="uni041C" unicode="&#x041C;" d="M182 650L380 354L582 650L696 650L696 0L604 0L604 368L606 532L597 532L398 241L359 241L162 532L154 532L155 368L155 0L65 0L65 650L182 650Z"  horiz-adv-x="761" vert-adv-y="1000"  />

      
      <glyph glyph-name="uni041D" unicode="&#x041D;" d="M604 650L604 0L509 0L509 303L160 303L160 0L65 0L65 650L160 650L160 380L509 380L509 650L604 650Z"  horiz-adv-x="669" vert-adv-y="1000"  />

      
      <glyph glyph-name="uni041E" unicode="&#x041E;" d="M740 325Q740 250 713 188Q686 126 638.50 81Q591 36 527 11.50Q463-13 390-13Q316-13 252.50 11.50Q189 36 141.50 81Q94 126 67 188Q40 250 40 325Q40 400 67 462Q94 524 141.50 569Q189 614 252.50 638.50Q316 663 390 663Q463 663 527 638.50Q591 614 638.50 569Q686 524 713 462Q740 400 740 325M136 325Q136 263 156.50 215Q177 167 211.50 134Q246 101 292 83.50Q338 66 390 66Q442 66 488 83.50Q534 101 568.50 134Q603 167 623.50 215Q644 263 644 325Q644 387 623.50 435Q603 483 568.50 516Q534 549 488 566.50Q442 584 390 584Q338 584 292 566.50Q246 549 211.50 516Q177 483 156.50 435Q136 387 136 325Z"  horiz-adv-x="780" vert-adv-y="1000"  />

      
      <glyph glyph-name="uni041F" unicode="&#x041F;" d="M585 650L585 0L491 0L491 573L159 573L159 0L65 0L65 650L585 650Z"  horiz-adv-x="650" vert-adv-y="1000"  />

      
      <glyph glyph-name="uni0420" unicode="&#x0420;" d="M291 650Q346 650 393 636Q440 622 474.50 596Q509 570 528.50 532Q548 494 548 445Q548 395 529 357Q510 319 476 293Q442 267 394.50 253.50Q347 240 291 240L160 240L160 0L65 0L65 650L291 650M160 317L278 317Q363 317 408 346Q453 375 453 445Q453 510 408 541.50Q363 573 278 573L160 573L160 317Z"  horiz-adv-x="594" vert-adv-y="1000"  />

      
      <glyph glyph-name="uni0421" unicode="&#x0421;" d="M584 518Q536 553 490.50 569Q445 585 391 585Q333 585 285.50 565.50Q238 546 204.50 511.50Q171 477 153 429.50Q135 382 135 326Q135 263 155 215.50Q175 168 209.50 135.50Q244 103 290.50 87Q337 71 390 71Q420 71 446 74Q472 77 496 84.50Q520 92 544 104Q568 116 594 134L622 52Q568 15 511.50 1Q455-13 380-13Q315-13 253.50 7.50Q192 28 144.50 69.50Q97 111 68.50 175Q40 239 40 326Q40 401 68 463.50Q96 526 144 570Q192 614 256 638.50Q320 663 391 663Q464 663 517.50 646Q571 629 622 591L584 518Z"  horiz-adv-x="660" vert-adv-y="1000"  />

      
      <glyph glyph-name="uni0422" unicode="&#x0422;" d="M30 650L514 650L514 574L320 574L320 0L224 0L224 574L30 574L30 650Z"  horiz-adv-x="544" vert-adv-y="1000"  />

      
      <glyph glyph-name="uni0423" unicode="&#x0423;" d="M132 650L359 131L365 131L559 650L657 650L420 49Q403 5 384-28.50Q365-62 342.50-84.50Q320-107 292.50-119Q265-131 230-131Q202-131 180.50-125.50Q159-120 138-107L160-32Q176-40 189-43Q202-46 216-46Q247-46 273-30.50Q299-15 315 32L25 650L132 650Z"  horiz-adv-x="682" vert-adv-y="1000"  />

      
      <glyph glyph-name="uni0424" unicode="&#x0424;" d="M466 663L466 571Q503 577 545 577Q606 577 653.50 558Q701 539 733 506Q765 473 781.50 428Q798 383 798 331Q798 279 781.50 234Q765 189 733 155.50Q701 122 653.50 103Q606 84 545 84Q503 84 466 90L466 0L372 0L372 90Q334 84 293 84Q231 84 184 103Q137 122 105 155.50Q73 189 56.50 234Q40 279 40 331Q40 383 56.50 428Q73 473 105 506Q137 539 184 558Q231 577 293 577Q334 577 372 571L372 663L466 663M372 494Q352 498 331.50 499Q311 500 291 500Q216 500 175 456.50Q134 413 134 331Q134 249 175 205.50Q216 162 291 162Q311 162 331.50 163Q352 164 372 168L372 494M466 168Q486 164 506.50 163Q527 162 547 162Q622 162 663 205.50Q704 249 704 331Q704 413 663 456.50Q622 500 547 500Q527 500 506.50 499Q486 498 466 494L466 168Z"  horiz-adv-x="838" vert-adv-y="1000"  />

      
      <glyph glyph-name="uni0425" unicode="&#x0425;" d="M162 650L340 393L522 650L629 650L403 343L657 0L542 0L337 289L133 0L25 0L274 343L48 650L162 650Z"  horiz-adv-x="682" vert-adv-y="1000"  />

      
      <glyph glyph-name="uni0426" unicode="&#x0426;" d="M160 650L160 77L495 77L495 650L590 650L590 77L663 77L655-141L580-141L568 0L65 0L65 650L160 650Z"  horiz-adv-x="693" vert-adv-y="1000"  />

      
      <glyph glyph-name="uni0427" unicode="&#x0427;" d="M465 0L465 206Q393 197 330 197Q265 197 213.50 212Q162 227 125.50 258Q89 289 69.50 337.50Q50 386 50 453L50 650L146 650L146 461Q146 415 157.50 381Q169 347 195 324.50Q221 302 263.50 291Q306 280 369 280Q393 280 417.50 281Q442 282 465 284L465 650L561 650L561 0L465 0Z"  horiz-adv-x="626" vert-adv-y="1000"  />

      
      <glyph glyph-name="uni0428" unicode="&#x0428;" d="M65 650L160 650L160 77L413 77L413 650L508 650L508 77L761 77L761 650L856 650L856 0L65 0L65 650Z"  horiz-adv-x="921" vert-adv-y="1000"  />

      
      <glyph glyph-name="uni0429" unicode="&#x0429;" d="M65 650L160 650L160 76L413 76L413 650L508 650L508 76L761 76L761 650L856 650L856 76L929 76L920-141L845-141L833 0L65 0L65 650Z"  horiz-adv-x="959" vert-adv-y="1000"  />

      
      <glyph glyph-name="uni042A" unicode="&#x042A;" d="M240 650L240 407L397 407Q451 407 495.50 394.50Q540 382 572.50 356.50Q605 331 623 293Q641 255 641 204Q641 154 623 116Q605 78 573 52.50Q541 27 496 13.50Q451 0 397 0L145 0L145 570L15 578L15 650L240 650M240 78L393 78Q426 78 454 84.50Q482 91 502.50 106Q523 121 534.50 145Q546 169 546 204Q546 239 534.50 263Q523 287 502.50 301.50Q482 316 453.50 322.50Q425 329 391 329L240 329L240 78Z"  horiz-adv-x="681" vert-adv-y="1000"  />

      
      <glyph glyph-name="uni042B" unicode="&#x042B;" d="M622 650L717 650L717 0L622 0L622 650M160 650L160 407L317 407Q371 407 415.50 394.50Q460 382 492.50 356.50Q525 331 543 293Q561 255 561 204Q561 154 543 116Q525 78 493 52.50Q461 27 416 13.50Q371 0 317 0L65 0L65 650L160 650M160 78L313 78Q346 78 374 84.50Q402 91 422.50 106Q443 121 455 145Q467 169 467 204Q467 239 455.50 263Q444 287 423 301.50Q402 316 373.50 322.50Q345 329 311 329L160 329L160 78Z"  horiz-adv-x="782" vert-adv-y="1000"  />

      
      <glyph glyph-name="uni042C" unicode="&#x042C;" d="M160 650L160 407L317 407Q371 407 415.50 394.50Q460 382 492.50 356.50Q525 331 543 293Q561 255 561 204Q561 154 543 116Q525 78 493 52.50Q461 27 416 13.50Q371 0 317 0L65 0L65 650L160 650M160 78L313 78Q346 78 374 84.50Q402 91 422.50 106Q443 121 454.50 145Q466 169 466 204Q466 239 454.50 263Q443 287 422.50 301.50Q402 316 373.50 322.50Q345 329 311 329L160 329L160 78Z"  horiz-adv-x="601" vert-adv-y="1000"  />

      
      <glyph glyph-name="uni042D" unicode="&#x042D;" d="M527 380Q519 425 499.50 463Q480 501 449 528Q418 555 377 570Q336 585 285 585Q231 585 180.50 569Q130 553 82 518L44 591Q95 629 153.50 646Q212 663 285 663Q356 663 418.50 639Q481 615 527 571Q573 527 599.50 465Q626 403 626 326Q626 243 598 179.50Q570 116 523.50 73Q477 30 416.50 8.50Q356-13 291-13Q214-13 157 2Q100 17 47 52L71 134Q97 116 121.50 104Q146 92 170.50 84.50Q195 77 222 74Q249 71 281 71Q332 71 375.50 85.50Q419 100 452 129Q485 158 505.50 201.50Q526 245 530 302L206 302L206 380L527 380Z"  horiz-adv-x="664" vert-adv-y="1000"  />

      
      <glyph glyph-name="uni042E" unicode="&#x042E;" d="M160 650L160 381L267 381Q276 444 303 496Q330 548 372.50 585Q415 622 471.50 642.50Q528 663 594 663Q667 663 728 638.50Q789 614 832.50 569Q876 524 900 462Q924 400 924 325Q924 250 900 188Q876 126 832.50 81Q789 36 728 11.50Q667-13 594-13Q523-13 464 10Q405 33 362 74Q319 115 294 173Q269 231 265 302L160 302L160 0L65 0L65 650L160 650M360 325Q360 263 377 215Q394 167 425 134Q456 101 499 83.50Q542 66 594 66Q646 66 689 83.50Q732 101 763 134Q794 167 811 215Q828 263 828 325Q828 387 811 435Q794 483 763 516Q732 549 689 566.50Q646 584 594 584Q542 584 499 566.50Q456 549 425 516Q394 483 377 435Q360 387 360 325Z"  horiz-adv-x="964" vert-adv-y="1000"  />

      
      <glyph glyph-name="uni042F" unicode="&#x042F;" d="M560 0L465 0L465 257L315 257L143 0L33 0L222 268Q150 286 107 333Q64 380 64 453Q64 499 82 535.50Q100 572 132 597.50Q164 623 209 636.50Q254 650 308 650L560 650L560 0M312 572Q279 572 251 566Q223 560 202.50 545.50Q182 531 170.50 508.50Q159 486 159 453Q159 421 170.50 398.50Q182 376 202.50 362Q223 348 251.50 341.50Q280 335 314 335L465 335L465 572L312 572Z"  horiz-adv-x="625" vert-adv-y="1000"  />

      
      <glyph glyph-name="uni0490" unicode="&#x0490;" d="M387 650L394 750L471 750L477 573L161 573L161 0L65 0L65 650L387 650Z"  horiz-adv-x="516" vert-adv-y="1000"  />

      
      <glyph glyph-name="uni0402" unicode="&#x0402;" d="M509 650L509 574L317 574L317 388Q352 430 399.50 450Q447 470 498 470Q602 470 656 413.50Q710 357 710 251L710 21Q710-77 657.50-141.50Q605-206 508-223L491-144Q557-125 586.50-84.50Q616-44 616 14L616 252Q616 318 589 356Q562 394 498 394Q442 394 397.50 372Q353 350 317 306L317 0L223 0L223 574L25 574L25 650L509 650Z"  horiz-adv-x="765" vert-adv-y="1000"  />

      
      <glyph glyph-name="uni0403" unicode="&#x0403;" d="M477 650L477 573L161 573L161 0L65 0L65 650L477 650M325 881L403 834L305 698L236 698L325 881Z"  horiz-adv-x="516" vert-adv-y="1000"  />

      
      <glyph glyph-name="uni0404" unicode="&#x0404;" d="M472 302L136 302Q140 245 161 201.50Q182 158 216 129Q250 100 294.50 85.50Q339 71 390 71Q420 71 446 74Q472 77 496 84.50Q520 92 544 104Q568 116 594 134L622 52Q568 15 511.50 1Q455-13 380-13Q315-13 253.50 7.50Q192 28 144.50 69.50Q97 111 68.50 175Q40 239 40 326Q40 401 68 463.50Q96 526 144 570Q192 614 256 638.50Q320 663 391 663Q464 663 517.50 646Q571 629 622 591L584 518Q536 553 490.50 569Q445 585 391 585Q340 585 297.50 570Q255 555 222.50 528Q190 501 168.50 463Q147 425 139 380L472 380L472 302Z"  horiz-adv-x="660" vert-adv-y="1000"  />

      
      <glyph glyph-name="uni0405" unicode="&#x0405;" d="M453 531Q412 560 372 572.50Q332 585 281 585Q243 585 219 576.50Q195 568 181 555Q167 542 161.50 525Q156 508 156 492Q156 456 179.50 432Q203 408 259 397L352 378Q434 361 482.50 312Q531 263 531 180Q531 138 513.50 103Q496 68 463 42Q430 16 382.50 1.50Q335-13 275-13Q239-13 209.50-10Q180-7 153 0Q126 7 99.50 18Q73 29 44 45L76 132Q132 97 177 84Q222 71 273 71Q356 71 397.50 102Q439 133 439 179Q439 231 411.50 257.50Q384 284 319 296L217 315Q145 329 105.50 377.50Q66 426 66 488Q66 527 80 559Q94 591 121.50 614Q149 637 189 650Q229 663 281 663Q345 663 394 651Q443 639 493 606L453 531Z"  horiz-adv-x="574" vert-adv-y="1000"  />

      
      <glyph glyph-name="uni0407" unicode="&#x0407;" d="M160 650L160 0L65 0L65 650L160 650M3 829Q34 829 50.50 812Q67 795 67 768Q67 742 50.50 725Q34 708 3 708Q-26 708-42.50 725Q-59 742-59 768Q-59 795-42.50 812Q-26 829 3 829M222 829Q251 829 268 812Q285 795 285 768Q285 742 268 725Q251 708 222 708Q193 708 176 725Q159 742 159 768Q159 795 176 812Q193 829 222 829Z"  horiz-adv-x="225" vert-adv-y="1000"  />

      
      <glyph glyph-name="uni0408" unicode="&#x0408;" d="M179 650L179 18Q179-49 162-95.50Q145-142 114.50-172.50Q84-203 42-219.50Q0-236-49-243L-79-165Q-39-159-8-148.50Q23-138 43.50-118Q64-98 74.50-64.50Q85-31 85 21L85 650L179 650Z"  horiz-adv-x="244" vert-adv-y="1000"  />

      
      <glyph glyph-name="uni0409" unicode="&#x0409;" d="M635 650L635 407L772 407Q826 407 870.50 394.50Q915 382 947.50 356.50Q980 331 998 293Q1016 255 1016 204Q1016 154 998 116Q980 78 948 52.50Q916 27 871 13.50Q826 0 772 0L540 0L540 574L302 574L302 423Q302 200 250 95Q198-8 93-8Q68-8 49-5Q30-2 13 6L27 83Q42 78 55.50 76Q69 74 83 74Q137 74 167 136Q210 226 210 463L210 650L635 650M635 78L768 78Q801 78 829 84.50Q857 91 877.50 106Q898 121 909.50 145Q921 169 921 204Q921 239 909.50 263Q898 287 877.50 301.50Q857 316 828.50 322.50Q800 329 766 329L635 329L635 78Z"  horiz-adv-x="1051" vert-adv-y="1000"  />

      
      <glyph glyph-name="uni040A" unicode="&#x040A;" d="M160 650L160 397L484 397L484 650L579 650L579 397L721 397Q775 397 819.50 385Q864 373 896.50 349Q929 325 947 287.50Q965 250 965 199Q965 149 947 112Q929 75 897 50Q865 25 820 12.50Q775 0 721 0L484 0L484 320L160 320L160 0L65 0L65 650L160 650M579 78L717 78Q750 78 778 84Q806 90 826.50 104Q847 118 858.50 141Q870 164 870 199Q870 234 858.50 257.50Q847 281 826.50 294.50Q806 308 777.50 313.50Q749 319 715 319L579 319L579 78Z"  horiz-adv-x="1000" vert-adv-y="1000"  />

      
      <glyph glyph-name="uni040B" unicode="&#x040B;" d="M509 650L509 574L317 574L317 388Q352 430 399.50 450Q447 470 498 470Q602 470 656 413.50Q710 357 710 251L710 0L616 0L616 252Q616 318 589 356Q562 394 498 394Q442 394 397.50 372Q353 350 317 306L317 0L223 0L223 574L25 574L25 650L509 650Z"  horiz-adv-x="765" vert-adv-y="1000"  />

      
      <glyph glyph-name="uni040C" unicode="&#x040C;" d="M161 650L161 411L300 411L404 578Q429 618 462.50 639Q496 660 536 660Q571 660 605 650L591 570Q574 575 556 575Q530 575 510 564.50Q490 554 471 524L376 375L620 0L511 0L300 332L161 332L161 0L65 0L65 650L161 650M350 881L428 834L330 698L261 698L350 881Z"  horiz-adv-x="659" vert-adv-y="1000"  />

      
      <glyph glyph-name="uni040E" unicode="&#x040E;" d="M132 650L359 131L365 131L559 650L657 650L420 49Q403 5 384-28.50Q365-62 342.50-84.50Q320-107 292.50-119Q265-131 230-131Q202-131 180.50-125.50Q159-120 138-107L160-32Q176-40 189-43Q202-46 216-46Q247-46 273-30.50Q299-15 315 32L25 650L132 650M248 829Q262 800 287.50 785Q313 770 344 770Q412 770 441 829L501 802Q484 749 442.50 723Q401 697 344 697Q288 697 245.50 724Q203 751 188 802L248 829Z"  horiz-adv-x="682" vert-adv-y="1000"  />

      
      <glyph glyph-name="uni0430" unicode="&#x0430;" d="M79 466Q135 489 182.50 499.50Q230 510 292 510Q403 510 455.50 469Q508 428 508 336L508 127Q508 91 520 78.50Q532 66 570 66L570 0Q553-5 538.50-7.50Q524-10 504-10Q473-10 455 12Q437 34 434 72Q365-10 228-10Q140-10 94.50 31Q49 72 49 143Q49 177 59.50 205Q70 233 96 262Q130 272 164.50 280Q199 288 238 293Q277 298 321 301Q365 304 418 305L418 333Q418 385 389.50 409Q361 433 288 433Q194 433 99 392L79 466M418 238Q331 236 271.50 228.50Q212 221 163 208Q143 184 143 148Q143 107 168.50 86.50Q194 66 241 66Q291 66 333.50 81Q376 96 418 132L418 238Z"  horiz-adv-x="602" vert-adv-y="1000"  />

      
      <glyph glyph-name="uni0431" unicode="&#x0431;" d="M566 687Q543 645 504.50 620Q466 595 413 585L291 563Q216 549 181 501Q146 453 134 376L142 376Q171 426 221 448Q271 470 334 470Q386 470 430 454Q474 438 506.50 407.50Q539 377 557.50 332Q576 287 576 230Q576 174 556 130Q536 86 501 54.50Q466 23 418.50 6.50Q371-10 317-10Q246-10 195 12Q144 34 111 74Q78 114 62 170.50Q46 227 46 295Q46 377 63.50 438Q81 499 113.50 542Q146 585 191 610.50Q236 636 291 646L408 668Q436 673 463 690.50Q490 708 510 735L566 687M143 232Q143 194 156 163.50Q169 133 191.50 110.50Q214 88 245.50 76Q277 64 315 64Q352 64 383.50 75.50Q415 87 437 109Q459 131 471.50 161.50Q484 192 484 230Q484 309 440.50 352.50Q397 396 317 396Q277 396 245 383.50Q213 371 190.50 349.50Q168 328 155.50 298Q143 268 143 232Z"  horiz-adv-x="616" vert-adv-y="1000"  />

      
      <glyph glyph-name="uni0432" unicode="&#x0432;" d="M307 500Q342 500 373.50 492Q405 484 429 467.50Q453 451 467 426Q481 401 481 366Q481 333 465.50 311Q450 289 424 275L424 270Q463 259 487.50 227.50Q512 196 512 151Q512 115 498.50 87Q485 59 460.50 39.50Q436 20 403 10Q370 0 331 0L65 0L65 500L307 500M158 70L321 70Q369 70 394.50 89Q420 108 420 149Q420 189 396 206Q372 223 322 223L158 223L158 70M158 294L317 294Q349 294 369.50 311Q390 328 390 361Q390 393 369.50 411Q349 429 313 429L158 429L158 294Z"  horiz-adv-x="554" vert-adv-y="1000"  />

      
      <glyph glyph-name="uni0433" unicode="&#x0433;" d="M435 500L435 423L158 423L158 0L65 0L65 500L435 500Z"  horiz-adv-x="476" vert-adv-y="1000"  />

      
      <glyph glyph-name="uni0434" unicode="&#x0434;" d="M540 500L540 74L603 74L592-122L522-122L511 0L114 0L97-122L24-122L24 70Q62 90 87.50 119.50Q113 149 128 187Q143 225 149.50 270.50Q156 316 156 368L156 500L540 500M242 334Q242 250 220.50 186Q199 122 148 74L447 74L447 425L242 425L242 334Z"  horiz-adv-x="632" vert-adv-y="1000"  />

      
      <glyph glyph-name="uni0435" unicode="&#x0435;" d="M136 227Q139 186 155 155.50Q171 125 197 105.50Q223 86 256.50 76.50Q290 67 326 67Q379 67 419.50 75.50Q460 84 499 106L526 30Q501 18 478.50 10.50Q456 3 432-1.50Q408-6 380.50-8Q353-10 320-10Q252-10 200 8Q148 26 112.50 60Q77 94 58.50 142Q40 190 40 249Q40 307 60.50 355.50Q81 404 118 438Q155 472 204.50 491Q254 510 313 510Q373 510 417 494.50Q461 479 490 451.50Q519 424 533 386Q547 348 547 303Q547 282 545 264.50Q543 247 538 227L136 227M457 299Q456 373 420 404Q384 435 303 435Q273 435 243.50 426.50Q214 418 191 401Q168 384 152.50 358.50Q137 333 134 299L457 299Z"  horiz-adv-x="587" vert-adv-y="1000"  />

      
      <glyph glyph-name="uni0451" unicode="&#x0451;" d="M136 227Q139 186 155 155.50Q171 125 197 105.50Q223 86 256.50 76.50Q290 67 326 67Q379 67 419.50 75.50Q460 84 499 106L526 30Q501 18 478.50 10.50Q456 3 432-1.50Q408-6 380.50-8Q353-10 320-10Q252-10 200 8Q148 26 112.50 60Q77 94 58.50 142Q40 190 40 249Q40 307 60.50 355.50Q81 404 118 438Q155 472 204.50 491Q254 510 313 510Q373 510 417 494.50Q461 479 490 451.50Q519 424 533 386Q547 348 547 303Q547 282 545 264.50Q543 247 538 227L136 227M457 299Q456 373 420 404Q384 435 303 435Q273 435 243.50 426.50Q214 418 191 401Q168 384 152.50 358.50Q137 333 134 299L457 299M205 681Q234 681 250.50 664Q267 647 267 621Q267 596 250.50 579.50Q234 563 205 563Q177 563 160.50 579.50Q144 596 144 621Q144 647 160.50 664Q177 681 205 681M428 681Q457 681 473.50 664Q490 647 490 621Q490 596 473.50 579.50Q457 563 428 563Q400 563 383.50 579.50Q367 596 367 621Q367 647 383.50 664Q400 681 428 681Z"  horiz-adv-x="587" vert-adv-y="1000"  />

      
      <glyph glyph-name="uni0436" unicode="&#x0436;" d="M494 500L494 312L590 312L657 438Q676 473 703.50 490.50Q731 508 773 508Q791 508 806 505Q821 502 832 497L817 428Q800 432 783 432Q763 432 749 421Q735 410 723 388L663 279L853 0L749 0L590 240L494 240L494 0L404 0L404 240L308 240L149 0L45 0L235 279L175 388Q163 410 149 421Q135 432 115 432Q98 432 81 428L66 497Q77 502 92 505Q107 508 125 508Q167 508 194.50 490.50Q222 473 241 438L308 312L404 312L404 500L494 500Z"  horiz-adv-x="898" vert-adv-y="1000"  />

      
      <glyph glyph-name="uni0437" unicode="&#x0437;" d="M50 469Q74 480 97 488Q120 496 144 501Q168 506 194 508Q220 510 252 510Q288 510 323.50 503Q359 496 387 480Q415 464 432.50 437Q450 410 450 371Q450 339 437 316Q424 293 392 278L392 274Q439 257 460.50 229Q482 201 482 153Q482 118 467.50 88Q453 58 423 36.50Q393 15 347 2.50Q301-10 238-10Q170-10 120 1.50Q70 13 24 40L58 109Q99 86 140.50 75Q182 64 237 64Q266 64 293 68Q320 72 341 82.50Q362 93 374.50 110Q387 127 387 154Q387 196 360.50 214.50Q334 233 285 233L137 233L137 305L278 305Q293 305 307.50 308Q322 311 333.50 317.50Q345 324 352 336Q359 348 359 366Q359 407 328 422Q297 437 240 437Q190 437 153 428Q116 419 78 400L50 469Z"  horiz-adv-x="531" vert-adv-y="1000"  />

      
      <glyph glyph-name="uni0438" unicode="&#x0438;" d="M156 500L156 246L153 118L451 500L539 500L539 0L448 0L448 197L450 376L155 0L65 0L65 500L156 500Z"  horiz-adv-x="604" vert-adv-y="1000"  />

      
      <glyph glyph-name="uni0439" unicode="&#x0439;" d="M156 500L156 246L153 118L451 500L539 500L539 0L448 0L448 197L450 376L155 0L65 0L65 500L156 500M234 669Q239 646 255.50 632Q272 618 302 618Q332 618 348.50 632Q365 646 370 669L440 656Q427 601 388.50 574Q350 547 302 547Q254 547 215.50 574Q177 601 164 656L234 669Z"  horiz-adv-x="604" vert-adv-y="1000"  />

      
      <glyph glyph-name="uni043A" unicode="&#x043A;" d="M158 500L158 315L282 315L352 438Q374 476 404.50 492Q435 508 477 508Q511 508 532 497L516 423Q497 427 481 427Q457 427 443.50 416Q430 405 417 384L354 277L535 0L427 0L277 240L158 240L158 0L65 0L65 500L158 500Z"  horiz-adv-x="566" vert-adv-y="1000"  />

      
      <glyph glyph-name="uni043B" unicode="&#x043B;" d="M546 500L546 0L454 0L454 426L250 426L250 346Q250 299 247.50 254.50Q245 210 238 170.50Q231 131 217 98Q203 65 181 40Q161 17 134.50 4.50Q108-8 70-8Q49-8 34-5Q19-2 3 6L15 76Q33 70 49 70Q73 70 87.50 74Q102 78 115 92Q145 124 153.50 191Q162 258 162 356L162 500L546 500Z"  horiz-adv-x="611" vert-adv-y="1000"  />

      
      <glyph glyph-name="uni043C" unicode="&#x043C;" d="M179 500L362 196L542 500L659 500L659 0L567 0L567 226L570 388L565 388L389 100L329 100L155 388L150 388L152 253L152 0L65 0L65 500L179 500Z"  horiz-adv-x="724" vert-adv-y="1000"  />

      
      <glyph glyph-name="uni043D" unicode="&#x043D;" d="M157 500L157 297L435 297L435 500L527 500L527 0L435 0L435 223L157 223L157 0L65 0L65 500L157 500Z"  horiz-adv-x="592" vert-adv-y="1000"  />

      
      <glyph glyph-name="uni043E" unicode="&#x043E;" d="M598 250Q598 190 576 142Q554 94 516.50 60Q479 26 428 8Q377-10 319-10Q261-10 210 8Q159 26 121.50 60Q84 94 62 142Q40 190 40 250Q40 310 62 358Q84 406 121.50 440Q159 474 210 492Q261 510 319 510Q377 510 428 492Q479 474 516.50 440Q554 406 576 358Q598 310 598 250M131 250Q131 163 181 113Q231 63 319 63Q407 63 457 113Q507 163 507 250Q507 337 457 387Q407 437 319 437Q231 437 181 387Q131 337 131 250Z"  horiz-adv-x="638" vert-adv-y="1000"  />

      
      <glyph glyph-name="uni043F" unicode="&#x043F;" d="M518 500L518 0L426 0L426 426L157 426L157 0L65 0L65 500L518 500Z"  horiz-adv-x="583" vert-adv-y="1000"  />

      
      <glyph glyph-name="uni0440" unicode="&#x0440;" d="M65 481Q94 488 120.50 493.50Q147 499 174 502.50Q201 506 230 508Q259 510 292 510Q427 510 498 441Q569 372 569 249Q569 192 553 144.50Q537 97 505.50 62.50Q474 28 425.50 9Q377-10 313-10Q262-10 227 0.50Q192 11 158 37L158-230L65-230L65 481M158 123Q194 92 231 80Q268 68 313 68Q389 68 432.50 115.50Q476 163 476 249Q476 343 427.50 390Q379 437 292 437Q269 437 251.50 436Q234 435 218.50 432.50Q203 430 188.50 426.50Q174 423 158 418L158 123Z"  horiz-adv-x="609" vert-adv-y="1000"  />

      
      <glyph glyph-name="uni0441" unicode="&#x0441;" d="M471 403Q438 420 404.50 428Q371 436 333 436Q239 436 186.50 388Q134 340 134 249Q134 208 148.50 174Q163 140 188.50 116Q214 92 247 79Q280 66 318 66Q411 66 488 108L516 35Q468 9 420-0.50Q372-10 313-10Q250-10 199.50 9.50Q149 29 113.50 63.50Q78 98 59 145Q40 192 40 247Q40 306 62.50 354.50Q85 403 124 437.50Q163 472 215 491Q267 510 327 510Q387 510 429.50 501Q472 492 510 472L471 403Z"  horiz-adv-x="548" vert-adv-y="1000"  />

      
      <glyph glyph-name="uni0442" unicode="&#x0442;" d="M35 427L35 500L484 500L484 427L306 427L306 0L213 0L213 427L35 427Z"  horiz-adv-x="519" vert-adv-y="1000"  />

      
      <glyph glyph-name="uni0443" unicode="&#x0443;" d="M579 500L355-82Q332-142 290-172Q248-202 194-202Q179-202 167-201Q155-200 142-196L152-121Q178-121 198-118.50Q218-116 233.50-108.50Q249-101 260-87Q271-73 280-50L298 0L226 0L20 500L125 500L283 77L326 77L478 500L579 500Z"  horiz-adv-x="599" vert-adv-y="1000"  />

      
      <glyph glyph-name="uni0444" unicode="&#x0444;" d="M452 720L452 500Q468 504 484.50 507Q501 510 517 510Q574 510 621.50 493Q669 476 703 443Q737 410 755.50 361.50Q774 313 774 250Q774 191 754 143Q734 95 699 61Q664 27 617.50 8.50Q571-10 517-10Q501-10 484.50-7Q468-4 452 0L452-230L362-230L362 0Q346-4 329.50-7Q313-10 297-10Q240-10 192.50 7Q145 24 111 57Q77 90 58.50 138.50Q40 187 40 250Q40 309 60 357Q80 405 115 439Q150 473 196.50 491.50Q243 510 297 510Q313 510 329.50 507Q346 504 362 500L362 720L452 720M452 73Q481 63 512 63Q589 63 635 111Q681 159 681 250Q681 341 635 389Q589 437 512 437Q481 437 452 427L452 73M362 427Q333 437 302 437Q225 437 179 389Q133 341 133 250Q133 159 179 111Q225 63 302 63Q333 63 362 73L362 427Z"  horiz-adv-x="814" vert-adv-y="1000"  />

      
      <glyph glyph-name="uni0445" unicode="&#x0445;" d="M155 500L290 300L294 300L439 500L542 500L366 262L558 0L448 0L294 220L290 220L134 0L30 0L223 261L46 500L155 500Z"  horiz-adv-x="607" vert-adv-y="1000"  />

      
      <glyph glyph-name="uni0446" unicode="&#x0446;" d="M158 500L158 74L421 74L421 500L514 500L514 74L578 74L571-122L501-122L490 0L65 0L65 500L158 500Z"  horiz-adv-x="607" vert-adv-y="1000"  />

      
      <glyph glyph-name="uni0447" unicode="&#x0447;" d="M137 500L137 353Q137 286 169.50 254.50Q202 223 270 223Q313 223 345 231.50Q377 240 411 261L411 500L504 500L504 0L411 0L411 188Q345 146 261 146Q158 146 101 197Q44 248 44 349L44 500L137 500Z"  horiz-adv-x="569" vert-adv-y="1000"  />

      
      <glyph glyph-name="uni0448" unicode="&#x0448;" d="M65 500L157 500L157 74L372 74L372 500L464 500L464 74L679 74L679 500L771 500L771 0L65 0L65 500Z"  horiz-adv-x="836" vert-adv-y="1000"  />

      
      <glyph glyph-name="uni0449" unicode="&#x0449;" d="M157 500L157 74L371 74L371 500L463 500L463 74L677 74L677 500L769 500L769 74L822 74L814-122L743-122L732 0L65 0L65 500L157 500Z"  horiz-adv-x="852" vert-adv-y="1000"  />

      
      <glyph glyph-name="uni044A" unicode="&#x044A;" d="M239 500L239 325Q269 338 304.50 346Q340 354 379 354Q426 354 465 342.50Q504 331 531.50 309Q559 287 574.50 253.50Q590 220 590 177Q590 130 573.50 97Q557 64 528 42Q499 20 459.50 10Q420 0 374 0L146 0L146 425L29 431L29 500L239 500M364 73Q430 73 463.50 98.50Q497 124 497 178Q497 227 468 253.50Q439 280 386 280Q360 280 340 279Q320 278 303.50 275.50Q287 273 271.50 268.50Q256 264 239 258L239 73L364 73Z"  horiz-adv-x="629" vert-adv-y="1000"  />

      
      <glyph glyph-name="uni044B" unicode="&#x044B;" d="M669 500L669 0L576 0L576 500L669 500M158 500L158 325Q188 338 223.50 346Q259 354 298 354Q345 354 384 342.50Q423 331 450.50 309Q478 287 493.50 253.50Q509 220 509 177Q509 130 492.50 97Q476 64 447 42Q418 20 378.50 10Q339 0 293 0L65 0L65 500L158 500M283 73Q349 73 382.50 98.50Q416 124 416 178Q416 227 387 253.50Q358 280 305 280Q279 280 259 279Q239 278 222.50 275.50Q206 273 190.50 268.50Q175 264 158 258L158 73L283 73Z"  horiz-adv-x="734" vert-adv-y="1000"  />

      
      <glyph glyph-name="uni044C" unicode="&#x044C;" d="M158 500L158 325Q188 338 223.50 346Q259 354 298 354Q345 354 384 342.50Q423 331 450.50 309Q478 287 493.50 253.50Q509 220 509 177Q509 130 492.50 97Q476 64 447 42Q418 20 378.50 10Q339 0 293 0L65 0L65 500L158 500M283 73Q349 73 382.50 98.50Q416 124 416 178Q416 227 387 253.50Q358 280 305 280Q279 280 259 279Q239 278 222.50 275.50Q206 273 190.50 268.50Q175 264 158 258L158 73L283 73Z"  horiz-adv-x="549" vert-adv-y="1000"  />

      
      <glyph glyph-name="uni044D" unicode="&#x044D;" d="M415 299Q404 368 359 402Q314 436 239 436Q195 436 156 427.50Q117 419 77 399L44 465Q92 488 140 499Q188 510 245 510Q313 510 363.50 490.50Q414 471 447 436.50Q480 402 496.50 355Q513 308 513 253Q513 194 492 145.50Q471 97 433 62.50Q395 28 342 9Q289-10 226-10Q172-10 126-1.50Q80 7 36 29L59 104Q100 83 141 74.50Q182 66 220 66Q307 66 358.50 107Q410 148 418 227L152 227L152 299L415 299Z"  horiz-adv-x="548" vert-adv-y="1000"  />

      
      <glyph glyph-name="uni044E" unicode="&#x044E;" d="M156 500L156 296L249 296Q256 346 278 385.50Q300 425 334 453Q368 481 412 495.50Q456 510 507 510Q565 510 613 492Q661 474 695.50 440Q730 406 749 358Q768 310 768 250Q768 190 748.50 142Q729 94 694 60Q659 26 611.50 8Q564-10 507-10Q452-10 406.50 6Q361 22 327 52Q293 82 272 125Q251 168 247 222L156 222L156 0L65 0L65 500L156 500M336 250Q336 163 381.50 113Q427 63 507 63Q587 63 632.50 113Q678 163 678 250Q678 337 632.50 387Q587 437 507 437Q427 437 381.50 387Q336 337 336 250Z"  horiz-adv-x="808" vert-adv-y="1000"  />

      
      <glyph glyph-name="uni044F" unicode="&#x044F;" d="M416 0L416 169Q386 157 345 152Q304 147 256 147L160 0L56 0L169 166Q119 185 87 223Q55 261 55 321Q55 367 73 401Q91 435 122 457Q153 479 194 489.50Q235 500 281 500L509 500L509 0L416 0M288 427Q222 427 185 400.50Q148 374 148 320Q148 271 180.50 245.50Q213 220 266 220Q333 222 350 224.50Q367 227 383 230Q399 233 416 238L416 427L288 427Z"  horiz-adv-x="563" vert-adv-y="1000"  />

      
      <glyph glyph-name="uni0491" unicode="&#x0491;" d="M365 500L376 588L447 588L453 424L158 424L158 0L65 0L65 500L365 500Z"  horiz-adv-x="483" vert-adv-y="1000"  />

      
      <glyph glyph-name="uni0452" unicode="&#x0452;" d="M173 729L173 627L394 627L390 547L173 555L173 418Q208 460 253 480Q298 500 352 500Q456 500 508.50 442.50Q561 385 561 279L561 36Q561-68 509-128.50Q457-189 360-203L343-127Q409-114 438.50-76Q468-38 468 27L468 280Q468 346 442 385Q416 424 352 424Q296 424 253.50 402.50Q211 381 173 336L173 0L80 0L80 552L0 560L0 609L70 647L132 733L173 729Z"  horiz-adv-x="625" vert-adv-y="1000"  />

      
      <glyph glyph-name="uni0453" unicode="&#x0453;" d="M435 500L435 423L158 423L158 0L65 0L65 500L435 500M322 746L395 699L292 563L228 563L322 746Z"  horiz-adv-x="476" vert-adv-y="1000"  />

      
      <glyph glyph-name="uni0454" unicode="&#x0454;" d="M405 227L135 227Q139 190 155 160.50Q171 131 195.50 110Q220 89 251.50 77.50Q283 66 318 66Q411 66 488 108L516 35Q468 9 420-0.50Q372-10 313-10Q250-10 199.50 9.50Q149 29 113.50 63.50Q78 98 59 145Q40 192 40 247Q40 306 62.50 354.50Q85 403 124 437.50Q163 472 215 491Q267 510 327 510Q387 510 429.50 501Q472 492 510 472L471 403Q438 420 404.50 428Q371 436 333 436Q253 436 203 401Q153 366 139 299L405 299L405 227Z"  horiz-adv-x="548" vert-adv-y="1000"  />

      
      <glyph glyph-name="uni0455" unicode="&#x0455;" d="M406 407Q367 425 331.50 431.50Q296 438 255 438Q189 438 159.50 419.50Q130 401 130 372Q130 335 163.50 321.50Q197 308 263 301Q357 291 408.50 255.50Q460 220 460 143Q460 65 396 27.50Q332-10 222-10Q167-10 125.50-2.50Q84 5 40 24L63 100Q137 65 218 65Q373 65 373 144Q373 163 366 176Q359 189 343 197.50Q327 206 301 211.50Q275 217 236 221Q138 231 90 264Q42 297 42 365Q42 395 55 421.50Q68 448 94.50 467.50Q121 487 161.50 498.50Q202 510 256 510Q283 510 305.50 508.50Q328 507 349 503.50Q370 500 391 494Q412 488 435 479L406 407Z"  horiz-adv-x="502" vert-adv-y="1000"  />

      
      <glyph glyph-name="uni0456" unicode="&#x0456;" d="M158 500L158 0L65 0L65 500L158 500M112 716Q143 716 160 697.50Q177 679 177 653Q177 628 160 609Q143 590 112 590Q81 590 64 609Q47 628 47 653Q47 679 64 697.50Q81 716 112 716Z"  horiz-adv-x="223" vert-adv-y="1000"  />

      
      <glyph glyph-name="uni0457" unicode="&#x0457;" d="M158 500L158 0L65 0L65 500L158 500M0 681Q29 681 45.50 664Q62 647 62 621Q62 596 45.50 579.50Q29 563 0 563Q-28 563-44.50 579.50Q-61 596-61 621Q-61 647-44.50 664Q-28 681 0 681M223 681Q252 681 268.50 664Q285 647 285 621Q285 596 268.50 579.50Q252 563 223 563Q195 563 178.50 579.50Q162 596 162 621Q162 647 178.50 664Q195 681 223 681Z"  horiz-adv-x="223" vert-adv-y="1000"  />

      
      <glyph glyph-name="uni0458" unicode="&#x0458;" d="M168 500L168-29Q168-130 116-185.50Q64-241-33-243L-40-164Q19-160 46.50-132Q74-104 74-46L74 500L168 500M121 716Q152 716 169 697.50Q186 679 186 653Q186 628 169 609Q152 590 121 590Q90 590 73 609Q56 628 56 653Q56 679 73 697.50Q90 716 121 716Z"  horiz-adv-x="233" vert-adv-y="1000"  />

      
      <glyph glyph-name="uni0459" unicode="&#x0459;" d="M526 500L526 325Q552 339 580.50 346.50Q609 354 646 354Q693 354 732 342.50Q771 331 798.50 309Q826 287 841.50 253.50Q857 220 857 177Q857 130 840.50 97Q824 64 795 42Q766 20 726.50 10Q687 0 641 0L434 0L434 426L249 426L249 346Q249 299 246.50 254.50Q244 210 237 170.50Q230 131 216 97.50Q202 64 180 39Q160 16 134 4.50Q108-7 70-7Q49-7 34-5Q19-3 3 4L14 74Q23 71 31.50 70Q40 69 48 69Q72 69 87 75Q102 81 115 95Q145 127 153.50 192.50Q162 258 162 356L162 500L526 500M631 73Q697 73 730.50 98.50Q764 124 764 178Q764 227 733.50 253.50Q703 280 643 280Q624 280 609.50 279Q595 278 581.50 275.50Q568 273 554.50 268.50Q541 264 526 258L526 73L631 73Z"  horiz-adv-x="887" vert-adv-y="1000"  />

      
      <glyph glyph-name="uni045A" unicode="&#x045A;" d="M157 500L157 297L424 297L424 500L516 500L516 325Q542 339 571.50 346.50Q601 354 638 354Q685 354 723.50 342.50Q762 331 789.50 309Q817 287 832 253.50Q847 220 847 177Q847 130 830.50 97Q814 64 785 42Q756 20 716.50 10Q677 0 631 0L424 0L424 223L157 223L157 0L65 0L65 500L157 500M621 73Q687 73 720.50 98.50Q754 124 754 178Q754 227 724.50 253.50Q695 280 635 280Q616 280 601 279Q586 278 572 275.50Q558 273 544.50 268.50Q531 264 516 258L516 73L621 73Z"  horiz-adv-x="877" vert-adv-y="1000"  />

      
      <glyph glyph-name="uni045B" unicode="&#x045B;" d="M173 729L173 627L394 627L390 547L173 555L173 418Q208 460 253 480Q298 500 352 500Q456 500 508.50 442.50Q561 385 561 279L561 0L468 0L468 280Q468 346 442 385Q416 424 352 424Q296 424 253.50 402.50Q211 381 173 336L173 0L80 0L80 552L0 560L0 609L70 647L132 733L173 729Z"  horiz-adv-x="625" vert-adv-y="1000"  />

      
      <glyph glyph-name="uni045C" unicode="&#x045C;" d="M335 746L408 699L305 563L241 563L335 746M158 500L158 315L282 315L352 438Q374 476 404.50 492Q435 508 477 508Q511 508 532 497L516 423Q497 427 481 427Q457 427 443.50 416Q430 405 417 384L354 277L535 0L427 0L277 240L158 240L158 0L65 0L65 500L158 500Z"  horiz-adv-x="566" vert-adv-y="1000"  />

      
      <glyph glyph-name="uni045E" unicode="&#x045E;" d="M579 500L355-82Q332-142 290-172Q248-202 194-202Q179-202 167-201Q155-200 142-196L152-121Q178-121 198-118.50Q218-116 233.50-108.50Q249-101 260-87Q271-73 280-50L298 0L226 0L20 500L125 500L283 77L326 77L478 500L579 500M232 669Q237 646 253.50 632Q270 618 300 618Q330 618 346.50 632Q363 646 368 669L438 656Q425 601 386.50 574Q348 547 300 547Q252 547 213.50 574Q175 601 162 656L232 669Z"  horiz-adv-x="599" vert-adv-y="1000"  />

      
      <glyph glyph-name="uni040F" unicode="&#x040F;" d="M161 650L161 78L495 78L495 650L591 650L591 0L383 0L371-141L301-141L289 0L65 0L65 650L161 650Z"  horiz-adv-x="656" vert-adv-y="1000"  />

      
      <glyph glyph-name="uni045F" unicode="&#x045F;" d="M159 500L159 74L457 74L457 500L550 500L550 0L353 0L344-122L271-122L262 0L65 0L65 500L159 500Z"  horiz-adv-x="615" vert-adv-y="1000"  />

      
      <glyph glyph-name="uni2116" unicode="&#x2116;" d="M964 198L964 132L722 132L722 198L964 198M984 385Q984 356 973.50 331.50Q963 307 944 289Q925 271 899 261Q873 251 843 251Q813 251 787 261Q761 271 742 289Q723 307 712.50 331.50Q702 356 702 385Q702 414 712.50 438.50Q723 463 742 481Q761 499 787 509Q813 519 843 519Q873 519 899 509Q925 499 944 481Q963 463 973.50 438.50Q984 414 984 385M164 650L561 120L558 289L558 650L649 650L649 0L547 0L149 531L155 335L155 0L65 0L65 650L164 650M773 385Q773 350 792 332Q811 314 843 314Q875 314 894 332Q913 350 913 385Q913 420 894 438Q875 456 843 456Q811 456 792 438Q773 420 773 385Z"  horiz-adv-x="1024" vert-adv-y="1000"  />

      
      <glyph glyph-name="unie0" unicode="&#xe0;" d="M79 466Q135 489 182.50 499.50Q230 510 292 510Q403 510 455.50 469Q508 428 508 336L508 127Q508 91 520 78.50Q532 66 570 66L570 0Q553-5 538.50-7.50Q524-10 504-10Q473-10 455 12Q437 34 434 72Q365-10 228-10Q140-10 94.50 31Q49 72 49 143Q49 177 59.50 205Q70 233 96 262Q130 272 164.50 280Q199 288 238 293Q277 298 321 301Q365 304 418 305L418 333Q418 385 389.50 409Q361 433 288 433Q194 433 99 392L79 466M418 238Q331 236 271.50 228.50Q212 221 163 208Q143 184 143 148Q143 107 168.50 86.50Q194 66 241 66Q291 66 333.50 81Q376 96 418 132L418 238M331 563L267 563L164 699L237 746L331 563Z"  horiz-adv-x="602" vert-adv-y="1000"  />

      
      <glyph glyph-name="uni0101" unicode="&#x0101;" d="M79 466Q135 489 182.50 499.50Q230 510 292 510Q403 510 455.50 469Q508 428 508 336L508 127Q508 91 520 78.50Q532 66 570 66L570 0Q553-5 538.50-7.50Q524-10 504-10Q473-10 455 12Q437 34 434 72Q365-10 228-10Q140-10 94.50 31Q49 72 49 143Q49 177 59.50 205Q70 233 96 262Q130 272 164.50 280Q199 288 238 293Q277 298 321 301Q365 304 418 305L418 333Q418 385 389.50 409Q361 433 288 433Q194 433 99 392L79 466M418 238Q331 236 271.50 228.50Q212 221 163 208Q143 184 143 148Q143 107 168.50 86.50Q194 66 241 66Q291 66 333.50 81Q376 96 418 132L418 238M450 642L450 572L136 572L136 642L450 642Z"  horiz-adv-x="602" vert-adv-y="1000"  />

      
      <glyph glyph-name="uni26" unicode="&#x26;" d="M658 431L663 360L612 360Q612 321 609 290Q606 259 600 232.50Q594 206 584 181.50Q574 157 559 132Q617 80 685 71L659-8Q632-4 611.50 1.50Q591 7 573.50 15.50Q556 24 540 35.50Q524 47 506 64Q459 23 410 5Q361-13 295-13Q241-13 194 2Q147 17 113 44.50Q79 72 59.50 111.50Q40 151 40 200Q40 260 72.50 306Q105 352 156 378Q104 421 104 493Q104 523 119 549Q134 575 161.50 594Q189 613 226.50 624Q264 635 309 635Q360 635 407 623.50Q454 612 502 583L463 514Q397 560 309 560Q250 560 221 540.50Q192 521 192 489Q192 450 224 421L491 184Q501 205 508 224Q515 243 518.50 263Q522 283 523.50 304.50Q525 326 525 352L435 367L441 431L658 431M205 328Q131 292 131 206Q131 174 143.50 148Q156 122 177.50 102.50Q199 83 228 72.50Q257 62 291 62Q343 62 378.50 75Q414 88 445 117L205 328Z"  horiz-adv-x="714" vert-adv-y="1000"  />

      
      <glyph glyph-name="uni0105" unicode="&#x0105;" d="M79 466Q135 489 182.50 499.50Q230 510 292 510Q403 510 455.50 469Q508 428 508 336L508 127Q508 91 520 78.50Q532 66 570 66L570 0Q540-15 530.50-31.50Q521-48 521-67Q521-83 530-93.50Q539-104 565-104Q579-104 594-100L577-165Q568-167 559.50-168Q551-169 543-169Q492-169 470.50-145Q449-121 449-86Q449-64 460-43.50Q471-23 494-7Q468-2 452 18.50Q436 39 434 72Q365-10 228-10Q140-10 94.50 31Q49 72 49 143Q49 177 59.50 205Q70 233 96 262Q130 272 164.50 280Q199 288 238 293Q277 298 321 301Q365 304 418 305L418 333Q418 385 389.50 409Q361 433 288 433Q194 433 99 392L79 466M418 238Q331 236 271.50 228.50Q212 221 163 208Q143 184 143 148Q143 107 168.50 86.50Q194 66 241 66Q291 66 333.50 81Q376 96 418 132L418 238Z"  horiz-adv-x="602" vert-adv-y="1000"  />

      
      <glyph glyph-name="uni2248" unicode="&#x2248;" d="M40 278Q62 302 89 314Q116 326 152 326Q177 326 192.50 320Q208 314 221 306.50Q234 299 247 293Q260 287 280 287Q301 287 315.50 294Q330 301 347 318L388 268Q365 239 340 225.50Q315 212 281 212Q258 212 241 218.50Q224 225 209 232.50Q194 240 179 246.50Q164 253 146 253Q120 253 102 243.50Q84 234 68 214L40 278M40 416Q62 440 89 452Q116 464 152 464Q177 464 192.50 458Q208 452 221 444.50Q234 437 247 431Q260 425 280 425Q301 425 315.50 432Q330 439 347 456L388 406Q365 377 340 363.50Q315 350 281 350Q258 350 241 356.50Q224 363 209 370.50Q194 378 179 384.50Q164 391 146 391Q120 391 102 381.50Q84 372 68 352L40 416Z"  horiz-adv-x="437" vert-adv-y="1000"  />

      
      </font>
</defs>
</svg>
